OxygenSans-Black.ufo
<glyph name="exclam" format="1">
  <advance width="695.2346"/>
  <unicode hex="0021"/>
  <outline>
    <contour>
      <point x="347.049" y="-1.3024" type="curve" smooth="yes"/>
      <point x="441.171" y="-1.3024"/>
      <point x="537.7956" y="83.9416"/>
      <point x="537.7956" y="190.8686" type="curve" smooth="yes"/>
      <point x="537.7956" y="300.9322"/>
      <point x="441.171" y="385.464"/>
      <point x="347.049" y="385.464" type="curve" smooth="yes"/>
      <point x="250.5026" y="385.464"/>
      <point x="153.1658" y="300.9322"/>
      <point x="153.1658" y="190.8686" type="curve" smooth="yes"/>
      <point x="153.1658" y="82.5172"/>
      <point x="250.5026" y="-1.3024"/>
    </contour>
    <contour>
      <point x="278.244" y="460.366" type="line"/>
      <point x="448.9468" y="460.366" type="line"/>
      <point x="516.781" y="1100.926" type="line"/>
      <point x="516.781" y="1417.4974" type="line"/>
      <point x="200.2732" y="1417.4974" type="line"/>
      <point x="200.2732" y="1100.926" type="line"/>
    </contour>
  </outline>
</glyph>
<glyph name="quotedbl" format="1">
  <advance width="884.4984"/>
  <unicode hex="0022"/>
  <outline>
    <contour>
      <point x="586.6152" y="790.5944" type="line"/>
      <point x="832.0938" y="790.5944" type="line"/>
      <point x="861.0938" y="1370.8582" type="line"/>
      <point x="551.903" y="1370.8582" type="line"/>
    </contour>
    <contour>
      <point x="141.3024" y="790.5944" type="line"/>
      <point x="386.781" y="790.5944" type="line"/>
      <point x="416.4932" y="1370.8582" type="line"/>
      <point x="106.5902" y="1370.8582" type="line"/>
    </contour>
  </outline>
</glyph>
<glyph name="numbersign" format="1">
  <advance width="1235.0782"/>
  <unicode hex="0023"/>
  <outline>
    <contour>
      <point x="732.3806" y="630.9614" type="line"/>
      <point x="520.049" y="630.9614" type="line"/>
      <point x="577.5172" y="949.122" type="line"/>
      <point x="788.1366" y="949.122" type="line"/>
    </contour>
    <contour>
      <point x="621.1074" y="19.9416" type="line"/>
      <point x="814.9906" y="19.9416" type="line"/>
      <point x="896.854" y="469.6392" type="line"/>
      <point x="1137.7518" y="469.6392" type="line"/>
      <point x="1159.3128" y="630.9614" type="line"/>
      <point x="928.976" y="630.9614" type="line"/>
      <point x="984.732" y="949.122" type="line"/>
      <point x="1220.6152" y="949.122" type="line"/>
      <point x="1242.1762" y="1110.4442" type="line"/>
      <point x="1013.4296" y="1110.4442" type="line"/>
      <point x="1069.7466" y="1420.7122" type="line"/>
      <point x="872.439" y="1420.7122" type="line"/>
      <point x="818.5464" y="1110.4442" type="line"/>
      <point x="606.2148" y="1110.4442" type="line"/>
      <point x="662.5318" y="1420.7122" type="line"/>
      <point x="463.512" y="1420.7122" type="line"/>
      <point x="409.6194" y="1110.4442" type="line"/>
      <point x="145.4776" y="1110.4442" type="line"/>
      <point x="121.78" y="949.122" type="line"/>
      <point x="380.9218" y="949.122" type="line"/>
      <point x="324.4536" y="630.9614" type="line"/>
      <point x="62.6142" y="630.9614" type="line"/>
      <point x="38.9166" y="469.6392" type="line"/>
      <point x="294.0438" y="469.6392" type="line"/>
      <point x="213.8926" y="19.9416" type="line"/>
      <point x="407.7758" y="19.9416" type="line"/>
      <point x="489.6392" y="469.6392" type="line"/>
      <point x="701.9708" y="469.6392" type="line"/>
    </contour>
  </outline>
</glyph>
<glyph name="percent" format="1">
  <advance width="1686.0094"/>
  <unicode hex="0025"/>
  <outline>
    <contour>
      <point x="1432.3806" y="-14.7122" type="curve" smooth="yes"/>
      <point x="1200.5318" y="-14.7122"/>
      <point x="1070.9854" y="144.1512"/>
      <point x="1070.9854" y="348.3024" type="curve" smooth="yes"/>
      <point x="1070.9854" y="553.4536"/>
      <point x="1202.8196" y="710.317"/>
      <point x="1432.3806" y="710.317" type="curve" smooth="yes"/>
      <point x="1665.2294" y="710.317"/>
      <point x="1796.488" y="556.4536"/>
      <point x="1796.488" y="348.3024" type="curve" smooth="yes"/>
      <point x="1796.488" y="144.1512"/>
      <point x="1662.2294" y="-14.7122"/>
    </contour>
    <contour>
      <point x="1430.9562" y="158.171" type="curve" smooth="yes"/>
      <point x="1538.7414" y="158.171"/>
      <point x="1585.7706" y="244.6538"/>
      <point x="1585.7706" y="351.0146" type="curve" smooth="yes"/>
      <point x="1585.7706" y="459.951"/>
      <point x="1537.7414" y="540.8582"/>
      <point x="1430.9562" y="540.8582" type="curve" smooth="yes"/>
      <point x="1323.8832" y="540.8582"/>
      <point x="1274.1418" y="455.6632"/>
      <point x="1274.1418" y="351.0146" type="curve" smooth="yes"/>
      <point x="1274.1418" y="243.0782"/>
      <point x="1323.171" y="158.171"/>
    </contour>
    <contour>
      <point x="398.4536" y="863.049" type="curve" smooth="yes"/>
      <point x="506.2388" y="863.049"/>
      <point x="553.268" y="949.5318"/>
      <point x="553.268" y="1055.8926" type="curve" smooth="yes"/>
      <point x="553.268" y="1164.829"/>
      <point x="505.2388" y="1245.7362"/>
      <point x="398.4536" y="1245.7362" type="curve" smooth="yes"/>
      <point x="291.3806" y="1245.7362"/>
      <point x="241.6392" y="1160.5412"/>
      <point x="241.6392" y="1055.8926" type="curve" smooth="yes"/>
      <point x="241.6392" y="947.9562"/>
      <point x="290.6684" y="863.049"/>
    </contour>
    <contour>
      <point x="399.878" y="690.1658" type="curve" smooth="yes"/>
      <point x="168.0292" y="690.1658"/>
      <point x="38.4828" y="849.0292"/>
      <point x="38.4828" y="1053.1804" type="curve" smooth="yes"/>
      <point x="38.4828" y="1258.3316"/>
      <point x="170.317" y="1415.195"/>
      <point x="399.878" y="1415.195" type="curve" smooth="yes"/>
      <point x="632.7268" y="1415.195"/>
      <point x="763.9854" y="1261.3316"/>
      <point x="763.9854" y="1053.1804" type="curve" smooth="yes"/>
      <point x="763.9854" y="849.0292"/>
      <point x="629.7268" y="690.1658"/>
    </contour>
    <contour>
      <point x="375.2242" y="0.0" type="line"/>
      <point x="1195.951" y="1399.3462" type="line"/>
      <point x="1421.9416" y="1399.3462" type="line"/>
      <point x="608.5026" y="0.0" type="line"/>
    </contour>
  </outline>
</glyph>
<glyph name="ampersand" format="1">
  <advance width="1261.6872"/>
  <unicode hex="0026"/>
  <outline>
    <contour>
      <point x="522.4922" y="-15.5756" type="curve" smooth="yes"/>
      <point x="624.926" y="-15.5756"/>
      <point x="760.5506" y="18.0"/>
      <point x="876.5652" y="102.0146" type="curve"/>
      <point x="1020.1116" y="-9.7268" type="line"/>
      <point x="1350.5464" y="108.1856" type="line"/>
      <point x="1136.3316" y="323.976" type="line"/>
      <point x="1192.634" y="392.2638"/>
      <point x="1230.5558" y="448.6538"/>
      <point x="1277.5412" y="529.5172" type="curve"/>
      <point x="1036.4432" y="682.6882" type="line"/>
      <point x="999.731" y="629.9322"/>
      <point x="967.6726" y="588.8154"/>
      <point x="928.5068" y="533.5276" type="curve"/>
      <point x="753.1564" y="721.7852" type="line"/>
      <point x="850.439" y="800.0876"/>
      <point x="1000.878" y="937.3608"/>
      <point x="1000.878" y="1125.3316" type="curve" smooth="yes"/>
      <point x="1000.878" y="1362.9854"/>
      <point x="723.219" y="1416.634"/>
      <point x="573.5704" y="1416.634" type="curve" smooth="yes"/>
      <point x="415.6194" y="1416.634"/>
      <point x="186.0094" y="1319.1658"/>
      <point x="186.0094" y="1062.9802" type="curve" smooth="yes"/>
      <point x="186.0094" y="945.9656"/>
      <point x="244.585" y="819.4192"/>
      <point x="279.2628" y="767.756" type="curve"/>
      <point x="113.2774" y="683.317"/>
      <point x="31.0532" y="616.0928"/>
      <point x="31.0532" y="414.366" type="curve" smooth="yes"/>
      <point x="31.0532" y="70.3754"/>
      <point x="335.8634" y="-15.5756"/>
    </contour>
    <contour>
      <point x="525.9312" y="263.6298" type="curve" smooth="yes"/>
      <point x="494.6538" y="263.6298"/>
      <point x="380.488" y="281.3222"/>
      <point x="380.488" y="425.7904" type="curve" smooth="yes"/>
      <point x="380.488" y="494.4682"/>
      <point x="403.7268" y="533.2826"/>
      <point x="445.2826" y="556.6434" type="curve"/>
      <point x="680.438" y="302.8686" type="line"/>
      <point x="665.8968" y="288.0688"/>
      <point x="555.9552" y="263.6298"/>
    </contour>
    <contour>
      <point x="587.0" y="919.2002" type="curve"/>
      <point x="581.1272" y="939.756"/>
      <point x="532.4296" y="1030.756"/>
      <point x="532.4296" y="1094.6632" type="curve" smooth="yes"/>
      <point x="532.4296" y="1165.585"/>
      <point x="537.0146" y="1180.2336"/>
      <point x="585.5558" y="1180.2336" type="curve" smooth="yes"/>
      <point x="618.1262" y="1180.2336"/>
      <point x="670.7164" y="1163.7362"/>
      <point x="670.7164" y="1104.9364" type="curve" smooth="yes"/>
      <point x="670.7164" y="1023.7268"/>
      <point x="626.7216" y="951.3952"/>
    </contour>
  </outline>
</glyph>
<glyph name="quotesingle" format="1">
  <advance width="689.2012"/>
  <unicode hex="0027"/>
  <outline>
    <contour>
      <point x="263.5078" y="798.7946" type="line"/>
      <point x="487.1814" y="798.7946" type="line"/>
      <point x="521.7278" y="1378.7998" type="line"/>
      <point x="214.8394" y="1378.7998" type="line"/>
    </contour>
  </outline>
</glyph>
<glyph name="parenleft" format="1">
  <advance width="739.5172"/>
  <unicode hex="0028"/>
  <outline>
    <contour>
      <point x="439.878" y="-63.6726" type="curve"/>
      <point x="775.7518" y="-63.6726" type="line"/>
      <point x="669.9228" y="138.8832"/>
      <point x="505.4932" y="341.6194"/>
      <point x="505.4932" y="646.2096" type="curve" smooth="yes"/>
      <point x="505.4932" y="1008.8342"/>
      <point x="736.8352" y="1406.659"/>
      <point x="776.0396" y="1449.5704" type="curve"/>
      <point x="439.5902" y="1449.5704" type="line"/>
      <point x="307.9708" y="1292.878"/>
      <point x="159.9072" y="994.878"/>
      <point x="159.9072" y="646.3462" type="curve" smooth="yes"/>
      <point x="159.9072" y="335.0"/>
      <point x="281.7268" y="161.903"/>
    </contour>
  </outline>
</glyph>
<glyph name="parenright" format="1">
  <advance width="758.3514"/>
  <unicode hex="0029"/>
  <outline>
    <contour>
      <point x="69.9218" y="-63.6726" type="curve"/>
      <point x="408.5078" y="-63.6726" type="line"/>
      <point x="544.4004" y="112.2492"/>
      <point x="687.4786" y="360.683"/>
      <point x="687.4786" y="677.1658" type="curve" smooth="yes"/>
      <point x="687.4786" y="1020.561"/>
      <point x="559.2492" y="1243.2242"/>
      <point x="405.3712" y="1449.5704" type="curve"/>
      <point x="72.3462" y="1449.5704" type="line"/>
      <point x="173.1898" y="1257.6976"/>
      <point x="341.8926" y="995.1366"/>
      <point x="341.8926" y="668.4682" type="curve" smooth="yes"/>
      <point x="341.8926" y="327.9218"/>
      <point x="114.1116" y="-10.0782"/>
    </contour>
  </outline>
</glyph>
<glyph name="asterisk" format="1">
  <advance width="1017.0824"/>
  <unicode hex="002A"/>
  <outline>
    <contour>
      <point x="389.2878" y="435.3264" type="line"/>
      <point x="102.0824" y="579.5266" type="line"/>
      <point x="305.1408" y="813.8092" type="line"/>
      <point x="20.463" y="873.414" type="line"/>
      <point x="111.6778" y="1167.9218" type="line"/>
      <point x="386.5068" y="1054.7268" type="line"/>
      <point x="358.0678" y="1372.2826" type="line"/>
      <point x="656.3024" y="1372.2826" type="line"/>
      <point x="631.0" y="1054.7268" type="line"/>
      <point x="909.5412" y="1167.9218" type="line"/>
      <point x="995.9072" y="873.414" type="line"/>
      <point x="713.5026" y="813.8092" type="line"/>
      <point x="753.5026" y="768.0824"/>
      <point x="1011.5714" y="452.0428"/>
      <point x="911.8634" y="579.5266" type="curve"/>
      <point x="973.1126" y="617.9854"/>
      <point x="573.3942" y="392.731"/>
      <point x="634.6434" y="431.1898" type="curve"/>
      <point x="510.1022" y="670.365" type="line"/>
    </contour>
  </outline>
</glyph>
<glyph name="plus" format="1">
  <advance width="965.2044"/>
  <unicode hex="002B"/>
  <outline>
    <contour>
      <point x="396.585" y="99.6778" type="line"/>
      <point x="678.6392" y="99.6778" type="line"/>
      <point x="678.6392" y="481.4192" type="line"/>
      <point x="1063.3368" y="481.4192" type="line"/>
      <point x="1063.3368" y="769.732" type="line"/>
      <point x="680.3514" y="769.732" type="line"/>
      <point x="680.3514" y="1158.5954" type="line"/>
      <point x="400.0094" y="1158.5954" type="line"/>
      <point x="400.0094" y="769.732" type="line"/>
      <point x="17.585" y="769.732" type="line"/>
      <point x="17.585" y="481.4192" type="line"/>
      <point x="396.585" y="481.4192" type="line"/>
    </contour>
  </outline>
</glyph>
<glyph name="comma" format="1">
  <advance width="575.7174"/>
  <unicode hex="002C"/>
  <outline>
    <contour>
      <point x="86.3608" y="-216.512" type="curve"/>
      <point x="362.8102" y="-216.512" type="line"/>
      <point x="362.8102" y="-216.512"/>
      <point x="556.2544" y="248.4296"/>
      <point x="556.2544" y="219.2294" type="curve"/>
      <point x="566.5276" y="294.0344" type="line"/>
      <point x="232.7758" y="294.0344" type="line"/>
      <point x="232.7758" y="368.1032"/>
      <point x="86.3608" y="-216.512"/>
    </contour>
  </outline>
</glyph>
<glyph name="hyphen" format="1">
  <advance width="468.9406"/>
  <unicode hex="002D"/>
  <outline>
    <contour>
      <point x="-42.0542" y="361.902" type="line"/>
      <point x="527.3754" y="361.902" type="line"/>
      <point x="527.3754" y="638.8196" type="line"/>
      <point x="-42.0542" y="638.8196" type="line"/>
    </contour>
  </outline>
</glyph>
<glyph name="period" format="1">
  <advance width="610.2492"/>
  <unicode hex="002E"/>
  <outline>
    <contour>
      <point x="334.8832" y="17.244" type="curve" smooth="yes"/>
      <point x="435.415" y="17.244"/>
      <point x="534.1762" y="102.9124"/>
      <point x="534.1762" y="213.4004" type="curve" smooth="yes"/>
      <point x="534.1762" y="325.6006"/>
      <point x="435.415" y="414.6934"/>
      <point x="334.8832" y="414.6934" type="curve" smooth="yes"/>
      <point x="234.0636" y="414.6934"/>
      <point x="132.878" y="325.6006"/>
      <point x="132.878" y="213.4004" type="curve" smooth="yes"/>
      <point x="132.878" y="100.488"/>
      <point x="234.3514" y="17.244"/>
    </contour>
  </outline>
</glyph>
<glyph name="slash" format="1">
  <advance width="797.6726"/>
  <unicode hex="002F"/>
  <outline>
    <contour>
      <point x="17.6924" y="-53.219" type="line"/>
      <point x="342.6736" y="-53.219" type="line"/>
      <point x="837.6486" y="1429.9708" type="line"/>
      <point x="507.243" y="1429.9708" type="line"/>
    </contour>
  </outline>
</glyph>
<glyph name="zero" format="1">
  <advance width="1194.0438"/>
  <unicode hex="0030"/>
  <outline>
    <contour>
      <point x="642.5464" y="287.8738" type="curve" smooth="yes"/>
      <point x="456.3806" y="287.8738"/>
      <point x="477.4494" y="611.2596"/>
      <point x="477.4494" y="716.5756" type="curve"/>
      <point x="482.2982" y="832.56"/>
      <point x="461.2294" y="1125.7164"/>
      <point x="642.5464" y="1125.7164" type="curve" smooth="yes"/>
      <point x="828.7122" y="1125.7164"/>
      <point x="814.4776" y="799.9354"/>
      <point x="814.4776" y="710.0146" type="curve" smooth="yes"/>
      <point x="814.4776" y="607.123"/>
      <point x="828.7122" y="287.8738"/>
    </contour>
    <contour>
      <point x="642.5464" y="-9.0292" type="curve" smooth="yes"/>
      <point x="1074.415" y="-9.0292"/>
      <point x="1202.0052" y="393.2638"/>
      <point x="1202.0052" y="701.5902" type="curve" smooth="yes"/>
      <point x="1202.0052" y="996.3994"/>
      <point x="1084.9468" y="1419.4828"/>
      <point x="642.5464" y="1419.4828" type="curve" smooth="yes"/>
      <point x="204.2826" y="1419.4828"/>
      <point x="94.7706" y="1002.9604"/>
      <point x="94.7706" y="701.5902" type="curve" smooth="yes"/>
      <point x="94.7706" y="393.2638"/>
      <point x="212.39" y="-9.0292"/>
    </contour>
  </outline>
</glyph>
<glyph name="one" format="1">
  <advance width="1215.122"/>
  <unicode hex="0031"/>
  <outline>
    <contour>
      <point x="232.8634" y="0.0" type="line"/>
      <point x="1125.488" y="0.0" type="line"/>
      <point x="1125.488" y="292.6152" type="line"/>
      <point x="745.3514" y="292.6152" type="line"/>
      <point x="879.6736" y="156.5808" type="line"/>
      <point x="879.6736" y="1399.3462" type="line"/>
      <point x="567.9072" y="1399.3462" type="line"/>
      <point x="479.4974" y="1334.6486"/>
      <point x="386.805" y="1288.2096"/>
      <point x="223.2096" y="1237.1168" type="curve"/>
      <point x="223.2096" y="946.3504" type="line"/>
      <point x="418.3514" y="979.3212"/>
      <point x="516.7706" y="1036.3212"/>
      <point x="559.39" y="1087.3358" type="curve"/>
      <point x="505.9802" y="1136.8676" type="line"/>
      <point x="505.9802" y="155.1564" type="line"/>
      <point x="641.7268" y="292.6152" type="line"/>
      <point x="232.8634" y="292.6152" type="line"/>
    </contour>
  </outline>
</glyph>
<glyph name="two" format="1">
  <advance width="1215.122"/>
  <unicode hex="0032"/>
  <outline>
    <contour>
      <point x="216.7758" y="0.0" type="line"/>
      <point x="1016.1366" y="0.0" type="line"/>
      <point x="1043.3952" y="292.6152" type="line"/>
      <point x="492.6496" y="292.6152" type="line"/>
      <point x="564.2888" y="175.7028" type="line"/>
      <point x="799.6538" y="464.8728" type="line"/>
      <point x="965.683" y="653.024"/>
      <point x="1065.6392" y="863.0"/>
      <point x="1065.6392" y="992.2534" type="curve" smooth="yes"/>
      <point x="1065.6392" y="1285.5558"/>
      <point x="926.4348" y="1414.9218"/>
      <point x="649.0198" y="1414.9218" type="curve" smooth="yes"/>
      <point x="497.8686" y="1414.9218"/>
      <point x="334.732" y="1365.0584"/>
      <point x="223.049" y="1272.39" type="curve"/>
      <point x="331.9614" y="974.7894" type="line"/>
      <point x="361.2002" y="1012.1064"/>
      <point x="490.488" y="1070.6528"/>
      <point x="590.805" y="1070.6528" type="curve" smooth="yes"/>
      <point x="681.1366" y="1070.6528"/>
      <point x="682.536" y="1027.7894"/>
      <point x="682.536" y="984.5266" type="curve" smooth="yes"/>
      <point x="682.536" y="971.732"/>
      <point x="631.3556" y="810.8488"/>
      <point x="586.5266" y="751.7466" type="curve" smooth="yes"/>
      <point x="230.0052" y="304.6006" type="line"/>
    </contour>
  </outline>
</glyph>
<glyph name="three" format="1">
  <advance width="1215.122"/>
  <unicode hex="0033"/>
  <outline>
    <contour>
      <point x="615.366" y="-30.9854" type="curve" smooth="yes"/>
      <point x="837.3316" y="-30.9854"/>
      <point x="1102.9416" y="95.195"/>
      <point x="1102.9416" y="380.0146" type="curve" smooth="yes"/>
      <point x="1102.9416" y="495.2972"/>
      <point x="1059.9614" y="674.6486"/>
      <point x="936.8738" y="729.9072" type="curve"/>
      <point x="1030.1272" y="800.1512"/>
      <point x="1065.9416" y="921.5464"/>
      <point x="1065.9416" y="1015.6924" type="curve" smooth="yes"/>
      <point x="1065.9416" y="1238.1314"/>
      <point x="867.2148" y="1416.634"/>
      <point x="598.9562" y="1416.634" type="curve" smooth="yes"/>
      <point x="404.5902" y="1416.634"/>
      <point x="289.2732" y="1381.0584"/>
      <point x="191.5318" y="1320.756" type="curve"/>
      <point x="295.171" y="1044.7018" type="line"/>
      <point x="355.366" y="1084.0188"/>
      <point x="440.2878" y="1118.5944"/>
      <point x="558.8634" y="1118.5944" type="curve" smooth="yes"/>
      <point x="675.7998" y="1118.5944"/>
      <point x="679.9896" y="1013.487"/>
      <point x="679.9896" y="985.7216" type="curve" smooth="yes"/>
      <point x="679.9896" y="897.6684"/>
      <point x="618.0584" y="854.683"/>
      <point x="430.6048" y="859.3806" type="curve"/>
      <point x="348.3754" y="859.3806" type="line"/>
      <point x="348.3754" y="571.7508" type="line"/>
      <point x="432.0292" y="571.7508" type="line"/>
      <point x="626.2534" y="566.7508"/>
      <point x="695.731" y="525.463"/>
      <point x="695.731" y="405.8342" type="curve" smooth="yes"/>
      <point x="695.731" y="333.659"/>
      <point x="623.78" y="291.025"/>
      <point x="556.439" y="291.025" type="curve" smooth="yes"/>
      <point x="506.8832" y="291.025"/>
      <point x="411.8394" y="306.0688"/>
      <point x="287.6246" y="379.6006" type="curve"/>
      <point x="180.2732" y="107.5464" type="line"/>
      <point x="354.7028" y="-10.6392"/>
      <point x="513.2492" y="-30.9854"/>
    </contour>
  </outline>
</glyph>
<glyph name="four" format="1">
  <advance width="1215.122"/>
  <unicode hex="0034"/>
  <outline>
    <contour>
      <point x="635.3556" y="0.0" type="line"/>
      <point x="1011.7466" y="0.0" type="line"/>
      <point x="1011.7466" y="253.3118" type="line"/>
      <point x="1153.927" y="253.3118" type="line"/>
      <point x="1172.488" y="550.7758" type="line"/>
      <point x="1011.7466" y="550.7758" type="line"/>
      <point x="1011.7466" y="1399.3462" type="line"/>
      <point x="517.9406" y="1399.3462" type="line"/>
      <point x="74.3462" y="503.7268" type="line"/>
      <point x="74.3462" y="253.3118" type="line"/>
      <point x="635.3556" y="253.3118" type="line"/>
    </contour>
    <contour>
      <point x="455.3128" y="542.5026" type="line"/>
      <point x="636.0678" y="1013.8968" type="line"/>
      <point x="636.0678" y="542.5026" type="line"/>
    </contour>
  </outline>
</glyph>
<glyph name="five" format="1">
  <advance width="1215.122"/>
  <unicode hex="0035"/>
  <outline>
    <contour>
      <point x="613.927" y="-18.2878" type="curve" smooth="yes"/>
      <point x="981.8102" y="-18.2878"/>
      <point x="1126.927" y="197.2148"/>
      <point x="1126.927" y="439.0292" type="curve" smooth="yes"/>
      <point x="1126.927" y="725.1074"/>
      <point x="937.8342" y="897.2878"/>
      <point x="747.1272" y="897.2878" type="curve" smooth="yes"/>
      <point x="601.3222" y="897.2878"/>
      <point x="534.1564" y="835.9072"/>
      <point x="573.1324" y="858.2294" type="curve"/>
      <point x="588.1616" y="1093.7456" type="line"/>
      <point x="1061.2002" y="1093.7456" type="line"/>
      <point x="1084.1856" y="1399.3462" type="line"/>
      <point x="227.7706" y="1399.3462" type="line"/>
      <point x="198.317" y="561.5996" type="line"/>
      <point x="451.1418" y="515.6434" type="line"/>
      <point x="515.5662" y="583.3556"/>
      <point x="564.927" y="605.097"/>
      <point x="606.439" y="605.097" type="curve" smooth="yes"/>
      <point x="644.5506" y="605.097"/>
      <point x="739.536" y="568.7998"/>
      <point x="739.536" y="447.7268" type="curve" smooth="yes"/>
      <point x="739.536" y="379.6444"/>
      <point x="732.6048" y="284.1762"/>
      <point x="574.5318" y="284.1762" type="curve" smooth="yes"/>
      <point x="381.3462" y="284.1762"/>
      <point x="224.39" y="425.3326"/>
      <point x="275.3368" y="397.4494" type="curve"/>
      <point x="145.3024" y="133.0928" type="line"/>
      <point x="97.0824" y="152.2638"/>
      <point x="336.39" y="-18.2878"/>
    </contour>
  </outline>
</glyph>
<glyph name="six" format="1">
  <advance width="1215.122"/>
  <unicode hex="0036"/>
  <outline>
    <contour>
      <point x="626.7122" y="-19.0" type="curve" smooth="yes"/>
      <point x="923.6976" y="-19.0"/>
      <point x="1188.7174" y="145.6194"/>
      <point x="1188.7174" y="447.2586" type="curve" smooth="yes"/>
      <point x="1188.7174" y="712.1074"/>
      <point x="988.5662" y="901.366"/>
      <point x="681.8196" y="901.366" type="curve" smooth="yes"/>
      <point x="740.6694" y="901.366"/>
      <point x="679.294" y="989.806"/>
      <point x="646.3232" y="997.3378" type="curve"/>
      <point x="719.8258" y="905.1522" type="line"/>
      <point x="719.8258" y="905.1522"/>
      <point x="894.0844" y="1142.9572"/>
      <point x="806.4838" y="1014.049" type="curve"/>
      <point x="1104.1178" y="1399.3462" type="line"/>
      <point x="646.7998" y="1399.3462" type="line"/>
      <point x="216.5214" y="824.78" type="line"/>
      <point x="142.0094" y="738.7706"/>
      <point x="54.0094" y="610.195"/>
      <point x="54.0094" y="453.683" type="curve" smooth="yes"/>
      <point x="54.0094" y="132.6632"/>
      <point x="323.0" y="-19.0"/>
    </contour>
    <contour>
      <point x="611.0146" y="268.7664" type="curve" smooth="yes"/>
      <point x="505.1564" y="268.7664"/>
      <point x="444.8102" y="318.7612"/>
      <point x="444.8102" y="442.683" type="curve" smooth="yes"/>
      <point x="444.8102" y="500.2336"/>
      <point x="394.0094" y="632.8582"/>
      <point x="610.4536" y="632.8582" type="curve" smooth="yes"/>
      <point x="751.6778" y="632.8582"/>
      <point x="793.4922" y="565.7706"/>
      <point x="793.4922" y="440.4098" type="curve" smooth="yes"/>
      <point x="793.4922" y="318.6246"/>
      <point x="727.5704" y="268.7664"/>
    </contour>
  </outline>
</glyph>
<glyph name="seven" format="1">
  <advance width="1215.122"/>
  <unicode hex="0037"/>
  <outline>
    <contour>
      <point x="276.9802" y="-0.7122" type="line"/>
      <point x="703.7372" y="-0.7122" type="line"/>
      <point x="1072.805" y="1146.6872" type="line"/>
      <point x="1072.805" y="1399.3462" type="line"/>
      <point x="135.9364" y="1399.3462" type="line"/>
      <point x="115.9948" y="1075.9114" type="line"/>
      <point x="619.7894" y="1075.9114" type="line"/>
    </contour>
  </outline>
</glyph>
<glyph name="eight" format="1">
  <advance width="1215.122"/>
  <unicode hex="0038"/>
  <outline>
    <contour>
      <point x="612.6976" y="-19.0" type="curve" smooth="yes"/>
      <point x="873.122" y="-19.0"/>
      <point x="1140.8978" y="124.2586"/>
      <point x="1140.8978" y="389.6684" type="curve" smooth="yes"/>
      <point x="1140.8978" y="547.4244"/>
      <point x="1058.415" y="675.317"/>
      <point x="988.391" y="752.5756" type="curve"/>
      <point x="1049.537" y="822.9854"/>
      <point x="1122.3076" y="913.3024"/>
      <point x="1122.3076" y="1047.9364" type="curve" smooth="yes"/>
      <point x="1122.3076" y="1309.0292"/>
      <point x="858.7122" y="1416.634"/>
      <point x="610.2732" y="1416.634" type="curve" smooth="yes"/>
      <point x="366.683" y="1416.634"/>
      <point x="97.6632" y="1309.0292"/>
      <point x="97.6632" y="1047.9364" type="curve" smooth="yes"/>
      <point x="97.6632" y="905.0292"/>
      <point x="174.585" y="828.1074"/>
      <point x="253.1262" y="754.7122" type="curve"/>
      <point x="175.8144" y="687.0"/>
      <point x="74.2242" y="536.6048"/>
      <point x="74.2242" y="391.3806" type="curve" smooth="yes"/>
      <point x="74.2242" y="128.3952"/>
      <point x="346.7122" y="-19.0"/>
    </contour>
    <contour>
      <point x="612.6976" y="256.781" type="curve" smooth="yes"/>
      <point x="522.8102" y="256.781"/>
      <point x="465.1616" y="327.6736"/>
      <point x="465.1616" y="418.0782" type="curve" smooth="yes"/>
      <point x="465.1616" y="522.4682"/>
      <point x="521.5662" y="605.2096"/>
      <point x="612.6976" y="640.073" type="curve"/>
      <point x="700.6924" y="605.2096"/>
      <point x="757.9458" y="527.1658"/>
      <point x="757.9458" y="419.7904" type="curve" smooth="yes"/>
      <point x="757.9458" y="334.7956"/>
      <point x="698.5996" y="256.781"/>
    </contour>
    <contour>
      <point x="612.6976" y="847.6538" type="curve"/>
      <point x="518.2784" y="872.8196"/>
      <point x="452.9468" y="935.878"/>
      <point x="452.9468" y="1041.951" type="curve" smooth="yes"/>
      <point x="452.9468" y="1113.341"/>
      <point x="522.8686" y="1164.8238"/>
      <point x="612.6976" y="1164.8238" type="curve" smooth="yes"/>
      <point x="701.1022" y="1164.8238"/>
      <point x="769.4484" y="1113.341"/>
      <point x="769.4484" y="1041.951" type="curve" smooth="yes"/>
      <point x="769.4484" y="935.878"/>
      <point x="703.268" y="872.8196"/>
    </contour>
  </outline>
</glyph>
<glyph name="nine" format="1">
  <advance width="1215.122"/>
  <unicode hex="0039"/>
  <outline>
    <contour>
      <point x="151.7946" y="0.0" type="line"/>
      <point x="616.1126" y="0.0" type="line"/>
      <point x="616.1126" y="0.0"/>
      <point x="1021.8884" y="545.4588"/>
      <point x="1059.5568" y="595.1126" type="curve" smooth="yes"/>
      <point x="1111.2492" y="669.9854"/>
      <point x="1184.4296" y="792.5756"/>
      <point x="1184.4296" y="942.2388" type="curve" smooth="yes"/>
      <point x="1184.4296" y="1266.683"/>
      <point x="913.7268" y="1416.634"/>
      <point x="610.0146" y="1416.634" type="curve" smooth="yes"/>
      <point x="311.317" y="1416.634"/>
      <point x="48.7216" y="1252.0146"/>
      <point x="48.7216" y="945.2388" type="curve" smooth="yes"/>
      <point x="48.7216" y="673.5412"/>
      <point x="246.4484" y="487.707"/>
      <point x="553.195" y="487.707" type="curve" smooth="yes"/>
      <point x="461.8134" y="487.707"/>
      <point x="565.9938" y="391.4182"/>
      <point x="593.828" y="394.1596" type="curve"/>
      <point x="515.1888" y="471.9354" type="line"/>
      <point x="515.1888" y="471.9354"/>
      <point x="403.4036" y="311.0282"/>
      <point x="496.7018" y="435.6632" type="curve"/>
    </contour>
    <contour>
      <point x="628.6976" y="761.3514" type="curve" smooth="yes"/>
      <point x="487.4734" y="761.3514"/>
      <point x="441.5224" y="825.0146"/>
      <point x="441.5224" y="955.512" type="curve" smooth="yes"/>
      <point x="441.5224" y="1080.7216"/>
      <point x="512.5808" y="1123.731"/>
      <point x="629.1366" y="1123.731" type="curve" smooth="yes"/>
      <point x="734.9948" y="1123.731"/>
      <point x="795.341" y="1083.0094"/>
      <point x="795.341" y="957.3754" type="curve" smooth="yes"/>
      <point x="795.341" y="892.976"/>
      <point x="843.4296" y="761.3514"/>
    </contour>
  </outline>
</glyph>
<glyph name="colon" format="1">
  <advance width="741.269"/>
  <unicode hex="003A"/>
  <outline>
    <contour>
      <point x="224.5026" y="0.0" type="line"/>
      <point x="580.8154" y="0.0" type="line"/>
      <point x="580.8154" y="355.2054" type="line"/>
      <point x="224.5026" y="355.2054" type="line"/>
    </contour>
    <contour>
      <point x="224.5026" y="742.7362" type="line"/>
      <point x="580.8154" y="742.7362" type="line"/>
      <point x="580.8154" y="1075.5464" type="line"/>
      <point x="224.5026" y="1075.5464" type="line"/>
    </contour>
  </outline>
</glyph>
<glyph name="semicolon" format="1">
  <advance width="747.1032"/>
  <unicode hex="003B"/>
  <outline>
    <contour>
      <point x="251.8978" y="742.7362" type="line"/>
      <point x="608.2106" y="742.7362" type="line"/>
      <point x="608.2106" y="1075.5464" type="line"/>
      <point x="251.8978" y="1075.5464" type="line"/>
    </contour>
    <contour>
      <point x="250.854" y="-302.4244" type="line"/>
      <point x="487.074" y="-302.4244" type="line"/>
      <point x="609.7862" y="343.3274" type="line"/>
      <point x="300.7174" y="343.3274" type="line"/>
    </contour>
  </outline>
</glyph>
<glyph name="less" format="1">
  <advance width="1031.6434"/>
  <unicode hex="003C"/>
  <outline>
    <contour>
      <point x="996.3462" y="219.732" type="line"/>
      <point x="996.3462" y="219.732"/>
      <point x="993.2096" y="530.9082"/>
      <point x="991.4974" y="532.6204" type="curve" smooth="yes"/>
      <point x="490.9666" y="747.537" type="line"/>
      <point x="993.4974" y="996.439" type="line"/>
      <point x="993.4974" y="1286.9322" type="line"/>
      <point x="91.7414" y="826.4786" type="line"/>
      <point x="91.7414" y="654.7466" type="line"/>
    </contour>
  </outline>
</glyph>
<glyph name="greater" format="1">
  <advance width="1022.3848"/>
  <unicode hex="003E"/>
  <outline>
    <contour>
      <point x="140.1512" y="219.8832" type="line"/>
      <point x="1041.9072" y="656.171" type="line"/>
      <point x="1041.9072" y="823.7664" type="line"/>
      <point x="138.0146" y="1282.9468" type="line"/>
      <point x="138.0146" y="991.7414" type="line"/>
      <point x="648.804" y="747.537" type="line"/>
      <point x="140.1512" y="529.635" type="line"/>
    </contour>
  </outline>
</glyph>
<glyph name="question" format="1">
  <advance width="1008.8832"/>
  <unicode hex="003F"/>
  <outline>
    <contour>
      <point x="613.1762" y="475.3368" type="line"/>
      <point x="776.6788" y="697.2242"/>
      <point x="973.586" y="839.6632"/>
      <point x="973.586" y="1031.4922" type="curve" smooth="yes"/>
      <point x="973.586" y="1287.4046"/>
      <point x="734.7028" y="1381.146"/>
      <point x="575.3858" y="1381.146" type="curve" smooth="yes"/>
      <point x="402.4442" y="1381.146"/>
      <point x="293.5954" y="1343.8582"/>
      <point x="184.6392" y="1271.5996" type="curve"/>
      <point x="301.2346" y="1049.7456" type="line"/>
      <point x="366.2054" y="1089.4432"/>
      <point x="415.854" y="1120.6236"/>
      <point x="543.976" y="1120.6236" type="curve" smooth="yes"/>
      <point x="635.3222" y="1120.6236"/>
      <point x="684.6538" y="1055.9114"/>
      <point x="686.366" y="985.2482" type="curve"/>
      <point x="686.366" y="882.634"/>
      <point x="512.3712" y="772.976"/>
      <point x="452.4442" y="475.3368" type="curve"/>
    </contour>
    <contour>
      <point x="527.537" y="-1.3024" type="curve" smooth="yes"/>
      <point x="616.5224" y="-1.3024"/>
      <point x="707.2982" y="83.9416"/>
      <point x="707.2982" y="190.8686" type="curve" smooth="yes"/>
      <point x="707.2982" y="300.9322"/>
      <point x="616.5224" y="385.464"/>
      <point x="527.537" y="385.464" type="curve" smooth="yes"/>
      <point x="434.415" y="385.464"/>
      <point x="332.9416" y="300.9322"/>
      <point x="332.9416" y="190.8686" type="curve" smooth="yes"/>
      <point x="332.9416" y="80.805"/>
      <point x="436.1272" y="-1.3024"/>
    </contour>
  </outline>
</glyph>
<glyph name="at" format="1">
  <advance width="1501.5642"/>
  <unicode hex="0040"/>
  <outline>
    <contour>
      <point x="740.3358" y="-27.2482" type="curve" smooth="yes"/>
      <point x="903.9552" y="-27.2482"/>
      <point x="1102.365" y="7.0542"/>
      <point x="1211.9698" y="80.22" type="curve"/>
      <point x="1164.4088" y="237.8446" type="line"/>
      <point x="1050.804" y="173.9666"/>
      <point x="877.5308" y="142.6642"/>
      <point x="738.487" y="142.6642" type="curve" smooth="yes"/>
      <point x="359.4432" y="142.6642"/>
      <point x="247.073" y="471.001"/>
      <point x="247.073" y="656.2148" type="curve" smooth="yes"/>
      <point x="247.073" y="880.2336"/>
      <point x="378.609" y="1228.4922"/>
      <point x="782.9406" y="1228.4922" type="curve" smooth="yes"/>
      <point x="1237.8676" y="1228.4922"/>
      <point x="1285.1742" y="934.8238"/>
      <point x="1285.1742" y="782.1074" type="curve" smooth="yes"/>
      <point x="1285.1742" y="500.2878"/>
      <point x="1169.462" y="475.2054"/>
      <point x="1137.1502" y="475.2054" type="curve" smooth="yes"/>
      <point x="1109.1992" y="475.2054"/>
      <point x="1059.487" y="487.1564"/>
      <point x="1059.487" y="530.5172" type="curve" smooth="yes"/>
      <point x="1059.487" y="635.8342"/>
      <point x="1093.3504" y="790.7414"/>
      <point x="1116.5016" y="962.6486" type="curve"/>
      <point x="1042.6236" y="1021.0438"/>
      <point x="871.4088" y="1046.6194"/>
      <point x="790.6674" y="1046.6194" type="curve" smooth="yes"/>
      <point x="532.9114" y="1046.6194"/>
      <point x="388.7456" y="785.9364"/>
      <point x="388.7456" y="614.6538" type="curve" smooth="yes"/>
      <point x="388.7456" y="485.3858"/>
      <point x="466.7894" y="320.2784"/>
      <point x="681.1846" y="320.2784" type="curve" smooth="yes"/>
      <point x="850.9114" y="320.2784"/>
      <point x="923.8186" y="475.3076"/>
      <point x="930.3014" y="497.7998" type="curve"/>
      <point x="908.5454" y="497.7998" type="line"/>
      <point x="924.682" y="441.7028"/>
      <point x="1005.1064" y="307.8832"/>
      <point x="1133.3014" y="307.8832" type="curve" smooth="yes"/>
      <point x="1284.194" y="307.8832"/>
      <point x="1478.2086" y="458.3514"/>
      <point x="1478.2086" y="771.683" type="curve" smooth="yes"/>
      <point x="1478.2086" y="1146.2242"/>
      <point x="1175.7258" y="1393.8436"/>
      <point x="796.926" y="1393.8436" type="curve" smooth="yes"/>
      <point x="363.6726" y="1393.8436"/>
      <point x="26.2044" y="1084.4682"/>
      <point x="26.2044" y="667.2002" type="curve" smooth="yes"/>
      <point x="26.2044" y="248.9322"/>
      <point x="340.3556" y="-27.2482"/>
    </contour>
    <contour>
      <point x="702.0334" y="460.0834" type="curve" smooth="yes"/>
      <point x="616.9896" y="460.0834"/>
      <point x="594.78" y="561.4786"/>
      <point x="594.78" y="604.6684" type="curve" smooth="yes"/>
      <point x="594.78" y="763.4536"/>
      <point x="686.536" y="914.2388"/>
      <point x="838.4578" y="914.2388" type="curve" smooth="yes"/>
      <point x="893.8822" y="914.2388"/>
      <point x="915.755" y="906.073"/>
      <point x="949.9062" y="893.7852" type="curve"/>
      <point x="926.999" y="960.6632" type="line"/>
      <point x="931.2722" y="1005.5318"/>
      <point x="874.438" y="682.2242"/>
      <point x="880.8478" y="726.3806" type="curve" smooth="yes"/>
      <point x="843.5746" y="560.8978"/>
      <point x="831.5016" y="460.0834"/>
    </contour>
  </outline>
</glyph>
<glyph name="A" format="1">
  <advance width="1598.2106"/>
  <unicode hex="0041"/>
  <outline>
    <contour>
      <point x="49.0" y="0.0" type="line"/>
      <point x="499.7424" y="0.0" type="line"/>
      <point x="625.6934" y="398.7362" type="line"/>
      <point x="497.781" y="304.658" type="line"/>
      <point x="1089.4588" y="304.658" type="line"/>
      <point x="957.8342" y="391.5996" type="line"/>
      <point x="1098.6194" y="0.0" type="line"/>
      <point x="1549.2106" y="0.0" type="line"/>
      <point x="1081.684" y="1399.3462" type="line"/>
      <point x="519.951" y="1399.3462" type="line"/>
    </contour>
    <contour>
      <point x="640.6788" y="463.5266" type="line"/>
      <point x="829.098" y="1136.5798" type="line"/>
      <point x="784.5224" y="1135.1554" type="line"/>
      <point x="941.1366" y="465.2388" type="line"/>
      <point x="1004.5318" y="583.7122" type="line"/>
      <point x="575.4348" y="583.7122" type="line"/>
    </contour>
  </outline>
</glyph>
<glyph name="B" format="1">
  <advance width="1392.9708"/>
  <unicode hex="0042"/>
  <outline>
    <contour>
      <point x="157.7852" y="0.0" type="line"/>
      <point x="766.5464" y="0.0" type="line" smooth="yes"/>
      <point x="1051.2096" y="0.0"/>
      <point x="1302.366" y="132.1804"/>
      <point x="1302.366" y="429.3952" type="curve" smooth="yes"/>
      <point x="1302.366" y="645.9708"/>
      <point x="1145.6684" y="744.7122"/>
      <point x="1036.6298" y="803.3952" type="curve"/>
      <point x="1036.6298" y="719.1658" type="line"/>
      <point x="1136.8488" y="795.2878"/>
      <point x="1260.2002" y="895.0292"/>
      <point x="1260.2002" y="1038.7852" type="curve" smooth="yes"/>
      <point x="1260.2002" y="1327.8634"/>
      <point x="1034.1366" y="1399.3462"/>
      <point x="708.0782" y="1399.3462" type="curve" smooth="yes"/>
      <point x="157.7852" y="1399.3462" type="line"/>
    </contour>
    <contour>
      <point x="512.8738" y="321.7226" type="line"/>
      <point x="587.9812" y="242.1908" type="line"/>
      <point x="587.9812" y="704.0584" type="line"/>
      <point x="513.586" y="598.5704" type="line"/>
      <point x="726.9124" y="598.5704" type="line" smooth="yes"/>
      <point x="831.1752" y="598.5704"/>
      <point x="872.17" y="548.5412"/>
      <point x="872.17" y="465.0636" type="curve" smooth="yes"/>
      <point x="872.17" y="365.9176"/>
      <point x="804.536" y="321.7226"/>
      <point x="686.195" y="321.7226" type="curve" smooth="yes"/>
    </contour>
    <contour>
      <point x="514.2982" y="870.6392" type="line"/>
      <point x="587.9812" y="795.2586" type="line"/>
      <point x="587.9812" y="1165.4286" type="line"/>
      <point x="512.1616" y="1087.8968" type="line"/>
      <point x="637.1804" y="1087.8968" type="line" smooth="yes"/>
      <point x="774.4922" y="1087.8968"/>
      <point x="838.0042" y="1067.4286"/>
      <point x="838.0042" y="975.4192" type="curve" smooth="yes"/>
      <point x="838.0042" y="918.6392"/>
      <point x="806.2972" y="870.6392"/>
      <point x="679.3462" y="870.6392" type="curve" smooth="yes"/>
    </contour>
  </outline>
</glyph>
<glyph name="C" format="1">
  <advance width="1312.4244"/>
  <unicode hex="0043"/>
  <outline>
    <contour>
      <point x="811.317" y="-19.0" type="curve" smooth="yes"/>
      <point x="865.8092" y="-19.0"/>
      <point x="1052.7362" y="-19.9124"/>
      <point x="1242.8196" y="65.2878" type="curve"/>
      <point x="1171.8634" y="388.147" type="line"/>
      <point x="1053.9656" y="332.7664"/>
      <point x="894.3118" y="330.4056"/>
      <point x="851.0" y="330.4056" type="curve" smooth="yes"/>
      <point x="757.7862" y="330.4056"/>
      <point x="542.3764" y="328.0438"/>
      <point x="542.3764" y="704.878" type="curve" smooth="yes"/>
      <point x="542.3764" y="1059.4536"/>
      <point x="759.7716" y="1075.7894"/>
      <point x="849.6976" y="1075.7894" type="curve" smooth="yes"/>
      <point x="938.0292" y="1075.7894"/>
      <point x="1047.6194" y="1051.7748"/>
      <point x="1138.0438" y="1008.4724" type="curve"/>
      <point x="1240.122" y="1302.9218" type="line"/>
      <point x="1104.0438" y="1380.6194"/>
      <point x="952.3462" y="1416.634"/>
      <point x="827.1366" y="1416.634" type="curve" smooth="yes"/>
      <point x="532.3858" y="1416.634"/>
      <point x="110.4682" y="1279.4004"/>
      <point x="110.4682" y="705.0292" type="curve" smooth="yes"/>
      <point x="110.4682" y="165.8582"/>
      <point x="443.5464" y="-19.0"/>
    </contour>
  </outline>
</glyph>
<glyph name="D" format="1">
  <advance width="1569.6684"/>
  <unicode hex="0044"/>
  <outline>
    <contour>
      <point x="587.9812" y="222.0688" type="line"/>
      <point x="587.9812" y="1173.853" type="line"/>
      <point x="502.7372" y="1087.8968" type="line"/>
      <point x="650.2294" y="1087.8968" type="line" smooth="yes"/>
      <point x="906.2826" y="1087.8968"/>
      <point x="1034.1408" y="952.853"/>
      <point x="1034.1408" y="704.878" type="curve" smooth="yes"/>
      <point x="1034.1408" y="475.6444"/>
      <point x="892.9166" y="321.7226"/>
      <point x="677.2294" y="321.7226" type="curve" smooth="yes"/>
      <point x="504.4494" y="321.7226" type="line"/>
    </contour>
    <contour>
      <point x="157.7852" y="0.0" type="line"/>
      <point x="639.0146" y="0.0" type="line" smooth="yes"/>
      <point x="1107.5756" y="0.0"/>
      <point x="1462.6246" y="265.5464"/>
      <point x="1462.6246" y="709.878" type="curve" smooth="yes"/>
      <point x="1462.6246" y="1163.3754"/>
      <point x="1099.5464" y="1399.3462"/>
      <point x="620.0" y="1399.3462" type="curve" smooth="yes"/>
      <point x="157.7852" y="1399.3462" type="line"/>
    </contour>
  </outline>
</glyph>
<glyph name="E" format="1">
  <advance width="1326.2054"/>
  <unicode hex="0045"/>
  <outline>
    <contour>
      <point x="157.7852" y="0.0" type="line"/>
      <point x="1132.3514" y="0.0" type="line"/>
      <point x="1156.7612" y="321.7226" type="line"/>
      <point x="484.0542" y="321.7226" type="line"/>
      <point x="587.9812" y="221.9322" type="line"/>
      <point x="587.9812" y="710.7414" type="line"/>
      <point x="482.342" y="590.1314" type="line"/>
      <point x="1126.415" y="590.1314" type="line"/>
      <point x="1126.415" y="901.5808" type="line"/>
      <point x="484.0542" y="901.5808" type="line"/>
      <point x="587.9812" y="797.2294" type="line"/>
      <point x="587.9812" y="1197.8092" type="line"/>
      <point x="480.9176" y="1087.8968" type="line"/>
      <point x="1121.9416" y="1087.8968" type="line"/>
      <point x="1137.927" y="1399.3462" type="line"/>
      <point x="157.7852" y="1399.3462" type="line"/>
    </contour>
  </outline>
</glyph>
<glyph name="F" format="1">
  <advance width="1273.464"/>
  <unicode hex="0046"/>
  <outline>
    <contour>
      <point x="157.7852" y="0.0" type="line"/>
      <point x="585.1324" y="0.0" type="line"/>
      <point x="585.1324" y="689.6048" type="line"/>
      <point x="448.5224" y="541.8874" type="line"/>
      <point x="1151.0396" y="541.8874" type="line"/>
      <point x="1151.0396" y="853.4734" type="line"/>
      <point x="446.659" y="853.4734" type="line"/>
      <point x="585.1324" y="746.6976" type="line"/>
      <point x="585.1324" y="1191.2628" type="line"/>
      <point x="438.098" y="1070.7748" type="line"/>
      <point x="1220.0104" y="1070.7748" type="line"/>
      <point x="1234.147" y="1399.3462" type="line"/>
      <point x="157.7852" y="1399.3462" type="line"/>
    </contour>
  </outline>
</glyph>
<glyph name="G" format="1">
  <advance width="1436.7706"/>
  <unicode hex="0047"/>
  <outline>
    <contour>
      <point x="791.3316" y="-19.0" type="curve" smooth="yes"/>
      <point x="979.0584" y="-19.0"/>
      <point x="1138.195" y="22.2732"/>
      <point x="1301.7414" y="101.6684" type="curve"/>
      <point x="1301.7414" y="791.488" type="line"/>
      <point x="661.2628" y="791.488" type="line"/>
      <point x="668.3848" y="493.7216" type="line"/>
      <point x="1029.7018" y="493.7216" type="line"/>
      <point x="945.17" y="578.2534" type="line"/>
      <point x="945.17" y="232.5224" type="line"/>
      <point x="1054.658" y="420.6496" type="line"/>
      <point x="984.9604" y="374.9666"/>
      <point x="1004.317" y="328.6934"/>
      <point x="782.39" y="328.6934" type="curve" smooth="yes"/>
      <point x="633.3274" y="328.6934"/>
      <point x="541.3764" y="473.6882"/>
      <point x="541.3764" y="714.8634" type="curve" smooth="yes"/>
      <point x="541.3764" y="987.5412"/>
      <point x="685.6006" y="1079.2138"/>
      <point x="856.4244" y="1079.2138" type="curve" smooth="yes"/>
      <point x="854.8822" y="1079.2138"/>
      <point x="999.3848" y="1085.536"/>
      <point x="1183.9364" y="1000.4578" type="curve"/>
      <point x="1285.1366" y="1311.195" type="line"/>
      <point x="1106.512" y="1377.3608"/>
      <point x="1006.5902" y="1416.634"/>
      <point x="824.4682" y="1416.634" type="curve" smooth="yes"/>
      <point x="482.61" y="1416.634"/>
      <point x="109.4682" y="1205.9124"/>
      <point x="109.4682" y="710.439" type="curve" smooth="yes"/>
      <point x="109.4682" y="242.6486"/>
      <point x="401.244" y="-19.0"/>
    </contour>
  </outline>
</glyph>
<glyph name="H" format="1">
  <advance width="1609.5808"/>
  <unicode hex="0048"/>
  <outline>
    <contour>
      <point x="159.9218" y="0.0" type="line"/>
      <point x="590.1178" y="0.0" type="line"/>
      <point x="590.1178" y="672.6486" type="line"/>
      <point x="487.1762" y="557.1752" type="line"/>
      <point x="1122.268" y="557.1752" type="line"/>
      <point x="1019.463" y="672.6486" type="line"/>
      <point x="1019.463" y="0.0" type="line"/>
      <point x="1449.659" y="0.0" type="line"/>
      <point x="1449.659" y="1399.3462" type="line"/>
      <point x="1019.463" y="1399.3462" type="line"/>
      <point x="1019.463" y="767.4098" type="line"/>
      <point x="1111.707" y="882.171" type="line"/>
      <point x="485.464" y="882.171" type="line"/>
      <point x="590.1178" y="767.4098" type="line"/>
      <point x="590.1178" y="1399.3462" type="line"/>
      <point x="159.9218" y="1399.3462" type="line"/>
    </contour>
  </outline>
</glyph>
<glyph name="I" format="1">
  <advance width="944.342"/>
  <unicode hex="0049"/>
  <outline>
    <contour>
      <point x="124.2732" y="1399.3462" type="line"/>
      <point x="124.2732" y="1147.7018" type="line"/>
      <point x="372.122" y="1147.7018" type="line"/>
      <point x="259.7852" y="1225.3702" type="line"/>
      <point x="259.7852" y="169.6882" type="line"/>
      <point x="366.8488" y="249.9322" type="line"/>
      <point x="124.2732" y="249.9322" type="line"/>
      <point x="124.2732" y="0.0" type="line"/>
      <point x="819.3566" y="0.0" type="line"/>
      <point x="819.3566" y="249.9322" type="line"/>
      <point x="565.7956" y="249.9322" type="line"/>
      <point x="689.9812" y="166.5516" type="line"/>
      <point x="689.9812" y="1231.9312" type="line"/>
      <point x="562.9468" y="1147.7018" type="line"/>
      <point x="819.3566" y="1147.7018" type="line"/>
      <point x="819.3566" y="1399.3462" type="line"/>
    </contour>
  </outline>
</glyph>
<glyph name="J" format="1">
  <advance width="1041.3034"/>
  <unicode hex="004A"/>
  <outline>
    <contour>
      <point x="332.4056" y="-299.2346" type="line"/>
      <point x="595.342" y="-299.2346"/>
      <point x="885.2304" y="-25.683"/>
      <point x="885.2304" y="336.6538" type="curve" smooth="yes"/>
      <point x="885.2304" y="1399.3462" type="line"/>
      <point x="453.3222" y="1399.3462" type="line"/>
      <point x="453.3222" y="345.7466" type="line" smooth="yes"/>
      <point x="453.3222" y="323.9228"/>
      <point x="402.8686" y="40.4734"/>
      <point x="262.2054" y="40.4734" type="curve" smooth="yes"/>
      <point x="24.122" y="40.4734" type="line"/>
      <point x="24.122" y="-299.2346" type="line"/>
    </contour>
  </outline>
</glyph>
<glyph name="K" format="1">
  <advance width="1547.0886"/>
  <unicode hex="004B"/>
  <outline>
    <contour>
      <point x="157.7852" y="0.0" type="line"/>
      <point x="587.9812" y="0.0" type="line"/>
      <point x="587.9812" y="620.756" type="line"/>
      <point x="528.2836" y="452.8436" type="line"/>
      <point x="790.0886" y="658.4192" type="line"/>
      <point x="650.1762" y="677.5412" type="line"/>
      <point x="1057.7268" y="0.0" type="line"/>
      <point x="1547.879" y="0.0" type="line"/>
      <point x="970.4598" y="877.5318" type="line"/>
      <point x="970.4598" y="661.8582" type="line"/>
      <point x="1512.7424" y="1399.3462" type="line"/>
      <point x="1017.7414" y="1399.3462" type="line"/>
      <point x="503.1762" y="736.2294" type="line"/>
      <point x="587.9812" y="727.9416" type="line"/>
      <point x="587.9812" y="1399.3462" type="line"/>
      <point x="157.7852" y="1399.3462" type="line"/>
    </contour>
  </outline>
</glyph>
<glyph name="L" format="1">
  <advance width="1223.415"/>
  <unicode hex="004C"/>
  <outline>
    <contour>
      <point x="157.7852" y="0.0" type="line"/>
      <point x="1159.1272" y="0.0" type="line"/>
      <point x="1183.098" y="321.7226" type="line"/>
      <point x="460.781" y="321.7226" type="line"/>
      <point x="587.9812" y="194.2346" type="line"/>
      <point x="587.9812" y="1399.3462" type="line"/>
      <point x="157.7852" y="1399.3462" type="line"/>
    </contour>
  </outline>
</glyph>
<glyph name="M" format="1">
  <advance width="2008.8738"/>
  <unicode hex="004D"/>
  <outline>
    <contour>
      <point x="142.634" y="0.0" type="line"/>
      <point x="554.5568" y="0.0" type="line"/>
      <point x="560.2836" y="107.7436" type="line"/>
      <point x="560.2836" y="774.925" type="line"/>
      <point x="489.0542" y="774.925" type="line"/>
      <point x="851.122" y="249.4442" type="line"/>
      <point x="1136.781" y="249.4442" type="line"/>
      <point x="1516.122" y="774.925" type="line"/>
      <point x="1447.1658" y="774.925" type="line"/>
      <point x="1447.1658" y="110.0314" type="line"/>
      <point x="1452.8926" y="0.0" type="line"/>
      <point x="1864.5276" y="0.0" type="line"/>
      <point x="1816.269" y="1399.3462" type="line"/>
      <point x="1437.805" y="1399.3462" type="line"/>
      <point x="935.488" y="614.2012" type="line"/>
      <point x="1066.4004" y="614.2012" type="line"/>
      <point x="573.6444" y="1399.3462" type="line"/>
      <point x="192.317" y="1399.3462" type="line"/>
    </contour>
  </outline>
</glyph>
<glyph name="N" format="1">
  <advance width="1650.8832"/>
  <unicode hex="004E"/>
  <outline>
    <contour>
      <point x="157.7852" y="0.0" type="line"/>
      <point x="594.952" y="0.0" type="line"/>
      <point x="594.952" y="91.4172" type="line"/>
      <point x="561.4056" y="938.8134" type="line"/>
      <point x="483.6006" y="954.4818" type="line"/>
      <point x="1003.1262" y="0.0" type="line"/>
      <point x="1493.098" y="0.0" type="line"/>
      <point x="1493.098" y="1399.3462" type="line"/>
      <point x="1055.219" y="1399.3462" type="line"/>
      <point x="1055.219" y="1079.904" type="line"/>
      <point x="1085.4776" y="426.7278" type="line"/>
      <point x="1146.024" y="423.1668" type="line"/>
      <point x="630.0594" y="1399.3462" type="line"/>
      <point x="157.7852" y="1399.3462" type="line"/>
    </contour>
  </outline>
</glyph>
<glyph name="O" format="1">
  <advance width="1663.4098"/>
  <unicode hex="004F"/>
  <outline>
    <contour>
      <point x="833.561" y="321.8446" type="curve" smooth="yes"/>
      <point x="707.0886" y="321.8446"/>
      <point x="542.3764" y="473.8394"/>
      <point x="542.3764" y="702.7268" type="curve" smooth="yes"/>
      <point x="542.3764" y="925.9312"/>
      <point x="698.1178" y="1072.365"/>
      <point x="832.1366" y="1072.365" type="curve" smooth="yes"/>
      <point x="965.4432" y="1072.365"/>
      <point x="1122.7456" y="928.0678"/>
      <point x="1122.7456" y="702.7268" type="curve" smooth="yes"/>
      <point x="1122.7456" y="473.8394"/>
      <point x="960.0334" y="321.8446"/>
    </contour>
    <contour>
      <point x="832.1366" y="-19.0" type="curve" smooth="yes"/>
      <point x="1215.9364" y="-19.0"/>
      <point x="1552.9416" y="232.9218"/>
      <point x="1552.9416" y="708.2878" type="curve" smooth="yes"/>
      <point x="1552.9416" y="1173.4098"/>
      <point x="1223.9072" y="1416.634"/>
      <point x="831.4244" y="1416.634" type="curve" smooth="yes"/>
      <point x="448.2002" y="1416.634"/>
      <point x="110.4682" y="1169.8488"/>
      <point x="110.4682" y="706.1512" type="curve" smooth="yes"/>
      <point x="110.4682" y="238.6194"/>
      <point x="454.0344" y="-19.0"/>
    </contour>
  </outline>
</glyph>
<glyph name="P" format="1">
  <advance width="1442.8738"/>
  <unicode hex="0050"/>
  <outline>
    <contour>
      <point x="157.7852" y="0.0" type="line"/>
      <point x="587.9812" y="0.0" type="line"/>
      <point x="587.9812" y="661.829" type="line"/>
      <point x="510.4348" y="548.9166" type="line"/>
      <point x="766.8978" y="548.9166" type="line" smooth="yes"/>
      <point x="1246.1178" y="548.9166"/>
      <point x="1388.6788" y="745.9802"/>
      <point x="1388.6788" y="999.9802" type="curve" smooth="yes"/>
      <point x="1388.6788" y="1337.0146"/>
      <point x="1120.781" y="1399.3462"/>
      <point x="763.3368" y="1399.3462" type="curve" smooth="yes"/>
      <point x="157.7852" y="1399.3462" type="line"/>
    </contour>
    <contour>
      <point x="715.683" y="875.7758" type="curve" smooth="yes"/>
      <point x="516.2836" y="875.7758" type="line"/>
      <point x="587.9812" y="776.1366" type="line"/>
      <point x="587.9812" y="1160.731" type="line"/>
      <point x="516.2836" y="1087.8968" type="line"/>
      <point x="766.4734" y="1087.8968" type="line" smooth="yes"/>
      <point x="924.0782" y="1087.8968"/>
      <point x="958.4828" y="1056.292"/>
      <point x="958.4828" y="983.8582" type="curve" smooth="yes"/>
      <point x="958.4828" y="940.3514"/>
      <point x="944.3806" y="875.7758"/>
    </contour>
  </outline>
</glyph>
<glyph name="Q" format="1">
  <advance width="1659.9854"/>
  <unicode hex="0051"/>
  <outline>
    <contour>
      <point x="1182.39" y="-535.7028" type="curve"/>
      <point x="1437.732" y="-319.0292" type="line"/>
      <point x="1294.3806" y="-177.8144"/>
      <point x="1220.732" y="6.5954"/>
      <point x="1177.293" y="62.0928" type="curve"/>
      <point x="816.6142" y="-35.5172" type="line"/>
      <point x="890.4922" y="-163.1512"/>
      <point x="1020.097" y="-436.61"/>
    </contour>
    <component base="O"/>
  </outline>
</glyph>
<glyph name="R" format="1">
  <advance width="1437.1074"/>
  <unicode hex="0052"/>
  <outline>
    <contour>
      <point x="157.7852" y="0.0" type="line"/>
      <point x="587.9812" y="0.0" type="line"/>
      <point x="587.9812" y="562.9604" type="line"/>
      <point x="513.8592" y="506.2628" type="line"/>
      <point x="837.512" y="506.2628" type="line"/>
      <point x="688.024" y="563.975" type="line"/>
      <point x="802.7508" y="236.1846" type="line"/>
      <point x="911.3066" y="0.0" type="line"/>
      <point x="1367.4734" y="0.0" type="line"/>
      <point x="1223.2054" y="307.731" type="line"/>
      <point x="1052.7174" y="678.2972" type="line"/>
      <point x="1020.3222" y="531.9604" type="line"/>
      <point x="1145.6976" y="604.341"/>
      <point x="1320.171" y="673.536"/>
      <point x="1320.171" y="951.8874" type="curve" smooth="yes"/>
      <point x="1320.171" y="1351.5318"/>
      <point x="1024.6778" y="1399.3462"/>
      <point x="685.8728" y="1399.3462" type="curve" smooth="yes"/>
      <point x="157.7852" y="1399.3462" type="line"/>
    </contour>
    <contour>
      <point x="587.9812" y="686.9656" type="line"/>
      <point x="587.9812" y="1160.4432" type="line"/>
      <point x="522.1324" y="1087.8968" type="line"/>
      <point x="711.268" y="1087.8968" type="line" smooth="yes"/>
      <point x="842.6726" y="1087.8968"/>
      <point x="886.414" y="1044.975"/>
      <point x="886.414" y="946.463" type="curve" smooth="yes"/>
      <point x="886.414" y="838.9218"/>
      <point x="848.536" y="777.9072"/>
      <point x="721.9218" y="777.9072" type="curve" smooth="yes"/>
      <point x="510.4348" y="777.9072" type="line"/>
    </contour>
  </outline>
</glyph>
<glyph name="S" format="1">
  <advance width="1263.20954178"/>
  <unicode hex="0053"/>
  <outline>
    <contour>
      <point x="612.2732" y="-19.0" type="curve" smooth="yes"/>
      <point x="947.3222" y="-19.0"/>
      <point x="1168.4442" y="159.8978"/>
      <point x="1157.049" y="423.5026" type="curve" smooth="yes"/>
      <point x="1147.0782" y="630.8488"/>
      <point x="1081.9468" y="778.61"/>
      <point x="796.488" y="865.8832" type="curve" smooth="yes"/>
      <point x="578.1856" y="929.7758" type="line" smooth="yes"/>
      <point x="589.6788" y="917.3024"/>
      <point x="557.8008" y="975.1366"/>
      <point x="557.8008" y="986.1606" type="curve" smooth="yes"/>
      <point x="557.8008" y="1037.6236"/>
      <point x="556.4588" y="1072.365"/>
      <point x="678.6538" y="1072.365" type="curve" smooth="yes"/>
      <point x="765.195" y="1072.365"/>
      <point x="904.6048" y="1037.0188"/>
      <point x="1050.0344" y="979.3504" type="curve"/>
      <point x="1157.4004" y="1313.8926" type="line"/>
      <point x="985.5318" y="1398.0"/>
      <point x="820.4098" y="1416.634"/>
      <point x="648.8488" y="1416.634" type="curve" smooth="yes"/>
      <point x="325.1168" y="1416.634"/>
      <point x="151.5902" y="1233.7654"/>
      <point x="151.5902" y="983.7216" type="curve" smooth="yes"/>
      <point x="151.5902" y="783.0094"/>
      <point x="258.7414" y="616.7018"/>
      <point x="416.634" y="573.5214" type="curve" smooth="yes"/>
      <point x="660.4828" y="504.4922" type="line" smooth="yes"/>
      <point x="681.292" y="506.8144"/>
      <point x="738.5798" y="454.951"/>
      <point x="743.5652" y="433.2002" type="curve" smooth="yes"/>
      <point x="750.6872" y="359.7518"/>
      <point x="718.2826" y="321.8446"/>
      <point x="625.8342" y="321.8446" type="curve" smooth="yes"/>
      <point x="529.5662" y="321.8446"/>
      <point x="317.5464" y="352.1762"/>
      <point x="247.9416" y="388.5078" type="curve"/>
      <point x="131.4536" y="60.3754" type="line"/>
      <point x="304.732" y="-26.4296"/>
      <point x="491.3712" y="-19.0"/>
    </contour>
  </outline>
</glyph>
<glyph name="T" format="1">
  <advance width="1257.5662"/>
  <unicode hex="0054"/>
  <outline>
    <contour>
      <point x="414.9656" y="0.0" type="line"/>
      <point x="846.8738" y="0.0" type="line"/>
      <point x="846.8738" y="1180.9896" type="line"/>
      <point x="745.659" y="1047.6674" type="line"/>
      <point x="1208.415" y="1047.6674" type="line"/>
      <point x="1208.415" y="1399.3462" type="line"/>
      <point x="49.1512" y="1399.3462" type="line"/>
      <point x="49.1512" y="1047.6674" type="line"/>
      <point x="516.1804" y="1047.6674" type="line"/>
      <point x="414.9656" y="1184.1262" type="line"/>
    </contour>
  </outline>
</glyph>
<glyph name="U" format="1">
  <advance width="1573.8686"/>
  <unicode hex="0055"/>
  <outline>
    <contour>
      <point x="787.0782" y="-19.0" type="curve" smooth="yes"/>
      <point x="1130.4244" y="-19.0"/>
      <point x="1425.1272" y="147.951"/>
      <point x="1425.1272" y="489.4828" type="curve" smooth="yes"/>
      <point x="1425.1272" y="1399.3462" type="line"/>
      <point x="994.9312" y="1399.3462" type="line"/>
      <point x="994.9312" y="527.8634" type="line" smooth="yes"/>
      <point x="994.9312" y="386.9614"/>
      <point x="904.7216" y="328.6934"/>
      <point x="787.0782" y="328.6934" type="curve" smooth="yes"/>
      <point x="691.1032" y="328.6934"/>
      <point x="580.6496" y="384.537"/>
      <point x="580.6496" y="525.439" type="curve" smooth="yes"/>
      <point x="580.6496" y="1399.3462" type="line"/>
      <point x="148.7414" y="1399.3462" type="line"/>
      <point x="148.7414" y="489.0584" type="line" smooth="yes"/>
      <point x="148.7414" y="150.9364"/>
      <point x="445.5808" y="-19.0"/>
    </contour>
  </outline>
</glyph>
<glyph name="V" format="1">
  <advance width="1491.1126"/>
  <unicode hex="0056"/>
  <outline>
    <contour>
      <point x="475.341" y="0.0" type="line"/>
      <point x="1011.635" y="0.0" type="line"/>
      <point x="1425.9614" y="1399.3462" type="line"/>
      <point x="962.5214" y="1399.3462" type="line"/>
      <point x="810.4098" y="707.8738" type="line"/>
      <point x="715.2002" y="275.781" type="line"/>
      <point x="793.7466" y="275.781" type="line"/>
      <point x="690.976" y="709.7226" type="line"/>
      <point x="533.0156" y="1399.3462" type="line"/>
      <point x="65.1512" y="1399.3462" type="line"/>
    </contour>
  </outline>
</glyph>
<glyph name="W" format="1">
  <advance width="1980.6924"/>
  <unicode hex="0057"/>
  <outline>
    <contour>
      <point x="358.9166" y="0.0" type="line"/>
      <point x="759.4296" y="0.0" type="line"/>
      <point x="1014.9218" y="900.4182" type="line"/>
      <point x="970.0584" y="900.4182" type="line"/>
      <point x="1182.4578" y="0.0" type="line"/>
      <point x="1585.2586" y="0.0" type="line"/>
      <point x="1949.512" y="1400.0584" type="line"/>
      <point x="1527.0282" y="1400.0584" type="line"/>
      <point x="1357.0094" y="495.3524" type="line"/>
      <point x="1388.024" y="495.3524" type="line"/>
      <point x="1177.6246" y="1417.2732" type="line"/>
      <point x="801.6434" y="1417.2732" type="line"/>
      <point x="555.439" y="496.7768" type="line"/>
      <point x="594.0146" y="496.7768" type="line"/>
      <point x="457.513" y="1400.0584" type="line"/>
      <point x="31.1804" y="1400.0584" type="line"/>
    </contour>
  </outline>
</glyph>
<glyph name="X" format="1">
  <advance width="1518.342"/>
  <unicode hex="0058"/>
  <outline>
    <contour>
      <point x="16.1606" y="0.0" type="line"/>
      <point x="468.1762" y="0.0" type="line"/>
      <point x="779.732" y="412.5944" type="line"/>
      <point x="983.83" y="706.2732" type="line"/>
      <point x="1450.6934" y="1399.3462" type="line"/>
      <point x="1012.2242" y="1399.3462" type="line"/>
      <point x="768.5954" y="1057.3764" type="line"/>
      <point x="545.512" y="776.3806" type="line"/>
    </contour>
    <contour>
      <point x="1004.6778" y="0.0" type="line"/>
      <point x="1490.074" y="0.0" type="line"/>
      <point x="555.3326" y="1399.3462" type="line"/>
      <point x="86.4828" y="1399.3462" type="line"/>
    </contour>
  </outline>
</glyph>
<glyph name="Y" format="1">
  <advance width="1409.7664"/>
  <unicode hex="0059"/>
  <outline>
    <contour>
      <point x="476.829" y="0.0" type="line"/>
      <point x="901.7372" y="0.0" type="line"/>
      <point x="901.7372" y="638.8926" type="line"/>
      <point x="832.9176" y="361.3556" type="line"/>
      <point x="1366.6006" y="1399.3462" type="line"/>
      <point x="911.8728" y="1399.3462" type="line"/>
      <point x="625.5464" y="740.7612" type="line"/>
      <point x="743.7466" y="740.7612" type="line"/>
      <point x="507.1668" y="1399.3462" type="line"/>
      <point x="43.1658" y="1399.3462" type="line"/>
      <point x="554.073" y="338.2336" type="line"/>
      <point x="476.829" y="627.9072" type="line"/>
    </contour>
  </outline>
</glyph>
<glyph name="Z" format="1">
  <advance width="1282.2002"/>
  <unicode hex="005A"/>
  <outline>
    <contour>
      <point x="151.4244" y="0.0" type="line"/>
      <point x="1173.4588" y="0.0" type="line"/>
      <point x="1165.6246" y="321.7226" type="line"/>
      <point x="610.0938" y="321.7226" type="line"/>
      <point x="662.6256" y="206.2346" type="line"/>
      <point x="1154.488" y="1127.1408" type="line"/>
      <point x="1161.61" y="1399.3462" type="line"/>
      <point x="133.7852" y="1399.3462" type="line"/>
      <point x="133.7852" y="1087.8968" type="line"/>
      <point x="769.292" y="1087.8968" type="line"/>
      <point x="711.1846" y="1218.4922" type="line"/>
      <point x="151.4244" y="238.6882" type="line"/>
    </contour>
  </outline>
</glyph>
<glyph name="bracketleft" format="1">
  <advance width="838.6152"/>
  <unicode hex="005B"/>
  <outline>
    <contour>
      <point x="225.0928" y="25.1668" type="line"/>
      <point x="225.0928" y="1546.5954" type="line"/>
      <point x="698.3222" y="1546.5954" type="line"/>
      <point x="698.3222" y="1285.6632" type="line"/>
      <point x="593.9082" y="1285.6632" type="line"/>
      <point x="593.9082" y="289.2356" type="line"/>
      <point x="698.3222" y="289.2356" type="line"/>
      <point x="698.3222" y="25.1668" type="line"/>
    </contour>
  </outline>
</glyph>
<glyph name="backslash" format="1">
  <advance width="760.3848"/>
  <unicode hex="005C"/>
  <outline>
    <contour>
      <point x="460.5944" y="42.732" type="line"/>
      <point x="79.4974" y="1370.2388" type="line"/>
      <point x="434.7372" y="1370.2388" type="line"/>
      <point x="806.561" y="42.732" type="line"/>
    </contour>
  </outline>
</glyph>
<glyph name="bracketright" format="1">
  <advance width="836.4786"/>
  <unicode hex="005D"/>
  <outline>
    <contour>
      <point x="199.659" y="25.1668" type="line"/>
      <point x="199.659" y="287.5234" type="line"/>
      <point x="303.3608" y="287.5234" type="line"/>
      <point x="303.3608" y="1283.951" type="line"/>
      <point x="199.659" y="1283.951" type="line"/>
      <point x="199.659" y="1546.5954" type="line"/>
      <point x="673.6006" y="1546.5954" type="line"/>
      <point x="673.6006" y="25.1668" type="line"/>
    </contour>
  </outline>
</glyph>
<glyph name="asciicircum" format="1">
  <advance width="905.0866"/>
  <unicode hex="005E"/>
  <outline>
    <contour>
      <point x="-56.6934" y="451.902" type="line"/>
      <point x="396.8384" y="1352.7508" type="line"/>
      <point x="570.146" y="1352.7508" type="line"/>
      <point x="1053.5266" y="451.902" type="line"/>
      <point x="739.5162" y="451.902" type="line"/>
      <point x="483.78" y="937.4182" type="line"/>
      <point x="259.4536" y="451.902" type="line"/>
    </contour>
  </outline>
</glyph>
<glyph name="underscore" format="1">
  <advance width="965.707"/>
  <unicode hex="005F"/>
  <outline>
    <contour>
      <point x="17.5266" y="-107.0824" type="line"/>
      <point x="1043.049" y="-107.0824" type="line"/>
      <point x="1043.049" y="143.8644" type="line"/>
      <point x="17.5266" y="143.8644" type="line"/>
    </contour>
  </outline>
</glyph>
<glyph name="grave" format="1">
  <advance width="240.462"/>
  <unicode hex="0060"/>
  <outline>
    <contour>
      <point x="195.609" y="1047.3994" type="line"/>
      <point x="449.7998" y="1047.3994" type="line"/>
      <point x="253.829" y="1431.3848" type="line"/>
      <point x="-189.0792" y="1431.3848" type="line"/>
    </contour>
  </outline>
</glyph>
<glyph name="a" format="1">
  <advance width="1131.2878"/>
  <unicode hex="0061"/>
  <outline>
    <contour>
      <point x="437.3024" y="-21.8488" type="curve" smooth="yes"/>
      <point x="602.2586" y="-21.8488"/>
      <point x="715.756" y="87.2002"/>
      <point x="734.7508" y="116.1168" type="curve"/>
      <point x="667.219" y="181.1804" type="line"/>
      <point x="732.3118" y="-0.7122" type="line"/>
      <point x="1013.5026" y="-0.7122" type="line"/>
      <point x="1013.5026" y="686.5902" type="line" smooth="yes"/>
      <point x="1013.5026" y="980.2878"/>
      <point x="822.5318" y="1104.1074"/>
      <point x="571.5464" y="1104.1074" type="curve" smooth="yes"/>
      <point x="441.9854" y="1104.1074"/>
      <point x="297.5464" y="1083.9416"/>
      <point x="112.2388" y="1017.1074" type="curve"/>
      <point x="176.9218" y="770.8728" type="line"/>
      <point x="297.6048" y="800.6142"/>
      <point x="403.3608" y="830.6142"/>
      <point x="490.8144" y="830.6142" type="curve" smooth="yes"/>
      <point x="560.8092" y="830.6142"/>
      <point x="639.3848" y="822.6486"/>
      <point x="639.3848" y="723.0" type="curve" smooth="yes"/>
      <point x="639.3848" y="669.3222" type="line"/>
      <point x="688.5068" y="712.8832" type="line"/>
      <point x="461.0678" y="680.3514" type="line" smooth="yes"/>
      <point x="264.8634" y="642.683"/>
      <point x="98.0292" y="566.488"/>
      <point x="98.0292" y="323.6538" type="curve" smooth="yes"/>
      <point x="98.0292" y="85.2878"/>
      <point x="258.0" y="-21.8488"/>
    </contour>
    <contour>
      <point x="546.1564" y="241.3712" type="curve" smooth="yes"/>
      <point x="463.854" y="241.3712"/>
      <point x="437.1908" y="282.2492"/>
      <point x="437.1908" y="324.6538" type="curve" smooth="yes"/>
      <point x="437.1908" y="417.0292"/>
      <point x="536.0104" y="420.2826"/>
      <point x="599.4974" y="449.39" type="curve" smooth="yes"/>
      <point x="662.8238" y="469.9364" type="line"/>
      <point x="637.6726" y="509.073" type="line"/>
      <point x="637.6726" y="237.7122" type="line"/>
      <point x="686.7946" y="297.2096" type="line"/>
      <point x="733.6048" y="377.5714"/>
      <point x="616.4244" y="241.3712"/>
    </contour>
  </outline>
</glyph>
<glyph name="b" format="1">
  <advance width="1236.0146"/>
  <unicode hex="0062"/>
  <outline>
    <contour>
      <point x="738.3368" y="-19.0" type="curve" smooth="yes"/>
      <point x="975.1366" y="-19.0"/>
      <point x="1149.5464" y="225.5318"/>
      <point x="1149.5464" y="562.805" type="curve" smooth="yes"/>
      <point x="1149.5464" y="862.8488"/>
      <point x="983.0" y="1106.5318"/>
      <point x="738.7758" y="1106.5318" type="curve" smooth="yes"/>
      <point x="609.854" y="1106.5318"/>
      <point x="523.9176" y="1043.61"/>
      <point x="458.2054" y="1009.6006" type="curve"/>
      <point x="490.2054" y="977.0688" type="line"/>
      <point x="500.4786" y="1189.2638" type="line"/>
      <point x="500.4786" y="1398.2534" type="line"/>
      <point x="128.9218" y="1377.9802" type="line"/>
      <point x="128.9218" y="0.0" type="line"/>
      <point x="459.2054" y="0.0" type="line"/>
      <point x="497.7518" y="84.5652" type="line"/>
      <point x="456.6006" y="54.17" type="line"/>
      <point x="534.269" y="-27.6006"/>
      <point x="675.2544" y="-19.0"/>
    </contour>
    <contour>
      <point x="621.7706" y="269.903" type="curve" smooth="yes"/>
      <point x="553.293" y="269.903"/>
      <point x="494.0542" y="328.7466"/>
      <point x="494.0542" y="561.5464" type="curve"/>
      <point x="498.1908" y="798.561"/>
      <point x="590.4932" y="819.341"/>
      <point x="623.9218" y="819.341" type="curve" smooth="yes"/>
      <point x="669.4578" y="819.341"/>
      <point x="775.853" y="798.9708"/>
      <point x="775.853" y="556.244" type="curve" smooth="yes"/>
      <point x="775.853" y="322.0636"/>
      <point x="670.1554" y="269.903"/>
    </contour>
  </outline>
</glyph>
<glyph name="c" format="1">
  <advance width="1039.7904"/>
  <unicode hex="0063"/>
  <outline>
    <contour>
      <point x="623.2732" y="-19.0" type="curve" smooth="yes"/>
      <point x="870.6882" y="-19.0"/>
      <point x="930.3222" y="62.2294"/>
      <point x="960.049" y="79.8196" type="curve"/>
      <point x="921.488" y="353.0104" type="line"/>
      <point x="825.122" y="299.6152"/>
      <point x="756.3806" y="268.1908"/>
      <point x="657.3952" y="276.7518" type="curve" smooth="yes"/>
      <point x="590.147" y="288.7372"/>
      <point x="460.1616" y="323.3806"/>
      <point x="460.1616" y="554.6684" type="curve" smooth="yes"/>
      <point x="460.1616" y="758.4682"/>
      <point x="582.0542" y="810.78"/>
      <point x="674.6538" y="810.78" type="curve" smooth="yes"/>
      <point x="774.4098" y="810.78"/>
      <point x="843.0" y="777.0386"/>
      <point x="897.7904" y="744.5068" type="curve"/>
      <point x="977.171" y="1006.2878" type="line"/>
      <point x="829.9218" y="1107.3076"/>
      <point x="726.7852" y="1106.5318"/>
      <point x="628.4098" y="1106.5318" type="curve" smooth="yes"/>
      <point x="334.561" y="1106.5318"/>
      <point x="85.0438" y="941.732"/>
      <point x="85.0438" y="559.805" type="curve" smooth="yes"/>
      <point x="85.0438" y="151.2242"/>
      <point x="306.8634" y="-19.0"/>
    </contour>
  </outline>
</glyph>
<glyph name="d" format="1">
  <advance width="1237.5756"/>
  <unicode hex="0064"/>
  <outline>
    <contour>
      <point x="512.7998" y="-17.2878" type="curve" smooth="yes"/>
      <point x="703.2826" y="-17.2878"/>
      <point x="760.4922" y="55.6778"/>
      <point x="798.7946" y="68.8676" type="curve"/>
      <point x="735.3994" y="65.3066" type="line"/>
      <point x="783.9312" y="0.0" type="line"/>
      <point x="1109.6538" y="0.0" type="line"/>
      <point x="1109.6538" y="1398.2534" type="line"/>
      <point x="735.9604" y="1377.9802" type="line"/>
      <point x="735.9604" y="1078.6486" type="line"/>
      <point x="746.2482" y="1019.5422" type="line"/>
      <point x="792.658" y="1053.6496" type="line"/>
      <point x="736.219" y="1115.1908"/>
      <point x="607.9896" y="1106.5318"/>
      <point x="515.6486" y="1106.5318" type="curve" smooth="yes"/>
      <point x="249.195" y="1106.5318"/>
      <point x="85.0438" y="876.9708"/>
      <point x="85.0438" y="549.4098" type="curve" smooth="yes"/>
      <point x="85.0438" y="218.5464"/>
      <point x="262.3024" y="-17.2878"/>
    </contour>
    <contour>
      <point x="617.3806" y="269.903" type="curve" smooth="yes"/>
      <point x="549.1616" y="269.903"/>
      <point x="458.7372" y="296.122"/>
      <point x="458.7372" y="542.2732" type="curve" smooth="yes"/>
      <point x="458.7372" y="788.439"/>
      <point x="581.708" y="815.9166"/>
      <point x="632.2294" y="815.9166" type="curve" smooth="yes"/>
      <point x="711.4046" y="815.9166"/>
      <point x="754.3702" y="790.5902"/>
      <point x="754.3702" y="526.2732" type="curve"/>
      <point x="750.9458" y="289.2586"/>
      <point x="674.2044" y="269.903"/>
    </contour>
  </outline>
</glyph>
<glyph name="e" format="1">
  <advance width="1243.5808"/>
  <unicode hex="0065"/>
  <outline>
    <contour>
      <point x="702.3222" y="-20.7122" type="curve" smooth="yes"/>
      <point x="873.4442" y="-20.7122"/>
      <point x="1018.8394" y="2.5902"/>
      <point x="1119.8394" y="72.2878" type="curve"/>
      <point x="1082.1272" y="337.9176" type="line"/>
      <point x="1095.1032" y="347.1178"/>
      <point x="952.4494" y="258.2054"/>
      <point x="733.732" y="258.2054" type="curve" smooth="yes"/>
      <point x="576.659" y="258.2054"/>
      <point x="466.4348" y="341.5516"/>
      <point x="468.147" y="493.9218" type="curve"/>
      <point x="410.025" y="434.8144" type="line"/>
      <point x="1142.976" y="434.8144" type="line"/>
      <point x="1142.976" y="434.8144"/>
      <point x="1152.4004" y="577.5464"/>
      <point x="1152.4004" y="582.8634" type="curve" smooth="yes"/>
      <point x="1152.4004" y="878.8634"/>
      <point x="956.7466" y="1104.8196"/>
      <point x="638.1074" y="1104.8196" type="curve" smooth="yes"/>
      <point x="304.4828" y="1103.1074"/>
      <point x="85.0438" y="872.4244"/>
      <point x="85.0438" y="549.8196" type="curve" smooth="yes"/>
      <point x="85.0438" y="198.4098"/>
      <point x="340.6976" y="-20.7122"/>
    </contour>
    <contour>
      <point x="476.2836" y="620.5026" type="line"/>
      <point x="467.7372" y="805.2878"/>
      <point x="609.025" y="834.7508"/>
      <point x="637.2586" y="834.7508" type="curve" smooth="yes"/>
      <point x="699.7216" y="834.7508"/>
      <point x="786.7216" y="778.9218"/>
      <point x="793.5704" y="634.4734" type="curve"/>
      <point x="825.7362" y="675.7612" type="line"/>
      <point x="413.4494" y="675.7612" type="line"/>
    </contour>
  </outline>
</glyph>
<glyph name="f" format="1">
  <advance width="839.3076"/>
  <unicode hex="0066"/>
  <outline>
    <contour>
      <point x="190.1168" y="0.0" type="line"/>
      <point x="563.8102" y="0.0" type="line"/>
      <point x="563.8102" y="893.146" type="line"/>
      <point x="522.5224" y="808.3556" type="line"/>
      <point x="810.6736" y="808.3556" type="line"/>
      <point x="810.6736" y="1075.5464" type="line"/>
      <point x="502.2638" y="1075.5464" type="line"/>
      <point x="563.8102" y="1000.8926" type="line"/>
      <point x="563.8102" y="1105.756" type="line" smooth="yes"/>
      <point x="563.8102" y="1170.3848"/>
      <point x="603.415" y="1186.1116"/>
      <point x="674.4588" y="1186.1116" type="curve" smooth="yes"/>
      <point x="712.8978" y="1186.1116"/>
      <point x="752.5026" y="1181.2482"/>
      <point x="807.293" y="1172.6872" type="curve"/>
      <point x="843.4004" y="1446.4536" type="line"/>
      <point x="723.5464" y="1470.4244"/>
      <point x="658.5464" y="1470.0146"/>
      <point x="608.6538" y="1470.0146" type="curve" smooth="yes"/>
      <point x="383.7122" y="1470.0146"/>
      <point x="190.1168" y="1410.2586"/>
      <point x="190.1168" y="1071.6486" type="curve" smooth="yes"/>
      <point x="190.1168" y="997.4682" type="line"/>
      <point x="240.6778" y="1080.2586" type="line"/>
      <point x="82.0" y="1055.122" type="line"/>
      <point x="77.0" y="808.3556" type="line"/>
      <point x="239.2388" y="808.3556" type="line"/>
      <point x="190.1168" y="898.5704" type="line"/>
    </contour>
  </outline>
</glyph>
<glyph name="g" format="1">
  <advance width="1222.6194"/>
  <unicode hex="0067"/>
  <outline>
    <contour>
      <point x="602.4244" y="320.7226" type="curve" smooth="yes"/>
      <point x="485.8102" y="320.7226"/>
      <point x="437.6152" y="349.0"/>
      <point x="437.6152" y="571.9416" type="curve" smooth="yes"/>
      <point x="437.6152" y="771.9416"/>
      <point x="512.2054" y="815.9166"/>
      <point x="615.6976" y="815.9166" type="curve" smooth="yes"/>
      <point x="704.4922" y="815.9166"/>
      <point x="746.414" y="748.634"/>
      <point x="746.414" y="546.6194" type="curve" smooth="yes"/>
      <point x="746.414" y="577.1564" type="line"/>
      <point x="742.9896" y="376.7466"/>
      <point x="719.1752" y="320.7226"/>
    </contour>
    <contour>
      <point x="524.1366" y="-517.6246" type="curve" smooth="yes"/>
      <point x="874.2388" y="-517.6246"/>
      <point x="1099.561" y="-297.3076"/>
      <point x="1099.561" y="170.3368" type="curve" smooth="yes"/>
      <point x="1099.561" y="1075.5464" type="line"/>
      <point x="773.2482" y="1075.5464" type="line"/>
      <point x="750.6872" y="935.854" type="line"/>
      <point x="790.536" y="952.976" type="line"/>
      <point x="723.414" y="1104.1126"/>
      <point x="613.536" y="1106.5318"/>
      <point x="524.39" y="1106.5318" type="curve" smooth="yes"/>
      <point x="366.415" y="1106.5318"/>
      <point x="63.9218" y="978.1908"/>
      <point x="63.9218" y="566.366" type="curve" smooth="yes"/>
      <point x="63.9218" y="175.5704"/>
      <point x="298.6538" y="35.9562"/>
      <point x="519.6632" y="35.9562" type="curve" smooth="yes"/>
      <point x="597.7164" y="35.9562"/>
      <point x="737.853" y="-2.098"/>
      <point x="801.2482" y="260.6048" type="curve"/>
      <point x="741.2774" y="279.1512" type="line"/>
      <point x="741.2774" y="-14.5808" type="line" smooth="yes"/>
      <point x="741.2774" y="-104.4046"/>
      <point x="660.2336" y="-221.585"/>
      <point x="529.9708" y="-221.585" type="curve" smooth="yes"/>
      <point x="578.3858" y="-221.585"/>
      <point x="480.2054" y="-230.1314"/>
      <point x="192.5558" y="-222.2826" type="curve"/>
      <point x="192.5558" y="-518.3222" type="line"/>
      <point x="596.635" y="-526.8832"/>
      <point x="590.4932" y="-517.6246"/>
    </contour>
  </outline>
</glyph>
<glyph name="h" format="1">
  <advance width="1261.9124"/>
  <unicode hex="0068"/>
  <outline>
    <contour>
      <point x="128.9218" y="0.0" type="line"/>
      <point x="497.4786" y="0.0" type="line"/>
      <point x="497.4786" y="449.4776" type="line" smooth="yes"/>
      <point x="497.4786" y="702.3754"/>
      <point x="529.098" y="815.9166"/>
      <point x="670.122" y="815.9166" type="curve" smooth="yes"/>
      <point x="749.1022" y="815.9166"/>
      <point x="768.8728" y="773.829"/>
      <point x="768.8728" y="648.0" type="curve" smooth="yes"/>
      <point x="768.8728" y="0.0" type="line"/>
      <point x="1143.2784" y="0.0" type="line"/>
      <point x="1143.2784" y="689.805" type="line" smooth="yes"/>
      <point x="1143.2784" y="1000.7466"/>
      <point x="967.6392" y="1104.8196"/>
      <point x="749.7612" y="1104.8196" type="curve" smooth="yes"/>
      <point x="630.8102" y="1104.8196"/>
      <point x="504.0688" y="1033.6538"/>
      <point x="426.3712" y="966.9468" type="curve"/>
      <point x="490.4786" y="938.8248" type="line"/>
      <point x="502.6152" y="1195.171" type="line"/>
      <point x="502.6152" y="1396.5412" type="line"/>
      <point x="128.9218" y="1376.268" type="line"/>
    </contour>
  </outline>
</glyph>
<glyph name="i" format="1">
  <advance width="642.9468"/>
  <unicode hex="0069"/>
  <outline>
    <contour>
      <point x="140.195" y="0.0" type="line"/>
      <point x="513.8884" y="0.0" type="line"/>
      <point x="513.8884" y="1075.5464" type="line"/>
      <point x="140.195" y="1075.5464" type="line"/>
    </contour>
    <contour>
      <point x="140.195" y="1158.7362" type="line"/>
      <point x="513.8884" y="1158.7362" type="line"/>
      <point x="513.8884" y="1399.3462" type="line"/>
      <point x="140.195" y="1399.3462" type="line"/>
    </contour>
  </outline>
</glyph>
<glyph name="j" format="1">
  <advance width="706.1908"/>
  <unicode hex="006A"/>
  <outline>
    <contour>
      <point x="13.439" y="-451.415" type="line"/>
      <point x="81.4244" y="-451.415" type="line" smooth="yes"/>
      <point x="530.8008" y="-451.415"/>
      <point x="577.9958" y="-256.9854"/>
      <point x="577.9958" y="79.0344" type="curve" smooth="yes"/>
      <point x="577.9958" y="1077.2586" type="line"/>
      <point x="210.8634" y="1077.2586" type="line"/>
      <point x="210.8634" y="-28.049" type="line" smooth="yes"/>
      <point x="210.8634" y="-146.5756"/>
      <point x="187.6048" y="-181.0438"/>
      <point x="43.1658" y="-181.0438" type="curve" smooth="yes"/>
      <point x="-39.6392" y="-181.0438" type="line"/>
    </contour>
    <contour>
      <point x="210.8634" y="1158.7362" type="line"/>
      <point x="577.9958" y="1158.7362" type="line"/>
      <point x="577.9958" y="1399.3462" type="line"/>
      <point x="210.8634" y="1399.3462" type="line"/>
    </contour>
  </outline>
</glyph>
<glyph name="k" format="1">
  <advance width="1249.6444"/>
  <unicode hex="006B"/>
  <outline>
    <contour>
      <point x="128.9218" y="0.0" type="line"/>
      <point x="502.6152" y="0.0" type="line"/>
      <point x="502.6152" y="456.9562" type="line"/>
      <point x="419.6736" y="279.0876" type="line"/>
      <point x="616.2492" y="472.7852" type="line"/>
      <point x="527.854" y="472.7852" type="line"/>
      <point x="804.5412" y="0.0" type="line"/>
      <point x="1243.0396" y="0.0" type="line"/>
      <point x="816.0302" y="683.0344" type="line"/>
      <point x="816.0302" y="517.4536" type="line"/>
      <point x="1205.22" y="1075.5464" type="line"/>
      <point x="725.9166" y="1075.5464" type="line"/>
      <point x="442.0688" y="619.098" type="line"/>
      <point x="495.6152" y="619.098" type="line"/>
      <point x="502.6152" y="910.1762" type="line"/>
      <point x="502.6152" y="1398.2534" type="line"/>
      <point x="128.9218" y="1377.9802" type="line"/>
    </contour>
  </outline>
</glyph>
<glyph name="l" format="1">
  <advance width="864.9812"/>
  <unicode hex="006C"/>
  <outline>
    <contour>
      <point x="630.781" y="-16.1366" type="curve" smooth="yes"/>
      <point x="748.4348" y="-16.1366"/>
      <point x="859.9374" y="32.9562"/>
      <point x="844.9812" y="30.8196" type="curve"/>
      <point x="844.9812" y="283.3274" type="line"/>
      <point x="852.1032" y="284.0396"/>
      <point x="774.8446" y="267.7664"/>
      <point x="695.586" y="267.7664" type="curve" smooth="yes"/>
      <point x="625.9374" y="267.7664"/>
      <point x="504.3274" y="252.9906"/>
      <point x="504.3274" y="459.8884" type="curve" smooth="yes"/>
      <point x="504.3274" y="1398.2534" type="line"/>
      <point x="130.634" y="1377.9802" type="line"/>
      <point x="130.634" y="503.8446" type="line" smooth="yes"/>
      <point x="130.634" y="168.6882"/>
      <point x="225.829" y="-16.1366"/>
    </contour>
  </outline>
</glyph>
<glyph name="m" format="1">
  <advance width="1849.61"/>
  <unicode hex="006D"/>
  <outline>
    <contour>
      <point x="128.9218" y="0.0" type="line"/>
      <point x="502.6152" y="0.0" type="line"/>
      <point x="502.6152" y="390.804" type="line" smooth="yes"/>
      <point x="476.2638" y="637.1262"/>
      <point x="435.0292" y="817.6288"/>
      <point x="651.5318" y="817.6288" type="curve" smooth="yes"/>
      <point x="744.6194" y="817.6288"/>
      <point x="743.2534" y="740.0094"/>
      <point x="743.2534" y="646.3514" type="curve" smooth="yes"/>
      <point x="743.2534" y="0.0" type="line"/>
      <point x="1116.9468" y="0.0" type="line"/>
      <point x="1116.9468" y="710.0396" type="line"/>
      <point x="1127.22" y="726.5662"/>
      <point x="1144.0542" y="763.0198"/>
      <point x="1164.464" y="812.7028" type="curve" smooth="yes"/>
      <point x="1181.781" y="800.6778"/>
      <point x="1170.8196" y="817.6288"/>
      <point x="1246.317" y="817.6288" type="curve" smooth="yes"/>
      <point x="1296.8092" y="817.6288"/>
      <point x="1358.9948" y="841.3076"/>
      <point x="1358.9948" y="613.6976" type="curve" smooth="yes"/>
      <point x="1358.9948" y="0.0" type="line"/>
      <point x="1732.6882" y="0.0" type="line"/>
      <point x="1732.6882" y="673.7268" type="line" smooth="yes"/>
      <point x="1732.6882" y="942.7122"/>
      <point x="1618.7028" y="1106.5318"/>
      <point x="1346.3514" y="1106.5318" type="curve" smooth="yes"/>
      <point x="1258.0688" y="1106.5318"/>
      <point x="1127.7956" y="1087.6882"/>
      <point x="1027.1272" y="963.0688" type="curve"/>
      <point x="1104.6444" y="963.0688" type="line"/>
      <point x="1016.1418" y="1103.0688"/>
      <point x="909.6246" y="1106.5318"/>
      <point x="781.5224" y="1106.5318" type="curve" smooth="yes"/>
      <point x="578.5662" y="1106.5318"/>
      <point x="469.5516" y="1018.6538"/>
      <point x="418.5224" y="950.2638" type="curve"/>
      <point x="484.4932" y="946.1126" type="line"/>
      <point x="434.098" y="1075.5464" type="line"/>
      <point x="128.9218" y="1075.5464" type="line"/>
    </contour>
  </outline>
</glyph>
<glyph name="n" format="1">
  <advance width="1326.1126"/>
  <unicode hex="006E"/>
  <outline>
    <contour>
      <point x="128.9218" y="0.0" type="line"/>
      <point x="502.6152" y="0.0" type="line"/>
      <point x="502.6152" y="450.4922" type="line" smooth="yes"/>
      <point x="502.6152" y="707.2534"/>
      <point x="568.4786" y="817.6288"/>
      <point x="721.488" y="817.6288" type="curve" smooth="yes"/>
      <point x="815.0292" y="817.6288"/>
      <point x="831.3608" y="754.1314"/>
      <point x="833.7852" y="620.9218" type="curve"/>
      <point x="833.7852" y="0.0" type="line"/>
      <point x="1207.4786" y="0.0" type="line"/>
      <point x="1207.4786" y="697.6392" type="line" smooth="yes"/>
      <point x="1207.4786" y="936.7122"/>
      <point x="1079.9322" y="1106.5318"/>
      <point x="829.3712" y="1106.5318" type="curve" smooth="yes"/>
      <point x="659.7518" y="1106.5318"/>
      <point x="522.6298" y="1034.5026"/>
      <point x="406.415" y="912.9124" type="curve"/>
      <point x="474.9468" y="912.9124" type="line"/>
      <point x="424.1272" y="1075.5464" type="line"/>
      <point x="128.9218" y="1075.5464" type="line"/>
    </contour>
  </outline>
</glyph>
<glyph name="o" format="1">
  <advance width="1274.2148"/>
  <unicode hex="006F"/>
  <outline>
    <contour>
      <point x="637.1074" y="268.1908" type="curve" smooth="yes"/>
      <point x="540.781" y="268.1908"/>
      <point x="460.1616" y="326.6538"/>
      <point x="460.1616" y="549.3952" type="curve" smooth="yes"/>
      <point x="460.1616" y="759.878"/>
      <point x="545.9176" y="817.6288"/>
      <point x="637.1074" y="817.6288" type="curve" smooth="yes"/>
      <point x="728.4484" y="817.6288"/>
      <point x="814.0532" y="760.5902"/>
      <point x="814.0532" y="550.1074" type="curve" smooth="yes"/>
      <point x="814.0532" y="323.2294"/>
      <point x="724.5996" y="268.1908"/>
    </contour>
    <contour>
      <point x="637.1074" y="-19.0" type="curve" smooth="yes"/>
      <point x="985.7466" y="-19.0"/>
      <point x="1189.171" y="179.3316"/>
      <point x="1189.171" y="547.9708" type="curve" smooth="yes"/>
      <point x="1189.171" y="899.7904"/>
      <point x="947.683" y="1106.5318"/>
      <point x="637.1074" y="1106.5318" type="curve" smooth="yes"/>
      <point x="301.2878" y="1106.5318"/>
      <point x="85.0438" y="918.7612"/>
      <point x="85.0438" y="547.9708" type="curve" smooth="yes"/>
      <point x="85.0438" y="190.0292"/>
      <point x="323.5464" y="-19.0"/>
    </contour>
  </outline>
</glyph>
<glyph name="p" format="1">
  <advance width="1242.7122"/>
  <unicode hex="0070"/>
  <outline>
    <contour>
      <point x="132.3462" y="-390.9656" type="line"/>
      <point x="504.3274" y="-374.4046" type="line"/>
      <point x="504.3274" y="34.5662" type="line"/>
      <point x="503.3128" y="81.609" type="line"/>
      <point x="441.6298" y="61.5944" type="line"/>
      <point x="469.9468" y="66.8144"/>
      <point x="575.2638" y="-19.0"/>
      <point x="725.7904" y="-19.0" type="curve" smooth="yes"/>
      <point x="988.8196" y="-19.0"/>
      <point x="1157.6684" y="230.1074"/>
      <point x="1157.6684" y="552.5318" type="curve" smooth="yes"/>
      <point x="1157.6684" y="840.5902"/>
      <point x="996.3952" y="1106.5318"/>
      <point x="769.8686" y="1106.5318" type="curve" smooth="yes"/>
      <point x="682.8738" y="1106.5318"/>
      <point x="525.903" y="1091.8248"/>
      <point x="413.4004" y="960.4932" type="curve"/>
      <point x="510.025" y="964.0542" type="line"/>
      <point x="460.4932" y="1075.5464" type="line"/>
      <point x="132.3462" y="1075.5464" type="line"/>
    </contour>
    <contour>
      <point x="649.1512" y="269.903" type="curve" smooth="yes"/>
      <point x="549.4296" y="269.903"/>
      <point x="503.7518" y="312.0782"/>
      <point x="503.7518" y="567.3952" type="curve"/>
      <point x="507.1762" y="795.561"/>
      <point x="576.22" y="817.6288"/>
      <point x="633.756" y="817.6288" type="curve" smooth="yes"/>
      <point x="684.853" y="817.6288"/>
      <point x="783.975" y="790.4098"/>
      <point x="783.975" y="554.5318" type="curve" smooth="yes"/>
      <point x="783.975" y="340.8978"/>
      <point x="701.3848" y="269.903"/>
    </contour>
  </outline>
</glyph>
<glyph name="q" format="1">
  <advance width="1203.8144"/>
  <unicode hex="0071"/>
  <outline>
    <contour>
      <point x="702.487" y="-390.9656" type="line"/>
      <point x="1077.6048" y="-369.5558" type="line"/>
      <point x="1077.6048" y="1075.5464" type="line"/>
      <point x="754.7164" y="1075.5464" type="line"/>
      <point x="725.8676" y="944.2492" type="line"/>
      <point x="796.3848" y="972.9322" type="line"/>
      <point x="748.7946" y="1005.805"/>
      <point x="684.4338" y="1106.5318"/>
      <point x="504.829" y="1106.5318" type="curve" smooth="yes"/>
      <point x="231.6486" y="1106.5318"/>
      <point x="85.0438" y="867.2586"/>
      <point x="85.0438" y="556.0928" type="curve" smooth="yes"/>
      <point x="85.0438" y="216.2732"/>
      <point x="250.6486" y="-19.0"/>
      <point x="517.6632" y="-19.0" type="curve" smooth="yes"/>
      <point x="586.6236" y="-19.0"/>
      <point x="687.926" y="-11.9468"/>
      <point x="790.1408" y="99.1116" type="curve"/>
      <point x="709.487" y="122.2482" type="line"/>
      <point x="702.487" y="106.7372" type="line"/>
    </contour>
    <contour>
      <point x="588.4536" y="266.4786" type="curve" smooth="yes"/>
      <point x="527.5078" y="266.4786"/>
      <point x="460.1616" y="321.5026"/>
      <point x="460.1616" y="543.4098" type="curve" smooth="yes"/>
      <point x="460.1616" y="784.8488"/>
      <point x="540.7664" y="815.9166"/>
      <point x="581.8926" y="815.9166" type="curve" smooth="yes"/>
      <point x="649.853" y="815.9166"/>
      <point x="727.731" y="774.0292"/>
      <point x="727.731" y="486.5266" type="curve"/>
      <point x="720.4578" y="279.561"/>
      <point x="631.1846" y="266.4786"/>
    </contour>
  </outline>
</glyph>
<glyph name="r" format="1">
  <advance width="900.0052"/>
  <unicode hex="0072"/>
  <outline>
    <contour>
      <point x="130.634" y="0.0" type="line"/>
      <point x="504.3274" y="0.0" type="line"/>
      <point x="504.3274" y="558.3462" type="line" smooth="yes"/>
      <point x="504.3274" y="701.6924"/>
      <point x="585.976" y="756.5506"/>
      <point x="762.7028" y="756.5506" type="curve" smooth="yes"/>
      <point x="794.6882" y="756.5506"/>
      <point x="819.976" y="755.2628"/>
      <point x="864.9468" y="748.5506" type="curve"/>
      <point x="866.098" y="1068.1366" type="line"/>
      <point x="833.1126" y="1076.2732"/>
      <point x="816.8102" y="1074.8488"/>
      <point x="798.5078" y="1074.8488" type="curve" smooth="yes"/>
      <point x="684.4786" y="1074.8488"/>
      <point x="547.6006" y="1008.8342"/>
      <point x="429.0834" y="912.659" type="curve"/>
      <point x="513.586" y="896.6736" type="line"/>
      <point x="453.781" y="1075.5464" type="line"/>
      <point x="130.634" y="1075.5464" type="line"/>
    </contour>
  </outline>
</glyph>
<glyph name="s" format="1">
  <advance width="1053.293"/>
  <unicode hex="0073"/>
  <outline>
    <contour>
      <point x="547.3368" y="-17.2878" type="curve" smooth="yes"/>
      <point x="815.854" y="-17.2878"/>
      <point x="965.5516" y="123.9416"/>
      <point x="965.5516" y="363.732" type="curve" smooth="yes"/>
      <point x="965.5516" y="540.9906"/>
      <point x="855.049" y="646.8248"/>
      <point x="712.9176" y="675.8832" type="curve" smooth="yes"/>
      <point x="661.8446" y="685.9124" type="line" smooth="yes"/>
      <point x="523.269" y="717.2148"/>
      <point x="492.4056" y="747.5172"/>
      <point x="492.4056" y="777.4682" type="curve" smooth="yes"/>
      <point x="492.4056" y="814.5412"/>
      <point x="512.4932" y="836.463"/>
      <point x="586.1856" y="836.463" type="curve" smooth="yes"/>
      <point x="699.8978" y="836.463"/>
      <point x="812.8394" y="782.6434"/>
      <point x="865.5662" y="758.0678" type="curve"/>
      <point x="947.22" y="999.7414" type="line"/>
      <point x="824.2638" y="1067.561"/>
      <point x="676.927" y="1106.5318"/>
      <point x="547.5026" y="1106.5318" type="curve" smooth="yes"/>
      <point x="345.3222" y="1106.5318"/>
      <point x="161.1074" y="996.9416"/>
      <point x="161.1074" y="760.756" type="curve"/>
      <point x="162.8196" y="549.4484"/>
      <point x="282.0198" y="456.8728"/>
      <point x="452.2002" y="418.1314" type="curve" smooth="yes"/>
      <point x="550.927" y="395.4046" type="line" smooth="yes"/>
      <point x="604.9656" y="388.195"/>
      <point x="640.6778" y="379.8488"/>
      <point x="630.4046" y="308.2294" type="curve" smooth="yes"/>
      <point x="621.8436" y="267.415"/>
      <point x="581.0876" y="247.6444"/>
      <point x="532.0782" y="247.6444" type="curve" smooth="yes"/>
      <point x="459.1272" y="247.6444"/>
      <point x="245.4244" y="339.5714"/>
      <point x="212.683" y="372.269" type="curve"/>
      <point x="125.8926" y="117.7612" type="line"/>
      <point x="131.9364" y="102.8978"/>
      <point x="298.1804" y="-17.2878"/>
    </contour>
  </outline>
</glyph>
<glyph name="t" format="1">
  <advance width="993.025"/>
  <unicode hex="0074"/>
  <outline>
    <contour>
      <point x="687.3566" y="-16.1366" type="curve" smooth="yes"/>
      <point x="841.0104" y="-16.1366"/>
      <point x="943.391" y="28.9708"/>
      <point x="943.391" y="28.9708" type="curve"/>
      <point x="943.391" y="285.0396" type="line"/>
      <point x="943.391" y="285.0396"/>
      <point x="807.464" y="268.1908"/>
      <point x="768.9958" y="268.1908" type="curve" smooth="yes"/>
      <point x="665.708" y="268.1908"/>
      <point x="601.8446" y="298.9176"/>
      <point x="601.8446" y="472.342" type="curve" smooth="yes"/>
      <point x="601.8446" y="898.9948" type="line"/>
      <point x="552.7226" y="832.3264" type="line"/>
      <point x="865.9176" y="832.3264" type="line"/>
      <point x="865.9176" y="1075.5464" type="line"/>
      <point x="551.0104" y="1075.5464" type="line"/>
      <point x="601.8446" y="1000.0292" type="line"/>
      <point x="601.8446" y="1333.8488" type="line"/>
      <point x="331.7904" y="1338.122" type="line"/>
      <point x="232.5756" y="1001.756" type="line"/>
      <point x="345.4734" y="1078.5464" type="line"/>
      <point x="69.878" y="1060.4098" type="line"/>
      <point x="44.195" y="834.0386" type="line"/>
      <point x="277.2732" y="834.0386" type="line"/>
      <point x="228.1512" y="899.9948" type="line"/>
      <point x="228.1512" y="498.1616" type="line" smooth="yes"/>
      <point x="228.1512" y="167.8832"/>
      <point x="321.8926" y="-16.1366"/>
    </contour>
  </outline>
</glyph>
<glyph name="u" format="1">
  <advance width="1325.1126"/>
  <unicode hex="0075"/>
  <outline>
    <contour>
      <point x="1196.4786" y="1075.5464" type="line"/>
      <point x="824.4974" y="1075.5464" type="line"/>
      <point x="824.4974" y="578.8248" type="line" smooth="yes"/>
      <point x="824.4974" y="322.0636"/>
      <point x="762.7706" y="257.9176"/>
      <point x="664.5516" y="257.9176" type="curve" smooth="yes"/>
      <point x="548.7518" y="257.9176"/>
      <point x="494.0396" y="321.415"/>
      <point x="493.3274" y="454.6246" type="curve" smooth="yes"/>
      <point x="493.3274" y="1075.5464" type="line"/>
      <point x="119.634" y="1075.5464" type="line"/>
      <point x="119.634" y="377.9072" type="line" smooth="yes"/>
      <point x="119.634" y="120.0"/>
      <point x="266.0146" y="-30.9854"/>
      <point x="516.5756" y="-30.9854" type="curve" smooth="yes"/>
      <point x="686.195" y="-30.9854"/>
      <point x="824.317" y="-3.7758"/>
      <point x="916.2878" y="139.8436" type="curve"/>
      <point x="848.4682" y="139.8436" type="line"/>
      <point x="898.5756" y="0.0" type="line"/>
      <point x="1196.4786" y="0.0" type="line"/>
    </contour>
  </outline>
</glyph>
<glyph name="v" format="1">
  <advance width="1210.5224"/>
  <unicode hex="0076"/>
  <outline>
    <contour>
      <point x="449.3024" y="0.0" type="line"/>
      <point x="799.1762" y="0.0" type="line"/>
      <point x="1186.7664" y="1075.5464" type="line"/>
      <point x="791.8144" y="1075.5464" type="line"/>
      <point x="636.0146" y="535.5954" type="line"/>
      <point x="608.0198" y="333.0886" type="line"/>
      <point x="658.293" y="333.0886" type="line"/>
      <point x="603.903" y="540.1564" type="line"/>
      <point x="425.5568" y="1075.5464" type="line"/>
      <point x="23.756" y="1075.5464" type="line"/>
    </contour>
  </outline>
</glyph>
<glyph name="w" format="1">
  <advance width="1743.6006"/>
  <unicode hex="0077"/>
  <outline>
    <contour>
      <point x="340.3024" y="0.0" type="line"/>
      <point x="695.2982" y="0.0" type="line"/>
      <point x="901.1418" y="763.3066" type="line"/>
      <point x="839.8978" y="763.3066" type="line"/>
      <point x="997.268" y="0.0" type="line"/>
      <point x="1368.5078" y="0.0" type="line"/>
      <point x="1719.269" y="1075.5464" type="line"/>
      <point x="1353.7268" y="1075.5464" type="line"/>
      <point x="1152.5464" y="376.6204" type="line"/>
      <point x="1196.1074" y="376.6204" type="line"/>
      <point x="1056.1616" y="1075.5464" type="line"/>
      <point x="699.7122" y="1075.5464" type="line"/>
      <point x="524.1272" y="376.6204" type="line"/>
      <point x="559.8394" y="376.6204" type="line"/>
      <point x="393.8738" y="1075.5464" type="line"/>
      <point x="24.3316" y="1075.5464" type="line"/>
    </contour>
  </outline>
</glyph>
<glyph name="x" format="1">
  <advance width="1239.464"/>
  <unicode hex="0078"/>
  <outline>
    <contour>
      <point x="35.439" y="0.0" type="line"/>
      <point x="452.952" y="0.0" type="line"/>
      <point x="634.8832" y="334.024" type="line"/>
      <point x="789.1762" y="484.5902" type="line"/>
      <point x="1171.4932" y="1075.5464" type="line"/>
      <point x="753.9802" y="1075.5464" type="line"/>
      <point x="578.7758" y="785.8884" type="line"/>
      <point x="412.3608" y="615.5026" type="line"/>
    </contour>
    <contour>
      <point x="768.6778" y="0.0" type="line"/>
      <point x="1197.8884" y="0.0" type="line"/>
      <point x="461.6934" y="1075.5464" type="line"/>
      <point x="39.0438" y="1075.5464" type="line"/>
    </contour>
  </outline>
</glyph>
<glyph name="y" format="1">
  <advance width="1164.0344"/>
  <unicode hex="0079"/>
  <outline>
    <contour>
      <point x="631.3566" y="-391.439" type="line"/>
      <point x="1143.5662" y="1075.5464" type="line"/>
      <point x="749.6142" y="1075.5464" type="line"/>
      <point x="580.5318" y="354.2836" type="line"/>
      <point x="646.3514" y="354.2836" type="line"/>
      <point x="428.2982" y="1075.5464" type="line"/>
      <point x="39.9072" y="1075.5464" type="line"/>
      <point x="464.512" y="-59.3952" type="line"/>
      <point x="464.512" y="124.5172" type="line"/>
      <point x="278.951" y="-357.7268" type="line"/>
    </contour>
  </outline>
</glyph>
<glyph name="z" format="1">
  <advance width="1091.2054"/>
  <unicode hex="007A"/>
  <outline>
    <contour>
      <point x="106.3024" y="0.0" type="line"/>
      <point x="1005.0396" y="0.0" type="line"/>
      <point x="1005.0396" y="286.7518" type="line"/>
      <point x="504.7424" y="286.7518" type="line"/>
      <point x="520.1814" y="196.7956" type="line"/>
      <point x="980.2054" y="817.902" type="line"/>
      <point x="980.2054" y="1075.5464" type="line"/>
      <point x="130.7268" y="1075.5464" type="line"/>
      <point x="130.7268" y="804.2044" type="line"/>
      <point x="632.5558" y="804.2044" type="line"/>
      <point x="601.9948" y="881.5996" type="line"/>
      <point x="106.3024" y="225.8248" type="line"/>
    </contour>
  </outline>
</glyph>
<glyph name="braceleft" format="1">
  <advance width="610.5214"/>
  <unicode hex="007B"/>
  <outline>
    <contour>
      <point x="688.3514" y="-239.9072" type="line"/>
      <point x="382.0292" y="-239.9072"/>
      <point x="190.7508" y="-234.8832"/>
      <point x="190.7508" y="-0.049" type="curve" smooth="yes"/>
      <point x="190.7508" y="333.0198" type="line" smooth="yes"/>
      <point x="190.7508" y="447.5318"/>
      <point x="134.9458" y="420.463"/>
      <point x="-1.7028" y="418.3264" type="curve"/>
      <point x="-1.7028" y="742.0344" type="line"/>
      <point x="151.2044" y="743.7466"/>
      <point x="190.7508" y="700.4192"/>
      <point x="190.7508" y="821.2044" type="curve" smooth="yes"/>
      <point x="190.7508" y="1145.9218" type="line" smooth="yes"/>
      <point x="190.7508" y="1399.122"/>
      <point x="368.2242" y="1411.4046"/>
      <point x="688.3514" y="1410.6924" type="curve"/>
      <point x="688.3514" y="1110.9552" type="line"/>
      <point x="566.3222" y="1108.9552"/>
      <point x="570.2492" y="1103.3066"/>
      <point x="570.2492" y="1037.0094" type="curve" smooth="yes"/>
      <point x="570.2492" y="788.2826" type="line"/>
      <point x="566.8248" y="686.4974"/>
      <point x="506.7028" y="633.0292"/>
      <point x="398.8102" y="582.0292" type="curve"/>
      <point x="489.8686" y="553.3024"/>
      <point x="570.2492" y="479.7268"/>
      <point x="570.2492" y="381.2148" type="curve" smooth="yes"/>
      <point x="570.2492" y="128.3514" type="line" smooth="yes"/>
      <point x="570.2492" y="56.3566"/>
      <point x="566.7466" y="61.2544"/>
      <point x="688.3514" y="59.2544" type="curve"/>
    </contour>
  </outline>
</glyph>
<glyph name="bar" format="1">
  <advance width="877.0604"/>
  <unicode hex="007C"/>
  <outline>
    <contour>
      <point x="338.6642" y="-170.0042" type="line"/>
      <point x="338.6642" y="1507.634" type="line"/>
      <point x="638.6892" y="1507.634" type="line"/>
      <point x="638.6892" y="-170.0042" type="line"/>
    </contour>
  </outline>
</glyph>
<glyph name="braceright" format="1">
  <advance width="610.5214"/>
  <unicode hex="007D"/>
  <outline>
    <contour>
      <point x="54.7998" y="-239.9072" type="curve"/>
      <point x="54.7998" y="57.1178" type="line"/>
      <point x="176.829" y="59.1178"/>
      <point x="169.4776" y="59.6298"/>
      <point x="169.4776" y="127.6392" type="curve" smooth="yes"/>
      <point x="169.4776" y="379.7904" type="line" smooth="yes"/>
      <point x="169.4776" y="513.488"/>
      <point x="251.1314" y="549.5756"/>
      <point x="344.341" y="569.9218" type="curve"/>
      <point x="243.0094" y="615.7706"/>
      <point x="172.902" y="645.6142"/>
      <point x="169.4776" y="786.8582" type="curve"/>
      <point x="169.4776" y="1036.2972" type="line" smooth="yes"/>
      <point x="169.4776" y="1110.0042"/>
      <point x="176.4046" y="1106.1064"/>
      <point x="54.7998" y="1108.1064" type="curve"/>
      <point x="54.7998" y="1410.6924" type="line"/>
      <point x="359.4098" y="1410.6924"/>
      <point x="548.976" y="1409.805"/>
      <point x="548.976" y="1164.6976" type="curve" smooth="yes"/>
      <point x="548.976" y="814.5068" type="line" smooth="yes"/>
      <point x="548.976" y="699.9948"/>
      <point x="596.22" y="737.3368"/>
      <point x="743.1418" y="737.7612" type="curve"/>
      <point x="743.1418" y="413.341" type="line"/>
      <point x="602.22" y="413.341"/>
      <point x="548.976" y="449.8196"/>
      <point x="548.976" y="327.3222" type="curve" smooth="yes"/>
      <point x="548.976" y="18.7268" type="line" smooth="yes"/>
      <point x="548.976" y="-231.049"/>
      <point x="385.2002" y="-240.6194"/>
    </contour>
  </outline>
</glyph>
<glyph name="asciitilde" format="1">
  <advance width="1091.9948"/>
  <unicode hex="007E"/>
  <outline>
    <contour>
      <point x="268.6736" y="417.9656" type="curve"/>
      <point x="132.9562" y="614.9562" type="line"/>
      <point x="186.2294" y="708.8342"/>
      <point x="263.244" y="798.683"/>
      <point x="426.049" y="798.683" type="curve" smooth="yes"/>
      <point x="510.8978" y="798.683"/>
      <point x="622.6736" y="766.6976"/>
      <point x="682.732" y="740.9562" type="curve" smooth="yes"/>
      <point x="753.6246" y="707.5172"/>
      <point x="797.8196" y="702.61"/>
      <point x="841.9854" y="702.61" type="curve" smooth="yes"/>
      <point x="899.878" y="702.61"/>
      <point x="948.2096" y="704.0"/>
      <point x="1066.805" y="794.561" type="curve"/>
      <point x="1183.7028" y="599.7216" type="line"/>
      <point x="1132.2784" y="533.4974"/>
      <point x="968.8342" y="424.4046"/>
      <point x="813.4536" y="424.4046" type="curve" smooth="yes"/>
      <point x="699.6632" y="424.4046"/>
      <point x="635.9364" y="453.1168"/>
      <point x="539.1022" y="496.6778" type="curve"/>
      <point x="508.1366" y="516.146"/>
      <point x="475.5026" y="527.7508"/>
      <point x="411.3514" y="527.7508" type="curve" smooth="yes"/>
      <point x="335.7612" y="527.7508"/>
      <point x="298.1272" y="471.585"/>
    </contour>
  </outline>
</glyph>
<glyph name="cent" format="1">
  <advance width="890.707"/>
  <unicode hex="00A2"/>
  <outline>
    <contour>
      <point x="599.9416" y="-150.8634" type="line"/>
      <point x="694.3514" y="-150.8634" type="line"/>
      <point x="694.3514" y="1197.6194" type="line"/>
      <point x="599.9416" y="1197.6194" type="line"/>
    </contour>
    <component base="c"/>
  </outline>
</glyph>
<glyph name="sterling" format="1">
  <advance width="867.8332"/>
  <unicode hex="00A3"/>
  <outline>
    <contour>
      <point x="24.4338" y="44.2148" type="line"/>
      <point x="15.8582" y="318.4202" type="line"/>
      <point x="162.0532" y="346.1178" type="line"/>
      <point x="162.0532" y="607.2242" type="line"/>
      <point x="-1.6882" y="607.2242" type="line"/>
      <point x="-1.6882" y="866.732" type="line"/>
      <point x="162.0532" y="866.732" type="line"/>
      <point x="162.0532" y="956.8978" type="line" smooth="yes"/>
      <point x="162.0532" y="1257.7466"/>
      <point x="340.0146" y="1415.9218"/>
      <point x="604.146" y="1415.9218" type="curve" smooth="yes"/>
      <point x="754.707" y="1415.9218"/>
      <point x="888.39" y="1365.3462"/>
      <point x="995.7852" y="1275.0876" type="curve"/>
      <point x="842.341" y="1033.7164" type="line"/>
      <point x="766.3264" y="1079.0334"/>
      <point x="706.8582" y="1110.8968"/>
      <point x="626.5412" y="1110.8968" type="curve" smooth="yes"/>
      <point x="565.049" y="1110.8968"/>
      <point x="519.8832" y="1092.4192"/>
      <point x="519.8832" y="1021.3368" type="curve" smooth="yes"/>
      <point x="519.8832" y="866.732" type="line"/>
      <point x="835.7268" y="866.732" type="line"/>
      <point x="835.7268" y="609.6486" type="line"/>
      <point x="519.8832" y="609.6486" type="line"/>
      <point x="519.8832" y="348.1178" type="line"/>
      <point x="1018.0584" y="348.1178" type="line"/>
      <point x="1019.1804" y="44.2148" type="line"/>
    </contour>
  </outline>
</glyph>
<glyph name="currency" format="1">
  <advance width="748.5006"/>
  <unicode hex="00A4"/>
  <outline>
    <contour>
      <point x="813.5454" y="215.0146" type="line"/>
      <point x="950.7164" y="356.4734" type="line"/>
      <point x="786.1262" y="511.2148" type="line"/>
      <point x="819.1554" y="576.0782"/>
      <point x="838.5944" y="639.8196"/>
      <point x="838.5944" y="711.1366" type="curve" smooth="yes"/>
      <point x="838.5944" y="788.1512"/>
      <point x="813.3066" y="856.317"/>
      <point x="785.1262" y="910.3462" type="curve"/>
      <point x="951.7164" y="1070.6486" type="line"/>
      <point x="813.5454" y="1209.683" type="line"/>
      <point x="644.9552" y="1050.3806" type="line"/>
      <point x="582.2284" y="1092.8342"/>
      <point x="519.048" y="1115.1366"/>
      <point x="441.731" y="1115.1366" type="curve" smooth="yes"/>
      <point x="367.8384" y="1115.1366"/>
      <point x="294.3848" y="1087.2732"/>
      <point x="238.219" y="1053.0928" type="curve"/>
      <point x="77.4776" y="1209.683" type="line"/>
      <point x="-66.4056" y="1070.2242" type="line"/>
      <point x="99.048" y="910.3462" type="line"/>
      <point x="66.731" y="845.195"/>
      <point x="46.292" y="783.5902"/>
      <point x="46.292" y="711.1366" type="curve" smooth="yes"/>
      <point x="46.292" y="637.683"/>
      <point x="70.8676" y="568.0928"/>
      <point x="99.048" y="511.2148" type="curve"/>
      <point x="-65.4056" y="351.6246" type="line"/>
      <point x="77.4776" y="217.7268" type="line"/>
      <point x="234.0824" y="370.1804" type="line"/>
      <point x="294.3848" y="330.1512"/>
      <point x="363.414" y="307.4244"/>
      <point x="441.731" y="307.4244" type="curve" smooth="yes"/>
      <point x="516.6236" y="307.4244"/>
      <point x="586.365" y="335.2878"/>
      <point x="644.9552" y="372.6048" type="curve"/>
    </contour>
    <contour>
      <point x="441.731" y="519.3858" type="curve" smooth="yes"/>
      <point x="357.7216" y="519.3858"/>
      <point x="252.1314" y="599.3368"/>
      <point x="252.1314" y="711.1366" type="curve" smooth="yes"/>
      <point x="252.1314" y="821.2242"/>
      <point x="357.7216" y="903.8874"/>
      <point x="441.731" y="903.8874" type="curve" smooth="yes"/>
      <point x="529.1648" y="903.8874"/>
      <point x="634.755" y="823.6486"/>
      <point x="634.755" y="711.1366" type="curve" smooth="yes"/>
      <point x="634.755" y="598.6246"/>
      <point x="530.1648" y="519.3858"/>
    </contour>
  </outline>
</glyph>
<glyph name="yen" format="1">
  <advance width="1279.0782"/>
  <unicode hex="00A5"/>
  <outline>
    <contour>
      <point x="468.268" y="0.0" type="line"/>
      <point x="888.1908" y="0.0" type="line"/>
      <point x="888.1908" y="149.341" type="line"/>
      <point x="1192.9176" y="149.341" type="line"/>
      <point x="1192.9176" y="394.561" type="line"/>
      <point x="888.1908" y="394.561" type="line"/>
      <point x="888.1908" y="425.5068" type="line"/>
      <point x="1194.342" y="425.5068" type="line"/>
      <point x="1194.342" y="650.756" type="line"/>
      <point x="973.708" y="650.756" type="line"/>
      <point x="1355.1908" y="1399.3462" type="line"/>
      <point x="900.463" y="1399.3462" type="line"/>
      <point x="674.805" y="879.7664" type="line"/>
      <point x="495.757" y="1399.3462" type="line"/>
      <point x="31.756" y="1399.3462" type="line"/>
      <point x="386.3118" y="650.756" type="line"/>
      <point x="178.9364" y="650.756" type="line"/>
      <point x="178.9364" y="425.5068" type="line"/>
      <point x="468.268" y="425.5068" type="line"/>
      <point x="468.268" y="394.561" type="line"/>
      <point x="180.3608" y="394.561" type="line"/>
      <point x="180.3608" y="149.341" type="line"/>
      <point x="468.268" y="149.341" type="line"/>
    </contour>
  </outline>
</glyph>
<glyph name="brokenbar" format="1">
  <advance width="1108.2856"/>
  <unicode hex="00A6"/>
  <outline>
    <contour>
      <point x="451.3524" y="-488.6058" type="line"/>
      <point x="451.3524" y="233.3358" type="line"/>
      <point x="750.6652" y="233.3358" type="line"/>
      <point x="750.6652" y="-488.6058" type="line"/>
    </contour>
    <contour>
      <point x="451.3524" y="709.512" type="line"/>
      <point x="451.3524" y="1430.1658" type="line"/>
      <point x="750.6652" y="1430.1658" type="line"/>
      <point x="750.6652" y="709.512" type="line"/>
    </contour>
  </outline>
</glyph>
<glyph name="dieresis" format="1">
  <advance width="617.0386"/>
  <unicode hex="00A8"/>
  <outline>
    <contour>
      <point x="6.1752" y="1087.219" type="line"/>
      <point x="278.5464" y="1087.219" type="line"/>
      <point x="278.5464" y="1429.9708" type="line"/>
      <point x="6.1752" y="1429.9708" type="line"/>
    </contour>
    <contour>
      <point x="423.9656" y="1087.219" type="line"/>
      <point x="693.9124" y="1087.219" type="line"/>
      <point x="693.9124" y="1429.9708" type="line"/>
      <point x="423.9656" y="1429.9708" type="line"/>
    </contour>
  </outline>
</glyph>
<glyph name="copyright" format="1">
  <advance width="1273.3348"/>
  <unicode hex="00A9"/>
  <outline>
    <contour>
      <point x="589.9062" y="261.5318" type="curve" smooth="yes"/>
      <point x="716.7258" y="261.5318"/>
      <point x="817.438" y="291.244"/>
      <point x="880.6184" y="332.4098" type="curve"/>
      <point x="811.5256" y="474.1856" type="line"/>
      <point x="766.8916" y="447.7174"/>
      <point x="671.4818" y="424.5808"/>
      <point x="614.5892" y="424.5808" type="curve" smooth="yes"/>
      <point x="459.2284" y="424.5808"/>
      <point x="393.658" y="531.6538"/>
      <point x="393.658" y="677.39" type="curve" smooth="yes"/>
      <point x="393.658" y="851.0532"/>
      <point x="457.5162" y="954.7164"/>
      <point x="614.1502" y="954.7164" type="curve" smooth="yes"/>
      <point x="678.1648" y="954.7164"/>
      <point x="754.4818" y="939.7018"/>
      <point x="813.6476" y="916.7946" type="curve"/>
      <point x="881.755" y="1055.0094" type="line"/>
      <point x="816.5746" y="1096.3264"/>
      <point x="722.1356" y="1118.7654"/>
      <point x="596.7404" y="1118.7654" type="curve" smooth="yes"/>
      <point x="342.0136" y="1118.7654"/>
      <point x="203.8968" y="916.5996"/>
      <point x="203.8968" y="683.0876" type="curve" smooth="yes"/>
      <point x="203.8968" y="440.1512"/>
      <point x="351.438" y="261.5318"/>
    </contour>
    <contour>
      <point x="636.3796" y="167.8394" type="curve" smooth="yes"/>
      <point x="280.2576" y="167.8394"/>
      <point x="97.6142" y="473.3128"/>
      <point x="97.6142" y="697.7852" type="curve" smooth="yes"/>
      <point x="97.6142" y="918.8332"/>
      <point x="278.5454" y="1215.0334"/>
      <point x="632.9552" y="1215.0334" type="curve" smooth="yes"/>
      <point x="995.926" y="1215.0334"/>
      <point x="1177.4328" y="919.5454"/>
      <point x="1177.4328" y="696.073" type="curve" smooth="yes"/>
      <point x="1177.4328" y="472.6006"/>
      <point x="999.3504" y="167.8394"/>
    </contour>
    <contour>
      <point x="636.3796" y="28.488" type="curve" smooth="yes"/>
      <point x="1042.926" y="28.488"/>
      <point x="1326.7988" y="362.3858"/>
      <point x="1326.7988" y="697.7852" type="curve" smooth="yes"/>
      <point x="1326.7988" y="1031.4724"/>
      <point x="1037.7894" y="1355.3848"/>
      <point x="632.9552" y="1355.3848" type="curve" smooth="yes"/>
      <point x="233.2576" y="1355.3848"/>
      <point x="-53.464" y="1033.1846"/>
      <point x="-53.464" y="697.7852" type="curve" smooth="yes"/>
      <point x="-53.464" y="362.3858"/>
      <point x="236.682" y="28.488"/>
    </contour>
  </outline>
</glyph>
<glyph name="guillemotleft" format="1">
  <advance width="910.2534"/>
  <unicode hex="00AB"/>
  <outline>
    <contour>
      <point x="776.2294" y="103.9218" type="line"/>
      <point x="1078.5276" y="185.561" type="line"/>
      <point x="821.5276" y="547.8488" type="line"/>
      <point x="1080.391" y="915.4098" type="line"/>
      <point x="777.5172" y="995.3368" type="line"/>
      <point x="449.8634" y="544.8488" type="line"/>
    </contour>
    <contour>
      <point x="306.1168" y="103.9218" type="line"/>
      <point x="608.415" y="185.561" type="line"/>
      <point x="350.7028" y="547.8488" type="line"/>
      <point x="611.2784" y="915.4098" type="line"/>
      <point x="308.4046" y="995.3368" type="line"/>
      <point x="-20.2492" y="544.8488" type="line"/>
    </contour>
  </outline>
</glyph>
<glyph name="logicalnot" format="1">
  <advance width="1074.8728"/>
  <unicode hex="00AC"/>
  <outline>
    <contour>
      <point x="764.8238" y="226.4682" type="line"/>
      <point x="1044.5902" y="226.4682" type="line"/>
      <point x="1044.5902" y="829.2294" type="line"/>
      <point x="70.3316" y="829.2294" type="line"/>
      <point x="70.3316" y="550.5996" type="line"/>
      <point x="764.8238" y="550.5996" type="line"/>
    </contour>
  </outline>
</glyph>
<glyph name="uni00AD" format="1">
  <advance width="341.4808"/>
  <unicode hex="00AD"/>
  <outline>
    <contour>
      <point x="13.4338" y="529.806" type="line"/>
      <point x="416.5058" y="529.806" type="line"/>
      <point x="416.5058" y="824.709" type="line"/>
      <point x="13.4338" y="824.709" type="line"/>
    </contour>
  </outline>
</glyph>
<glyph name="registered" format="1">
  <advance width="1259.6372"/>
  <unicode hex="00AE"/>
  <outline>
    <contour>
      <point x="338.9406" y="218.2534" type="line"/>
      <point x="540.3848" y="218.2534" type="line"/>
      <point x="540.3848" y="549.9896" type="line"/>
      <point x="569.8134" y="549.9896" type="line"/>
      <point x="624.6038" y="495.1992"/>
      <point x="772.267" y="218.2534"/>
      <point x="772.267" y="218.2534" type="curve"/>
      <point x="999.8332" y="218.2534" type="line"/>
      <point x="999.8332" y="218.2534"/>
      <point x="859.5798" y="448.2722"/>
      <point x="761.9844" y="578.3994" type="curve"/>
      <point x="909.3942" y="636.4776"/>
      <point x="945.8624" y="703.3702"/>
      <point x="945.8624" y="830.6726" type="curve" smooth="yes"/>
      <point x="945.8624" y="1030.341"/>
      <point x="760.584" y="1093.219"/>
      <point x="615.3014" y="1093.219" type="curve" smooth="yes"/>
      <point x="338.9406" y="1093.219" type="line"/>
    </contour>
    <contour>
      <point x="537.9604" y="726.4484" type="line"/>
      <point x="537.9604" y="916.7602" type="line"/>
      <point x="551.7988" y="916.7602" type="line" smooth="yes"/>
      <point x="672.2962" y="916.7602"/>
      <point x="740.145" y="926.7164"/>
      <point x="740.145" y="829.097" type="curve" smooth="yes"/>
      <point x="740.145" y="714.9604"/>
      <point x="642.7936" y="726.4484"/>
      <point x="529.1742" y="726.4484" type="curve" smooth="yes"/>
    </contour>
    <contour>
      <point x="629.5308" y="155.854" type="curve" smooth="yes"/>
      <point x="275.121" y="155.854"/>
      <point x="94.1898" y="461.3274"/>
      <point x="94.1898" y="685.7998" type="curve" smooth="yes"/>
      <point x="94.1898" y="906.8478"/>
      <point x="273.4088" y="1215.0334"/>
      <point x="627.8186" y="1215.0334" type="curve" smooth="yes"/>
      <point x="989.0772" y="1215.0334"/>
      <point x="1165.4474" y="907.56"/>
      <point x="1165.4474" y="684.0876" type="curve" smooth="yes"/>
      <point x="1165.4474" y="460.6152"/>
      <point x="989.0772" y="155.854"/>
    </contour>
    <contour>
      <point x="629.5308" y="16.5026" type="curve" smooth="yes"/>
      <point x="1032.6528" y="16.5026"/>
      <point x="1316.5256" y="350.4004"/>
      <point x="1316.5256" y="685.7998" type="curve" smooth="yes"/>
      <point x="1316.5256" y="1019.487"/>
      <point x="1030.9406" y="1355.3848"/>
      <point x="627.8186" y="1355.3848" type="curve" smooth="yes"/>
      <point x="228.121" y="1355.3848"/>
      <point x="-56.8884" y="1021.1992"/>
      <point x="-56.8884" y="685.7998" type="curve" smooth="yes"/>
      <point x="-56.8884" y="350.4004"/>
      <point x="229.8332" y="16.5026"/>
    </contour>
  </outline>
</glyph>
<glyph name="macron" format="1">
  <advance width="542.7592"/>
  <unicode hex="00AF"/>
  <outline>
    <contour>
      <point x="-106.6548" y="1233.7706" type="line"/>
      <point x="673.6288" y="1233.7706" type="line"/>
      <point x="673.6288" y="1449.2002" type="line"/>
      <point x="-106.6548" y="1449.2002" type="line"/>
    </contour>
  </outline>
</glyph>
<glyph name="degree" format="1">
  <advance width="687.7508"/>
  <unicode hex="00B0"/>
  <outline>
    <contour>
      <point x="345.0876" y="1009.8342" type="curve" smooth="yes"/>
      <point x="303.8488" y="1009.8342"/>
      <point x="249.5172" y="1041.3316"/>
      <point x="249.5172" y="1118.1022" type="curve" smooth="yes"/>
      <point x="249.5172" y="1189.7362"/>
      <point x="302.4244" y="1217.8092"/>
      <point x="346.7998" y="1217.8092" type="curve" smooth="yes"/>
      <point x="383.902" y="1217.8092"/>
      <point x="435.8092" y="1189.7362"/>
      <point x="435.8092" y="1118.1022" type="curve" smooth="yes"/>
      <point x="435.8092" y="1039.9072"/>
      <point x="385.6142" y="1009.8342"/>
    </contour>
    <contour>
      <point x="345.7998" y="821.829" type="curve" smooth="yes"/>
      <point x="572.8488" y="821.829"/>
      <point x="652.6486" y="984.0584"/>
      <point x="652.6486" y="1119.8144" type="curve" smooth="yes"/>
      <point x="652.6486" y="1258.8582"/>
      <point x="566.4244" y="1402.39"/>
      <point x="345.7998" y="1402.39" type="curve" smooth="yes"/>
      <point x="116.4776" y="1402.39"/>
      <point x="34.39" y="1258.8582"/>
      <point x="34.39" y="1119.8144" type="curve" smooth="yes"/>
      <point x="34.39" y="988.756"/>
      <point x="109.9166" y="821.829"/>
    </contour>
  </outline>
</glyph>
<glyph name="plusminus" format="1">
  <advance width="1106.7852"/>
  <unicode hex="00B1"/>
  <outline>
    <contour>
      <point x="111.2878" y="0.0" type="line"/>
      <point x="111.2878" y="257.9322" type="line"/>
      <point x="995.4974" y="257.9322" type="line"/>
      <point x="995.4974" y="0.0" type="line"/>
    </contour>
    <contour>
      <point x="421.268" y="300.0052" type="line"/>
      <point x="705.0344" y="300.0052" type="line"/>
      <point x="705.0344" y="613.2586" type="line"/>
      <point x="1041.7904" y="613.2586" type="line"/>
      <point x="1041.7904" y="918.6934" type="line"/>
      <point x="703.3222" y="918.6934" type="line"/>
      <point x="703.3222" y="1223.659" type="line"/>
      <point x="421.268" y="1223.659" type="line"/>
      <point x="421.268" y="918.6934" type="line"/>
      <point x="89.2096" y="918.6934" type="line"/>
      <point x="89.2096" y="613.2586" type="line"/>
      <point x="421.268" y="613.2586" type="line"/>
    </contour>
  </outline>
</glyph>
<glyph name="uni00B3" format="1">
  <advance width="605.7164"/>
  <unicode hex="00B3"/>
  <outline>
    <contour>
      <point x="300.1752" y="518.1314" type="curve" smooth="yes"/>
      <point x="465.146" y="518.1314"/>
      <point x="628.3608" y="602.4338"/>
      <point x="628.3608" y="792.8144" type="curve" smooth="yes"/>
      <point x="628.3608" y="870.8436"/>
      <point x="571.073" y="932.2972"/>
      <point x="551.5172" y="970.8582" type="curve"/>
      <point x="591.8926" y="1016.2534"/>
      <point x="607.6486" y="1054.7362"/>
      <point x="611.073" y="1111.7654" type="curve"/>
      <point x="611.073" y="1286.024"/>
      <point x="477.6632" y="1350.3264"/>
      <point x="327.5558" y="1350.3264" type="curve" smooth="yes"/>
      <point x="221.585" y="1350.3264"/>
      <point x="157.0876" y="1320.463"/>
      <point x="81.1168" y="1272.1606" type="curve"/>
      <point x="145.2388" y="1123.536" type="line"/>
      <point x="181.1022" y="1137.7164"/>
      <point x="246.5704" y="1162.8676"/>
      <point x="311.8582" y="1162.8676" type="curve" smooth="yes"/>
      <point x="377.7216" y="1162.8676"/>
      <point x="383.9312" y="1127.0042"/>
      <point x="383.9312" y="1108.341" type="curve" smooth="yes"/>
      <point x="383.9312" y="1081.1168"/>
      <point x="396.512" y="1050.1022"/>
      <point x="289.951" y="1050.1022" type="curve" smooth="yes"/>
      <point x="190.707" y="1050.1022" type="line"/>
      <point x="190.707" y="868.9166" type="line"/>
      <point x="283.6778" y="870.6288" type="line"/>
      <point x="382.9802" y="870.6288"/>
      <point x="419.7654" y="844.3118"/>
      <point x="419.7654" y="790.9656" type="curve" smooth="yes"/>
      <point x="419.7654" y="729.4828"/>
      <point x="385.0094" y="702.4536"/>
      <point x="307.7216" y="702.4536" type="curve" smooth="yes"/>
      <point x="251.5704" y="702.4536"/>
      <point x="171.268" y="725.317"/>
      <point x="138.8144" y="758.6194" type="curve"/>
      <point x="72.5558" y="589.2972" type="line"/>
      <point x="154.2388" y="548.9802"/>
      <point x="212.3264" y="518.1314"/>
    </contour>
  </outline>
</glyph>
<glyph name="acute" format="1">
  <advance width="461.2336"/>
  <unicode hex="00B4"/>
  <outline>
    <contour>
      <point x="230.8248" y="917.2722" type="line"/>
      <point x="464.9082" y="917.2722" type="line"/>
      <point x="793.4254" y="1301.2576" type="line"/>
      <point x="383.8686" y="1301.2576" type="line"/>
    </contour>
  </outline>
</glyph>
<glyph name="paragraph" format="1">
  <advance width="1016.2534"/>
  <unicode hex="00B6"/>
  <outline>
    <contour>
      <point x="305.5506" y="115.3764" type="line"/>
      <point x="544.2242" y="115.3764" type="line"/>
      <point x="544.2242" y="1065.9354" type="line"/>
      <point x="629.6726" y="1065.9354" type="line"/>
      <point x="629.6726" y="115.3764" type="line"/>
      <point x="868.3462" y="115.3764" type="line"/>
      <point x="868.3462" y="1065.9354" type="line"/>
      <point x="948.9072" y="1065.9354" type="line"/>
      <point x="948.9072" y="1318.1554" type="line"/>
      <point x="589.0344" y="1318.1554" type="line" smooth="yes"/>
      <point x="357.903" y="1318.1554"/>
      <point x="29.9656" y="1359.8342"/>
      <point x="29.9656" y="1009.5506" type="curve" smooth="yes"/>
      <point x="29.9656" y="812.731"/>
      <point x="204.0" y="757.9948"/>
      <point x="305.5506" y="757.9948" type="curve"/>
    </contour>
  </outline>
</glyph>
<glyph name="cedilla" format="1">
  <advance width="451.3264"/>
  <unicode hex="00B8"/>
  <outline>
    <contour>
      <point x="-30.342" y="-409.5318" type="line"/>
      <point x="278.683" y="-409.5318" type="line"/>
      <point x="352.488" y="-2.8488" type="line"/>
      <point x="126.5558" y="-2.8488" type="line"/>
    </contour>
  </outline>
</glyph>
<glyph name="uni00B9" format="1">
  <advance width="504.7258"/>
  <unicode hex="00B9"/>
  <outline>
    <contour>
      <point x="72.3264" y="461.292" type="line"/>
      <point x="500.4286" y="461.292" type="line"/>
      <point x="500.4286" y="657.3264" type="line"/>
      <point x="405.0386" y="657.3264" type="line"/>
      <point x="405.0386" y="1382.5558" type="line"/>
      <point x="234.3848" y="1384.268" type="line"/>
      <point x="262.1606" y="1412.0438"/>
      <point x="8.3212" y="1263.7362"/>
      <point x="43.219" y="1271.5704" type="curve"/>
      <point x="43.219" y="1063.8238" type="line"/>
      <point x="4.048" y="1055.2774"/>
      <point x="127.3066" y="1122.097"/>
      <point x="162.5944" y="1133.3994" type="curve"/>
      <point x="162.5944" y="657.3264" type="line"/>
      <point x="72.3264" y="657.3264" type="line"/>
    </contour>
  </outline>
</glyph>
<glyph name="guillemotright" format="1">
  <advance width="1061.3222"/>
  <unicode hex="00BB"/>
  <outline>
    <contour>
      <point x="768.6152" y="995.3368" type="line"/>
      <point x="469.7414" y="914.6976" type="line"/>
      <point x="721.6048" y="551.4098" type="line"/>
      <point x="467.878" y="184.8488" type="line"/>
      <point x="765.6152" y="103.9218" type="line"/>
      <point x="1096.6934" y="554.4098" type="line"/>
    </contour>
    <contour>
      <point x="314.9124" y="995.3368" type="line"/>
      <point x="12.6142" y="914.6976" type="line"/>
      <point x="273.0386" y="551.4098" type="line"/>
      <point x="14.8874" y="184.8488" type="line"/>
      <point x="315.3368" y="103.9218" type="line"/>
      <point x="642.9906" y="554.4098" type="line"/>
    </contour>
  </outline>
</glyph>
<glyph name="onequarter" format="1">
  <advance width="1463.7508"/>
  <unicode hex="00BC"/>
  <outline>
    <contour>
      <point x="50.195" y="526.8436" type="line"/>
      <point x="543.5318" y="526.8436" type="line"/>
      <point x="543.5318" y="738.8342" type="line"/>
      <point x="420.366" y="738.8342" type="line"/>
      <point x="420.366" y="1374.7216" type="line"/>
      <point x="233.9072" y="1376.4338" type="line"/>
      <point x="261.683" y="1404.2096"/>
      <point x="-10.9614" y="1251.6288"/>
      <point x="25.3608" y="1264.4484" type="curve"/>
      <point x="25.3608" y="1049.7456" type="line"/>
      <point x="-9.537" y="1037.6382"/>
      <point x="127.5412" y="1110.4432"/>
      <point x="162.829" y="1121.7456" type="curve"/>
      <point x="162.829" y="738.8342" type="line"/>
      <point x="50.195" y="738.8342" type="line"/>
    </contour>
    <contour>
      <point x="1203.3118" y="14.6976" type="line"/>
      <point x="1414.4682" y="14.6976" type="line"/>
      <point x="1416.1804" y="149.7706" type="line"/>
      <point x="1513.3608" y="149.7706" type="line"/>
      <point x="1515.3462" y="340.927" type="line"/>
      <point x="1416.4682" y="340.927" type="line"/>
      <point x="1416.4682" y="838.0" type="line"/>
      <point x="1193.3118" y="838.0" type="line"/>
      <point x="831.1606" y="361.3076" type="line"/>
      <point x="831.1606" y="149.7706" type="line"/>
      <point x="1203.3118" y="149.7706" type="line"/>
    </contour>
    <contour>
      <point x="163.9604" y="0.0" type="line"/>
      <point x="454.7268" y="0.0" type="line"/>
      <point x="1461.293" y="1347.7654" type="line"/>
      <point x="1180.0876" y="1347.7654" type="line"/>
    </contour>
    <contour>
      <point x="1098.9854" y="340.927" type="line"/>
      <point x="1199.8874" y="521.7654" type="line"/>
      <point x="1199.8874" y="340.927" type="line"/>
    </contour>
  </outline>
</glyph>
<glyph name="onehalf" format="1">
  <advance width="1539.585"/>
  <unicode hex="00BD"/>
  <outline>
    <contour>
      <point x="54.6778" y="543.9656" type="line"/>
      <point x="596.1564" y="543.9656" type="line"/>
      <point x="596.1564" y="725.2878" type="line"/>
      <point x="459.7466" y="725.2878" type="line"/>
      <point x="459.7466" y="1374.7216" type="line"/>
      <point x="232.195" y="1376.4338" type="line"/>
      <point x="259.9708" y="1404.2096"/>
      <point x="-9.6152" y="1244.7946"/>
      <point x="33.1168" y="1266.1606" type="curve"/>
      <point x="33.1168" y="1061.0042" type="line"/>
      <point x="2.4922" y="1045.3358"/>
      <point x="166.9218" y="1138.1116"/>
      <point x="200.4974" y="1154.5506" type="curve"/>
      <point x="200.4974" y="725.2878" type="line"/>
      <point x="54.6778" y="725.2878" type="line"/>
    </contour>
    <contour>
      <point x="1041.2586" y="-45.5172" type="line"/>
      <point x="1596.3514" y="-45.5172" type="line"/>
      <point x="1627.171" y="137.805" type="line"/>
      <point x="1384.586" y="137.805" type="line"/>
      <point x="1522.9614" y="242.7706"/>
      <point x="1618.6246" y="313.4192"/>
      <point x="1618.6246" y="490.4338" type="curve" smooth="yes"/>
      <point x="1618.6246" y="669.268"/>
      <point x="1481.2002" y="780.3754"/>
      <point x="1331.5026" y="780.3754" type="curve" smooth="yes"/>
      <point x="1204.805" y="780.3754"/>
      <point x="1112.2002" y="757.1804"/>
      <point x="1047.5026" y="678.3024" type="curve"/>
      <point x="1129.488" y="511.4338" type="line" smooth="yes"/>
      <point x="1157.5318" y="551.2044"/>
      <point x="1234.8196" y="572.7946"/>
      <point x="1288.7122" y="572.7946" type="curve" smooth="yes"/>
      <point x="1334.8926" y="572.7946"/>
      <point x="1390.195" y="536.0678"/>
      <point x="1390.195" y="488.2826" type="curve" smooth="yes"/>
      <point x="1390.195" y="356.0094"/>
      <point x="872.0428" y="-31.2742"/>
      <point x="1042.9708" y="140.366" type="curve"/>
    </contour>
    <contour>
      <point x="206.5704" y="34.244" type="line"/>
      <point x="498.3368" y="34.244" type="line"/>
      <point x="1511.7518" y="1347.7654" type="line"/>
      <point x="1222.6976" y="1347.7654" type="line"/>
    </contour>
  </outline>
</glyph>
<glyph name="threequarters" format="1">
  <advance width="1345.9698"/>
  <unicode hex="00BE"/>
  <outline>
    <contour>
      <point x="249.4338" y="564.3608" type="curve" smooth="yes"/>
      <point x="410.9802" y="564.3608"/>
      <point x="584.4682" y="641.8144"/>
      <point x="584.4682" y="828.7706" type="curve" smooth="yes"/>
      <point x="584.4682" y="901.6632"/>
      <point x="532.317" y="959.6924"/>
      <point x="514.4734" y="996.5412" type="curve"/>
      <point x="583.9562" y="1057.3462"/>
      <point x="565.4682" y="1155.756"/>
      <point x="565.4682" y="1130.5996" type="curve" smooth="yes"/>
      <point x="565.4682" y="1287.7362"/>
      <point x="417.6486" y="1350.3264"/>
      <point x="276.1022" y="1350.3264" type="curve" smooth="yes"/>
      <point x="166.707" y="1350.3264"/>
      <point x="80.6632" y="1318.7508"/>
      <point x="4.6924" y="1267.024" type="curve"/>
      <point x="92.7852" y="1123.536" type="line"/>
      <point x="128.6486" y="1137.7164"/>
      <point x="188.268" y="1157.731"/>
      <point x="253.5558" y="1157.731" type="curve" smooth="yes"/>
      <point x="321.1314" y="1157.731"/>
      <point x="329.7654" y="1130.4286"/>
      <point x="329.7654" y="1118.6142" type="curve" smooth="yes"/>
      <point x="329.7654" y="1098.2388"/>
      <point x="344.0584" y="1067.2242"/>
      <point x="237.4974" y="1067.2242" type="curve" smooth="yes"/>
      <point x="139.9656" y="1067.2242" type="line"/>
      <point x="139.9656" y="884.3264" type="line"/>
      <point x="232.2242" y="886.0386" type="line"/>
      <point x="329.8144" y="886.0386"/>
      <point x="355.3264" y="869.9948"/>
      <point x="355.3264" y="828.634" type="curve" smooth="yes"/>
      <point x="355.3264" y="775.7122"/>
      <point x="322.2826" y="753.8196"/>
      <point x="244.9948" y="753.8196" type="curve" smooth="yes"/>
      <point x="188.8436" y="753.8196"/>
      <point x="119.8144" y="768.122"/>
      <point x="89.073" y="796.2878" type="curve"/>
      <point x="20.1022" y="633.8144" type="line"/>
      <point x="100.073" y="593.4974"/>
      <point x="161.585" y="564.3608"/>
    </contour>
    <contour>
      <point x="1119.414" y="33.5318" type="line"/>
      <point x="1330.5704" y="33.5318" type="line"/>
      <point x="1332.2826" y="182.3024" type="line"/>
      <point x="1429.463" y="182.3024" type="line"/>
      <point x="1433.1606" y="371.7466" type="line"/>
      <point x="1332.5704" y="371.7466" type="line"/>
      <point x="1332.5704" y="877.3806" type="line"/>
      <point x="1107.7018" y="877.3806" type="line"/>
      <point x="748.975" y="383.5662" type="line"/>
      <point x="748.975" y="182.3024" type="line"/>
      <point x="1119.414" y="182.3024" type="line"/>
    </contour>
    <contour>
      <point x="87.1064" y="34.244" type="line"/>
      <point x="383.0094" y="34.244" type="line"/>
      <point x="1384.439" y="1347.7654" type="line"/>
      <point x="1098.097" y="1347.7654" type="line"/>
    </contour>
    <contour>
      <point x="1013.3754" y="371.7466" type="line"/>
      <point x="1115.9896" y="549.1606" type="line"/>
      <point x="1115.9896" y="371.7466" type="line"/>
    </contour>
  </outline>
</glyph>
<glyph name="Eth" format="1">
  <advance width="1386.6288"/>
  <unicode hex="00D0"/>
  <outline>
    <contour>
      <point x="667.9854" y="814.9708" type="line"/>
      <point x="-32.7174" y="814.9708" type="line"/>
      <point x="-32.7174" y="566.3118" type="line"/>
      <point x="667.9854" y="566.3118" type="line"/>
    </contour>
    <component base="D"/>
  </outline>
</glyph>
<glyph name="multiply" format="1">
  <advance width="1583.539"/>
  <unicode hex="00D7"/>
  <outline>
    <contour>
      <point x="1073.611" y="68.341" type="line"/>
      <point x="1278.2846" y="283.8634" type="line"/>
      <point x="1278.2846" y="283.8634"/>
      <point x="1112.1678" y="440.7362"/>
      <point x="995.7382" y="557.1658" type="curve"/>
      <point x="1281.1334" y="849.0" type="line"/>
      <point x="1081.1574" y="1053.8248" type="line"/>
      <point x="788.0646" y="764.7028" type="line"/>
      <point x="491.2596" y="1049.5516" type="line"/>
      <point x="295.9958" y="847.1512" type="line"/>
      <point x="576.2544" y="556.4536" type="line"/>
      <point x="305.2544" y="284.2878" type="line"/>
      <point x="501.2304" y="69.0532" type="line"/>
      <point x="788.0646" y="347.2044" type="line"/>
    </contour>
  </outline>
</glyph>
<glyph name="Oslash" format="1">
  <advance width="1476.0824"/>
  <unicode hex="00D8"/>
  <outline>
    <contour>
      <point x="575.6246" y="-250.3952" type="line"/>
      <point x="1281.366" y="1551.6778" type="line"/>
      <point x="1106.3316" y="1617.9218" type="line"/>
      <point x="407.3024" y="-189.1512" type="line"/>
    </contour>
    <component base="O"/>
  </outline>
</glyph>
<glyph name="germandbls" format="1">
  <advance width="1149.1804"/>
  <unicode hex="00DF"/>
  <outline>
    <contour>
      <point x="458.8248" y="0.0" type="line"/>
      <point x="98.829" y="0.0" type="line"/>
      <point x="98.829" y="965.9218" type="line" smooth="yes"/>
      <point x="98.829" y="1241.2242"/>
      <point x="298.0" y="1404.5266"/>
      <point x="582.5902" y="1404.5266" type="curve" smooth="yes"/>
      <point x="810.7268" y="1404.5266"/>
      <point x="1072.5516" y="1332.1658"/>
      <point x="1072.5516" y="1064.8582" type="curve" smooth="yes"/>
      <point x="1072.5516" y="790.097"/>
      <point x="938.2982" y="820.6048"/>
      <point x="938.2982" y="771.9708" type="curve" smooth="yes"/>
      <point x="938.2982" y="695.9124"/>
      <point x="1252.2492" y="639.3368"/>
      <point x="1252.2492" y="325.9416" type="curve" smooth="yes"/>
      <point x="1252.2492" y="94.1512"/>
      <point x="1088.8832" y="-24.1366"/>
      <point x="853.0782" y="-24.1366" type="curve" smooth="yes"/>
      <point x="791.8394" y="-24.1366"/>
      <point x="699.22" y="-15.3806"/>
      <point x="540.6246" y="37.7414" type="curve"/>
      <point x="618.7174" y="284.415" type="line"/>
      <point x="644.7612" y="271.9614"/>
      <point x="718.9416" y="252.22"/>
      <point x="763.4682" y="252.22" type="curve" smooth="yes"/>
      <point x="795.0386" y="252.22"/>
      <point x="880.4192" y="230.5172"/>
      <point x="880.4192" y="347.7612" type="curve" smooth="yes"/>
      <point x="880.4192" y="491.2878"/>
      <point x="574.4682" y="557.4098"/>
      <point x="574.4682" y="730.439" type="curve" smooth="yes"/>
      <point x="574.4682" y="895.1512"/>
      <point x="755.073" y="928.3316"/>
      <point x="754.3608" y="1050.4484" type="curve" smooth="yes"/>
      <point x="753.6486" y="1108.5214"/>
      <point x="679.7998" y="1133.4578"/>
      <point x="608.2732" y="1133.4578" type="curve" smooth="yes"/>
      <point x="479.4734" y="1133.4578"/>
      <point x="458.8248" y="1035.3212"/>
      <point x="458.8248" y="950.951" type="curve" smooth="yes"/>
    </contour>
  </outline>
</glyph>
<glyph name="ae" format="1">
  <advance width="1480.9406"/>
  <unicode hex="00E6"/>
  <outline>
    <contour>
      <point x="374.3754" y="-24.2732" type="curve" smooth="yes"/>
      <point x="553.9364" y="-24.2732"/>
      <point x="692.1606" y="30.6194"/>
      <point x="779.1606" y="87.2534" type="curve"/>
      <point x="853.7362" y="21.1804"/>
      <point x="925.5214" y="-19.0"/>
      <point x="1093.8092" y="-19.0" type="curve" smooth="yes"/>
      <point x="1276.9166" y="-19.0"/>
      <point x="1385.7654" y="18.0"/>
      <point x="1459.3702" y="97.9708" type="curve"/>
      <point x="1357.3066" y="334.4932" type="line"/>
      <point x="1346.3118" y="309.4494"/>
      <point x="1239.4922" y="247.9322"/>
      <point x="1111.5214" y="247.9322" type="curve"/>
      <point x="980.9948" y="251.3566"/>
      <point x="962.2586" y="299.0198"/>
      <point x="952.2586" y="398.5704" type="curve"/>
      <point x="1425.512" y="398.5704"/>
      <point x="1515.3118" y="647.1856"/>
      <point x="1515.3118" y="736.2096" type="curve" smooth="yes"/>
      <point x="1515.3118" y="907.8926"/>
      <point x="1452.951" y="1120.2294"/>
      <point x="1123.0532" y="1120.2294" type="curve" smooth="yes"/>
      <point x="994.7216" y="1120.2294"/>
      <point x="902.4682" y="1070.4588"/>
      <point x="809.2534" y="1054.2544" type="curve"/>
      <point x="741.0386" y="1083.61"/>
      <point x="673.2242" y="1119.5172"/>
      <point x="558.6976" y="1119.5172" type="curve" smooth="yes"/>
      <point x="364.073" y="1119.5172"/>
      <point x="168.9802" y="1068.5318"/>
      <point x="65.8582" y="1008.5464" type="curve"/>
      <point x="160.6486" y="774.2972" type="line"/>
      <point x="202.5704" y="780.0678"/>
      <point x="360.4046" y="847.7362"/>
      <point x="483.8144" y="847.7362" type="curve"/>
      <point x="577.78" y="837.463"/>
      <point x="601.2628" y="810.6632"/>
      <point x="601.2628" y="719.5756" type="curve" smooth="yes"/>
      <point x="601.2628" y="637.6684" type="line"/>
      <point x="563.6486" y="637.6684" type="line" smooth="yes"/>
      <point x="295.5464" y="637.6684"/>
      <point x="48.951" y="584.7612"/>
      <point x="48.951" y="323.3952" type="curve" smooth="yes"/>
      <point x="48.951" y="163.4588"/>
      <point x="154.4338" y="-24.2732"/>
    </contour>
    <contour>
      <point x="424.6194" y="215.1272" type="curve" smooth="yes"/>
      <point x="376.3806" y="215.1272"/>
      <point x="373.415" y="245.171"/>
      <point x="373.415" y="285.7414" type="curve" smooth="yes"/>
      <point x="373.415" y="339.2826"/>
      <point x="426.3076" y="396.4338"/>
      <point x="515.4484" y="396.4338" type="curve" smooth="yes"/>
      <point x="609.8238" y="396.4338" type="line"/>
      <point x="616.6726" y="341.829"/>
      <point x="646.0824" y="267.0876"/>
      <point x="643.8384" y="273.9854" type="curve"/>
      <point x="569.2482" y="241.1856"/>
      <point x="484.2826" y="215.1272"/>
    </contour>
    <contour>
      <point x="951.122" y="641.2294" type="curve"/>
      <point x="974.8342" y="896.3368"/>
      <point x="1121.805" y="884.4046"/>
      <point x="1157.1606" y="884.4046" type="curve" smooth="yes"/>
      <point x="1199.1846" y="884.4046"/>
      <point x="1234.1064" y="868.5902"/>
      <point x="1234.1064" y="772.439" type="curve" smooth="yes"/>
      <point x="1234.1064" y="725.3076"/>
      <point x="1211.6142" y="641.2294"/>
    </contour>
  </outline>
</glyph>
<glyph name="eth" format="1">
  <advance width="902.6476"/>
  <unicode hex="00F0"/>
  <outline>
    <contour>
      <point x="502.8874" y="-10.1658" type="curve" smooth="yes"/>
      <point x="788.3848" y="-10.1658"/>
      <point x="1024.4192" y="113.1168"/>
      <point x="1024.4192" y="415.0876" type="curve"/>
      <point x="1022.707" y="560.7852"/>
      <point x="978.0094" y="668.829"/>
      <point x="910.463" y="770.9656" type="curve"/>
      <point x="824.4922" y="894.5412"/>
      <point x="716.219" y="988.4484"/>
      <point x="699.5318" y="1024.4088" type="curve"/>
      <point x="835.4192" y="1086.0282" type="line"/>
      <point x="752.3264" y="1338.3848" type="line"/>
      <point x="526.6632" y="1241.5068" type="line"/>
      <point x="473.9416" y="1296.0772" type="line"/>
      <point x="49.5798" y="1296.0772" type="line"/>
      <point x="223.2138" y="1110.1992" type="line"/>
      <point x="115.6142" y="1062.4286" type="line"/>
      <point x="196.707" y="814.2086" type="line"/>
      <point x="409.341" y="902.2232" type="line"/>
      <point x="292.3546" y="1006.2388"/>
      <point x="394.779" y="929.0146"/>
      <point x="421.2472" y="928.1564" type="curve"/>
      <point x="410.1742" y="902.5464"/>
      <point x="358.2962" y="863.6924"/>
      <point x="429.6872" y="863.6924" type="curve" smooth="yes"/>
      <point x="147.2628" y="863.6924"/>
      <point x="-28.6298" y="696.0876"/>
      <point x="-28.6298" y="437.9072" type="curve" smooth="yes"/>
      <point x="-28.6298" y="141.8144"/>
      <point x="219.5412" y="-10.1658"/>
    </contour>
    <contour>
      <point x="510.5996" y="279.8738" type="curve" smooth="yes"/>
      <point x="396.7122" y="279.8738"/>
      <point x="303.9708" y="319.2294"/>
      <point x="303.9708" y="441.0438" type="curve" smooth="yes"/>
      <point x="303.9708" y="563.4484"/>
      <point x="372.195" y="615.8822"/>
      <point x="505.3118" y="615.8822" type="curve" smooth="yes"/>
      <point x="626.3212" y="615.8822"/>
      <point x="702.8186" y="564.9948"/>
      <point x="702.8186" y="423.512" type="curve" smooth="yes"/>
      <point x="702.8186" y="334.732"/>
      <point x="624.3358" y="279.8738"/>
    </contour>
  </outline>
</glyph>
<glyph name="divide" format="1">
  <advance width="1438.2596"/>
  <unicode hex="00F7"/>
  <outline>
    <contour>
      <point x="549.4442" y="6.1804" type="line"/>
      <point x="906.4838" y="6.1804" type="line"/>
      <point x="906.4838" y="354.2492" type="line"/>
      <point x="549.4442" y="354.2492" type="line"/>
    </contour>
    <contour>
      <point x="164.3076" y="436.7998" type="line"/>
      <point x="1289.6204" y="436.7998" type="line"/>
      <point x="1289.6204" y="694.049" type="line"/>
      <point x="164.3076" y="694.049" type="line"/>
    </contour>
    <contour>
      <point x="549.4442" y="802.1022" type="line"/>
      <point x="920.1814" y="802.1022" type="line"/>
      <point x="920.1814" y="1130.3368" type="line"/>
      <point x="549.4442" y="1130.3368" type="line"/>
    </contour>
  </outline>
</glyph>
<glyph name="oslash" format="1">
  <advance width="1093.024"/>
  <unicode hex="00F8"/>
  <outline>
    <contour>
      <point x="287.1512" y="-145.8634" type="line"/>
      <point x="992.1804" y="1146.6194" type="line"/>
      <point x="904.634" y="1204.3024" type="line"/>
      <point x="205.6048" y="-88.8926" type="line"/>
    </contour>
    <component base="o"/>
  </outline>
</glyph>
<glyph name="Dcroat" format="1">
  <advance width="1378.0678"/>
  <unicode hex="0110"/>
  <outline>
    <contour>
      <point x="59.2878" y="675.7414" type="line"/>
      <point x="59.2878" y="763.317" type="line"/>
      <point x="563.1658" y="763.317" type="line"/>
      <point x="563.1658" y="675.7414" type="line"/>
    </contour>
    <component base="D"/>
  </outline>
</glyph>
<glyph name="Hbar" format="1">
  <advance width="1049.6226"/>
  <unicode hex="0126"/>
  <outline>
    <contour>
      <point x="-0.0886" y="0.0" type="line"/>
      <point x="-0.0886" y="1136.6684" type="line"/>
      <point x="-68.4056" y="1136.6684" type="line"/>
      <point x="-68.4056" y="1331.9468" type="line"/>
      <point x="-0.0886" y="1331.9468" type="line"/>
      <point x="-0.0886" y="1350.7216" type="line"/>
      <point x="393.5464" y="1350.7216" type="line"/>
      <point x="393.5464" y="1331.9468" type="line"/>
      <point x="812.0084" y="1331.9468" type="line"/>
      <point x="812.0084" y="1350.7216" type="line"/>
      <point x="1209.0678" y="1350.7216" type="line"/>
      <point x="1209.0678" y="1331.9468" type="line"/>
      <point x="1277.3848" y="1331.9468" type="line"/>
      <point x="1277.3848" y="1136.6684" type="line"/>
      <point x="1209.0678" y="1136.6684" type="line"/>
      <point x="1209.0678" y="0.0" type="line"/>
      <point x="812.0084" y="0.0" type="line"/>
      <point x="812.0084" y="568.7362" type="line"/>
      <point x="393.5464" y="568.7362" type="line"/>
      <point x="393.5464" y="0.0" type="line"/>
    </contour>
    <contour>
      <point x="393.5464" y="836.2586" type="line"/>
      <point x="812.0084" y="836.2586" type="line"/>
      <point x="812.0084" y="1136.6684" type="line"/>
      <point x="393.5464" y="1136.6684" type="line"/>
    </contour>
  </outline>
</glyph>
<glyph name="hbar" format="1">
  <advance width="873.2086"/>
  <unicode hex="0127"/>
  <outline>
    <contour>
      <point x="-50.1522" y="0.0" type="line"/>
      <point x="329.9218" y="0.0" type="line"/>
      <point x="329.9218" y="716.439" type="line"/>
      <point x="396.0" y="791.9072"/>
      <point x="455.4046" y="812.6434"/>
      <point x="516.0042" y="812.6434" type="curve" smooth="yes"/>
      <point x="576.0574" y="812.6434"/>
      <point x="600.7842" y="779.3754"/>
      <point x="600.7842" y="682.0052" type="curve" smooth="yes"/>
      <point x="600.7842" y="0.0" type="line"/>
      <point x="979.146" y="0.0" type="line"/>
      <point x="979.146" y="650.9854" type="line" smooth="yes"/>
      <point x="979.146" y="1025.6882"/>
      <point x="755.7748" y="1085.2878"/>
      <point x="579.7018" y="1085.2878" type="curve" smooth="yes"/>
      <point x="488.8728" y="1085.2878"/>
      <point x="401.951" y="1063.6538"/>
      <point x="329.9218" y="1019.5516" type="curve"/>
      <point x="329.9218" y="1086.0824" type="line"/>
      <point x="611.4682" y="1086.0824" type="line"/>
      <point x="611.4682" y="1277.5266" type="line"/>
      <point x="329.9218" y="1277.5266" type="line"/>
      <point x="329.9218" y="1452.439" type="line"/>
      <point x="-50.1522" y="1434.1512" type="line"/>
      <point x="-50.1522" y="1277.5266" type="line"/>
      <point x="-149.8498" y="1277.5266" type="line"/>
      <point x="-149.8498" y="1086.0824" type="line"/>
      <point x="-50.1522" y="1086.0824" type="line"/>
    </contour>
  </outline>
</glyph>
<glyph name="dotlessi" format="1">
  <advance width="615.7226"/>
  <unicode hex="0131"/>
  <outline>
    <contour>
      <point x="135.4536" y="0.0" type="line"/>
      <point x="531.9374" y="0.0" type="line"/>
      <point x="531.9374" y="1075.5464" type="line"/>
      <point x="135.4536" y="1075.5464" type="line"/>
    </contour>
  </outline>
</glyph>
<glyph name="Eng" format="1">
  <advance width="1122.7894"/>
  <unicode hex="014A"/>
  <outline>
    <contour>
      <point x="723.7216" y="-324.2732" type="curve" smooth="yes"/>
      <point x="743.3608" y="-324.2732"/>
      <point x="709.195" y="-325.6976"/>
      <point x="774.7518" y="-330.9562" type="curve"/>
      <point x="754.464" y="17.8592" type="line"/>
      <point x="683.9364" y="20.5568"/>
      <point x="801.0636" y="19.5568"/>
      <point x="787.5464" y="19.5568" type="curve" smooth="yes"/>
      <point x="827.7748" y="19.5568"/>
      <point x="862.8968" y="54.6152"/>
      <point x="862.8968" y="122.4974" type="curve" smooth="yes"/>
      <point x="862.8968" y="832.9312" type="line" smooth="yes"/>
      <point x="862.8968" y="1017.7602"/>
      <point x="813.0042" y="1094.7748"/>
      <point x="728.0876" y="1094.7748" type="curve" smooth="yes"/>
      <point x="741.7226" y="1094.7748"/>
      <point x="584.9958" y="1110.5558"/>
      <point x="512.6788" y="961.8582" type="curve"/>
      <point x="512.6788" y="0.0" type="line"/>
      <point x="43.3118" y="0.0" type="line"/>
      <point x="46.1606" y="1365.5558" type="line"/>
      <point x="459.025" y="1365.5558" type="line"/>
      <point x="489.147" y="1272.805" type="line"/>
      <point x="490.2878" y="1282.2336"/>
      <point x="680.5464" y="1386.1314"/>
      <point x="806.0438" y="1386.1314" type="curve" smooth="yes"/>
      <point x="1160.3222" y="1386.1314"/>
      <point x="1334.6882" y="1165.4922"/>
      <point x="1334.6882" y="850.341" type="curve" smooth="yes"/>
      <point x="1334.6882" y="138.6048" type="line" smooth="yes"/>
      <point x="1334.6882" y="-177.366"/>
      <point x="1099.6778" y="-324.2732"/>
    </contour>
  </outline>
</glyph>
<glyph name="eng" format="1">
  <advance width="916.365"/>
  <unicode hex="014B"/>
  <outline>
    <contour>
      <point x="594.9072" y="-416.659" type="line"/>
      <point x="659.4828" y="-416.659" type="line" smooth="yes"/>
      <point x="1050.8832" y="-416.659"/>
      <point x="1137.3858" y="-255.9614"/>
      <point x="1139.098" y="50.4484" type="curve"/>
      <point x="1139.098" y="697.6392" type="line" smooth="yes"/>
      <point x="1139.098" y="936.7122"/>
      <point x="1006.1418" y="1105.8196"/>
      <point x="755.5808" y="1105.8196" type="curve" smooth="yes"/>
      <point x="611.854" y="1105.8196"/>
      <point x="512.5516" y="1034.4098"/>
      <point x="419.293" y="993.293" type="curve"/>
      <point x="387.8832" y="1075.5464" type="line"/>
      <point x="91.9656" y="1075.5464" type="line"/>
      <point x="91.9656" y="0.0" type="line"/>
      <point x="465.659" y="0.0" type="line"/>
      <point x="465.659" y="450.4922" type="line" smooth="yes"/>
      <point x="465.659" y="583.2242"/>
      <point x="468.659" y="696.122"/>
      <point x="492.6298" y="773.2148" type="curve"/>
      <point x="537.7518" y="802.6486"/>
      <point x="630.8738" y="816.9166"/>
      <point x="646.9854" y="816.9166" type="curve" smooth="yes"/>
      <point x="740.5266" y="816.9166"/>
      <point x="763.6924" y="754.1314"/>
      <point x="765.4046" y="620.9218" type="curve"/>
      <point x="765.4046" y="4.2972" type="line" smooth="yes"/>
      <point x="765.4046" y="-123.9708"/>
      <point x="752.5412" y="-162.9562"/>
      <point x="639.4536" y="-162.9562" type="curve" smooth="yes"/>
      <point x="548.6778" y="-162.9562" type="line"/>
    </contour>
  </outline>
</glyph>
<glyph name="OE" format="1">
  <advance width="1901.3462"/>
  <unicode hex="0152"/>
  <outline>
    <contour>
      <point x="695.341" y="-12.3024" type="curve" smooth="yes"/>
      <point x="1255.7684" y="-12.3024"/>
      <point x="1602.3846" y="-172.294"/>
      <point x="1739.3606" y="-427.8278" type="curve"/>
      <point x="1728.6776" y="-730.5128"/>
      <point x="1540.6568" y="-1062.1634"/>
      <point x="1266.4598" y="-1062.1634" type="curve"/>
      <point x="1156.0688" y="-1062.1634"/>
      <point x="2600.614" y="-1024.4168"/>
      <point x="2558.5942" y="-976.6994" type="curve"/>
      <point x="2591.126" y="-673.6744" type="line"/>
      <point x="1068.2274" y="-673.6744" type="line"/>
      <point x="1078.1982" y="98.972" type="line"/>
      <point x="2393.491" y="98.972" type="line"/>
      <point x="2393.491" y="863.6392" type="line"/>
      <point x="1107.3984" y="863.6392" type="line"/>
      <point x="1107.3984" y="1540.4024" type="line"/>
      <point x="2439.7204" y="1540.4024" type="line"/>
      <point x="2472.2522" y="2330.1478" type="line"/>
      <point x="610.5236" y="2330.1478" type="line"/>
      <point x="619.07" y="2299.909" type="line"/>
      <point x="466.6842" y="2397.5044"/>
      <point x="683.7352" y="2452.2948"/>
      <point x="464.5736" y="2452.2948" type="curve" smooth="yes"/>
      <point x="-206.6088" y="2452.2948"/>
      <point x="-711.7078" y="1868.4002"/>
      <point x="-716.8444" y="1154.4128" type="curve"/>
      <point x="-708.298" y="461.0646"/>
      <point x="-79.442" y="-12.3024"/>
    </contour>
    <contour>
      <point x="689.0678" y="281.464" type="curve" smooth="yes"/>
      <point x="119.0366" y="283.1762"/>
      <point x="-237.8966" y="642.538"/>
      <point x="-261.3992" y="1098.4222" type="curve"/>
      <point x="-257.9748" y="1559.004"/>
      <point x="-4.5692" y="1162.4484"/>
      <point x="464.5736" y="1162.4484" type="curve" smooth="yes"/>
      <point x="774.243" y="1121.853"/>
      <point x="1044.2002" y="999.3452"/>
      <point x="1247.2304" y="886.34" type="curve"/>
      <point x="1491.515" y="886.34"/>
      <point x="1644.638" y="-305.2188"/>
      <point x="1653.1844" y="-32.4462" type="curve"/>
      <point x="1543.6036" y="149.1408"/>
      <point x="1255.6902" y="277.1908"/>
    </contour>
  </outline>
</glyph>
<glyph name="uni0237" format="1">
  <advance width="670.2544"/>
  <unicode hex="0237"/>
  <outline>
    <contour>
      <point x="41.5808" y="-340.3118" type="line"/>
      <point x="110.9906" y="-340.3118" type="line" smooth="yes"/>
      <point x="526.1814" y="-340.3118"/>
      <point x="603.2888" y="-129.5016"/>
      <point x="603.2888" y="207.2304" type="curve" smooth="yes"/>
      <point x="603.2888" y="1063.0146" type="line"/>
      <point x="249.6882" y="1063.0146" type="line"/>
      <point x="249.6882" y="89.2982" type="line" smooth="yes"/>
      <point x="249.6882" y="-51.3066"/>
      <point x="196.5172" y="-74.2138"/>
      <point x="83.415" y="-74.2138" type="curve" smooth="yes"/>
      <point x="12.7174" y="-74.2138" type="line"/>
    </contour>
  </outline>
</glyph>
<glyph name="uni02BC" format="1">
  <advance width="152.389"/>
  <unicode hex="02BC"/>
  <outline>
    <contour>
      <point x="54.6924" y="749.3598" type="line"/>
      <point x="257.2586" y="749.3598" type="line"/>
      <point x="213.3994" y="1311.048" type="line"/>
      <point x="-74.0938" y="1311.048" type="line"/>
    </contour>
  </outline>
</glyph>
<glyph name="circumflex" format="1">
  <advance width="582.4286"/>
  <unicode hex="02C6"/>
  <outline>
    <contour>
      <point x="-129.6496" y="964.5308" type="line"/>
      <point x="140.1168" y="964.5308" type="line"/>
      <point x="279.8582" y="1097.3108" type="line"/>
      <point x="458.6778" y="964.5308" type="line"/>
      <point x="737.7174" y="964.5308" type="line"/>
      <point x="408.5266" y="1365.7748" type="line"/>
      <point x="183.2972" y="1365.7748" type="line"/>
    </contour>
  </outline>
</glyph>
<glyph name="caron" format="1">
  <advance width="579.0042"/>
  <unicode hex="02C7"/>
  <outline>
    <contour>
      <point x="202.9656" y="1021.0334" type="line"/>
      <point x="416.2096" y="1021.0334" type="line"/>
      <point x="753.1272" y="1365.7748" type="line"/>
      <point x="440.5558" y="1365.7748" type="line"/>
      <point x="287.1168" y="1274.0876" type="line"/>
      <point x="157.951" y="1365.7748" type="line"/>
      <point x="-148.4838" y="1365.7748" type="line"/>
    </contour>
  </outline>
</glyph>
<glyph name="breve" format="1">
  <advance width="507.6236"/>
  <unicode hex="02D8"/>
  <outline>
    <contour>
      <point x="256.1606" y="1052.1846" type="curve" smooth="yes"/>
      <point x="453.4828" y="1052.1846"/>
      <point x="588.3024" y="1149.1408"/>
      <point x="588.3024" y="1331.6872" type="curve"/>
      <point x="334.3848" y="1331.6872" type="line"/>
      <point x="334.3848" y="1301.1606"/>
      <point x="344.1314" y="1287.268"/>
      <point x="256.1606" y="1287.268" type="curve" smooth="yes"/>
      <point x="168.1898" y="1287.268"/>
      <point x="172.951" y="1301.1606"/>
      <point x="172.951" y="1331.6872" type="curve"/>
      <point x="-77.83" y="1331.6872" type="line"/>
      <point x="-77.83" y="1151.5652"/>
      <point x="59.8384" y="1052.1846"/>
    </contour>
  </outline>
</glyph>
<glyph name="dotaccent" format="1">
  <advance width="584.391"/>
  <unicode hex="02D9"/>
  <outline>
    <contour>
      <point x="156.5026" y="1123.6434" type="line"/>
      <point x="422.1908" y="1123.6434" type="line"/>
      <point x="422.1908" y="1399.3462" type="line"/>
      <point x="156.5026" y="1399.3462" type="line"/>
    </contour>
  </outline>
</glyph>
<glyph name="ring" format="1">
  <advance width="560.634"/>
  <unicode hex="02DA"/>
  <outline>
    <contour>
      <point x="280.317" y="1088.7456" type="curve" smooth="yes"/>
      <point x="216.756" y="1088.7456"/>
      <point x="198.439" y="1133.7456"/>
      <point x="198.439" y="1188.7456" type="curve" smooth="yes"/>
      <point x="198.439" y="1235.1846"/>
      <point x="223.6048" y="1287.7456"/>
      <point x="280.317" y="1287.7456" type="curve" smooth="yes"/>
      <point x="340.4536" y="1287.7456"/>
      <point x="363.195" y="1236.8968"/>
      <point x="363.195" y="1188.7456" type="curve" smooth="yes"/>
      <point x="363.195" y="1135.4578"/>
      <point x="340.4536" y="1088.7456"/>
    </contour>
    <contour>
      <point x="280.317" y="952.121" type="curve" smooth="yes"/>
      <point x="444.5172" y="952.121"/>
      <point x="529.0782" y="1070.0626"/>
      <point x="529.0782" y="1188.0334" type="curve" smooth="yes"/>
      <point x="529.0782" y="1304.292"/>
      <point x="449.6538" y="1422.2336"/>
      <point x="280.317" y="1422.2336" type="curve" smooth="yes"/>
      <point x="114.4046" y="1422.2336"/>
      <point x="31.5558" y="1306.0042"/>
      <point x="31.5558" y="1188.0334" type="curve" smooth="yes"/>
      <point x="31.5558" y="1070.0626"/>
      <point x="116.1168" y="952.121"/>
    </contour>
  </outline>
</glyph>
<glyph name="ogonek" format="1">
  <advance width="436.341"/>
  <unicode hex="02DB"/>
  <outline>
    <contour>
      <point x="528.5954" y="-394.9854" type="curve"/>
      <point x="528.5954" y="-394.9854"/>
      <point x="517.3222" y="-199.268"/>
      <point x="514.8978" y="-199.268" type="curve" smooth="yes"/>
      <point x="508.3076" y="-200.707"/>
      <point x="431.6392" y="-239.8144"/>
      <point x="363.8196" y="-239.8144" type="curve" smooth="yes"/>
      <point x="328.805" y="-239.8144"/>
      <point x="313.2002" y="-190.9948"/>
      <point x="313.2002" y="-174.9364" type="curve" smooth="yes"/>
      <point x="313.2002" y="-134.7414"/>
      <point x="291.3608" y="-77.805"/>
      <point x="388.5902" y="0.0" type="curve"/>
      <point x="242.1168" y="0.0" type="line"/>
      <point x="196.317" y="-45.1366"/>
      <point x="84.3316" y="-86.39"/>
      <point x="84.3316" y="-233.195" type="curve" smooth="yes"/>
      <point x="84.3316" y="-385.9562"/>
      <point x="211.3806" y="-439.8196"/>
      <point x="304.0" y="-439.8196" type="curve" smooth="yes"/>
      <point x="378.8196" y="-439.8196"/>
      <point x="444.244" y="-424.1074"/>
    </contour>
  </outline>
</glyph>
<glyph name="tilde" format="1">
  <advance width="501.9792"/>
  <unicode hex="02DC"/>
  <outline>
    <contour>
      <point x="124.1314" y="1061.292" type="line"/>
      <point x="148.6778" y="1130.292"/>
      <point x="173.6778" y="1150.0188"/>
      <point x="204.5412" y="1150.0188" type="curve" smooth="yes"/>
      <point x="259.9948" y="1150.0188"/>
      <point x="330.78" y="1061.292"/>
      <point x="447.1898" y="1061.292" type="curve" smooth="yes"/>
      <point x="652.8634" y="1061.292"/>
      <point x="681.195" y="1286.9072"/>
      <point x="681.195" y="1364.9948" type="curve"/>
      <point x="502.902" y="1364.9948" type="line"/>
      <point x="482.4922" y="1311.6924"/>
      <point x="465.6288" y="1296.5412"/>
      <point x="444.6142" y="1296.5412" type="curve" smooth="yes"/>
      <point x="399.1606" y="1296.5412"/>
      <point x="335.1022" y="1364.2826"/>
      <point x="188.146" y="1364.2826" type="curve" smooth="yes"/>
      <point x="-28.8154" y="1364.2826"/>
      <point x="-57.0104" y="1155.2138"/>
      <point x="-57.0104" y="1061.292" type="curve"/>
    </contour>
  </outline>
</glyph>
<glyph name="hungarumlaut" format="1">
  <advance width="989.4984"/>
  <unicode hex="02DD"/>
  <outline>
    <contour>
      <point x="143.9562" y="956.2722" type="line"/>
      <point x="360.903" y="956.2722" type="line"/>
      <point x="803.0062" y="1352.4432" type="line"/>
      <point x="484.1032" y="1352.4432" type="line"/>
    </contour>
    <contour>
      <point x="485.3712" y="956.2722" type="line"/>
      <point x="696.757" y="956.2722" type="line"/>
      <point x="1119.66" y="1352.4432" type="line"/>
      <point x="803.4546" y="1352.4432" type="line"/>
    </contour>
  </outline>
</glyph>
<glyph name="uni0307" format="1">
  <advance width="564.952"/>
  <unicode hex="0307"/>
  <outline>
    <contour>
      <point x="191.1418" y="1025.365" type="line"/>
      <point x="456.83" y="1025.365" type="line"/>
      <point x="456.83" y="1284.3994" type="line"/>
      <point x="191.1418" y="1284.3994" type="line"/>
    </contour>
  </outline>
</glyph>
<glyph name="uni0311" format="1">
  <advance width="563.7508"/>
  <unicode hex="0311"/>
  <outline>
    <contour>
      <point x="-11.6736" y="1085.414" type="curve"/>
      <point x="242.9562" y="1085.414" type="line"/>
      <point x="242.9562" y="1109.3796"/>
      <point x="287.2586" y="1119.5746"/>
      <point x="320.6048" y="1119.5746" type="curve" smooth="yes"/>
      <point x="357.0876" y="1119.5746"/>
      <point x="401.9656" y="1111.804"/>
      <point x="401.9656" y="1085.414" type="curve"/>
      <point x="655.171" y="1085.414" type="line"/>
      <point x="655.171" y="1235.8676"/>
      <point x="492.805" y="1314.853"/>
      <point x="329.5902" y="1314.853" type="curve" smooth="yes"/>
      <point x="161.5266" y="1314.853"/>
      <point x="-11.6736" y="1233.4432"/>
    </contour>
  </outline>
</glyph>
<glyph name="uni031B" format="1">
  <advance width="550.8978"/>
  <unicode hex="031B"/>
  <outline>
    <contour>
      <point x="181.7706" y="522.244" type="line"/>
      <point x="209.7414" y="453.0292"/>
      <point x="227.439" y="390.3608"/>
      <point x="227.439" y="343.2388" type="curve" smooth="yes"/>
      <point x="227.439" y="302.9072"/>
      <point x="202.1512" y="313.8978"/>
      <point x="151.3514" y="313.8978" type="curve" smooth="yes"/>
      <point x="157.7612" y="313.8978"/>
      <point x="150.4734" y="313.1856"/>
      <point x="157.5954" y="312.4734" type="curve"/>
      <point x="157.5954" y="180.8342" type="line"/>
      <point x="174.4588" y="179.5464"/>
      <point x="187.8978" y="179.9708"/>
      <point x="205.1856" y="179.9708" type="curve" smooth="yes"/>
      <point x="330.0928" y="179.9708"/>
      <point x="401.3368" y="197.1022"/>
      <point x="401.3368" y="288.2534" type="curve" smooth="yes"/>
      <point x="401.3368" y="340.6778"/>
      <point x="375.927" y="417.2096"/>
      <point x="329.5464" y="522.244" type="curve"/>
    </contour>
  </outline>
</glyph>
<glyph name="Delta" format="1">
  <advance width="738.9438"/>
  <unicode hex="0394"/>
  <outline>
    <contour>
      <point x="-158.7278" y="0.0" type="line"/>
      <point x="291.4036" y="1441.8634" type="line"/>
      <point x="588.6382" y="1441.8634" type="line"/>
      <point x="1035.633" y="0.0" type="line"/>
    </contour>
    <contour>
      <point x="215.3264" y="250.8394" type="line"/>
      <point x="673.852" y="250.8394" type="line"/>
      <point x="441.5892" y="1099.6872" type="line"/>
    </contour>
  </outline>
</glyph>
<glyph name="Lambda" format="1">
  <advance width="738.9438"/>
  <unicode hex="039B"/>
  <outline>
    <contour>
      <point x="-161.1522" y="0.0" type="line"/>
      <point x="341.1794" y="1429.4536" type="line"/>
      <point x="534.0136" y="1429.4536" type="line"/>
      <point x="1035.633" y="0.0" type="line"/>
      <point x="824.6914" y="0.0" type="line"/>
      <point x="439.1648" y="1154.5996" type="line"/>
      <point x="54.7894" y="0.0" type="line"/>
    </contour>
  </outline>
</glyph>
<glyph name="Pi" format="1">
  <advance width="1158.3796"/>
  <unicode hex="03A0"/>
  <outline>
    <contour>
      <point x="114.6194" y="0.0" type="line"/>
      <point x="114.6194" y="1429.4536" type="line"/>
      <point x="1188.5704" y="1429.4536" type="line"/>
      <point x="1188.5704" y="0.0" type="line"/>
      <point x="983.341" y="0.0" type="line"/>
      <point x="983.341" y="1248.9364" type="line"/>
      <point x="317.7122" y="1248.9364" type="line"/>
      <point x="317.7122" y="0.0" type="line"/>
    </contour>
  </outline>
</glyph>
<glyph name="Sigma" format="1">
  <advance width="872.2576"/>
  <unicode hex="03A3"/>
  <outline>
    <contour>
      <point x="121.1804" y="0.0" type="line"/>
      <point x="121.1804" y="1384.7852" type="line"/>
      <point x="1001.0146" y="1384.7852" type="line"/>
      <point x="983.317" y="1054.7894" type="line"/>
      <point x="571.6058" y="1054.7894" type="line"/>
      <point x="571.6058" y="882.7466" type="line"/>
      <point x="988.0782" y="882.7466" type="line"/>
      <point x="988.0782" y="573.7216" type="line"/>
      <point x="571.6058" y="573.7216" type="line"/>
      <point x="571.6058" y="329.9958" type="line"/>
      <point x="1023.122" y="329.9958" type="line"/>
      <point x="1016.8342" y="0.0" type="line"/>
    </contour>
  </outline>
</glyph>
<glyph name="Phi" format="1">
  <advance width="1276.1158"/>
  <unicode hex="03A6"/>
  <outline>
    <contour>
      <point x="616.902" y="0.0" type="line"/>
      <point x="616.902" y="158.439" type="line"/>
      <point x="257.5412" y="197.4244"/>
      <point x="54.5266" y="426.0146"/>
      <point x="54.5266" y="734.5902" type="curve" smooth="yes"/>
      <point x="54.5266" y="1043.317"/>
      <point x="259.1314" y="1261.8926"/>
      <point x="616.902" y="1298.1658" type="curve"/>
      <point x="616.902" y="1429.4536" type="line"/>
      <point x="817.2826" y="1429.4536" type="line"/>
      <point x="817.2826" y="1298.1658" type="line"/>
      <point x="1167.6434" y="1264.6048"/>
      <point x="1387.7946" y="1048.4536"/>
      <point x="1387.7946" y="734.5902" type="curve" smooth="yes"/>
      <point x="1387.7946" y="429.8634"/>
      <point x="1187.9166" y="197.8488"/>
      <point x="817.2826" y="158.439" type="curve"/>
      <point x="817.2826" y="0.0" type="line"/>
    </contour>
    <contour>
      <point x="616.902" y="357.2148" type="curve"/>
      <point x="616.902" y="1098.6778" type="line"/>
      <point x="384.2388" y="1069.2534"/>
      <point x="269.3316" y="934.4974"/>
      <point x="269.3316" y="734.5902" type="curve" smooth="yes"/>
      <point x="269.3316" y="544.3952"/>
      <point x="370.5266" y="392.7758"/>
    </contour>
    <contour>
      <point x="817.2826" y="357.2148" type="line"/>
      <point x="1057.6726" y="390.0636"/>
      <point x="1170.5652" y="539.2586"/>
      <point x="1170.5652" y="734.5902" type="curve" smooth="yes"/>
      <point x="1170.5652" y="928.6486"/>
      <point x="1057.3702" y="1070.2534"/>
      <point x="817.2826" y="1098.6778" type="curve"/>
    </contour>
  </outline>
</glyph>
<glyph name="Omega" format="1">
  <advance width="1516.6924"/>
  <unicode hex="03A9"/>
  <outline>
    <contour>
      <point x="827.5464" y="286.9468" type="curve" smooth="yes"/>
      <point x="994.6142" y="286.9468"/>
      <point x="1159.463" y="451.049"/>
      <point x="1159.463" y="702.0146" type="curve" smooth="yes"/>
      <point x="1159.463" y="952.2826"/>
      <point x="997.1752" y="1113.6726"/>
      <point x="826.8342" y="1113.6726" type="curve" smooth="yes"/>
      <point x="656.4932" y="1113.6726"/>
      <point x="492.9176" y="951.5704"/>
      <point x="492.9176" y="702.0146" type="curve" smooth="yes"/>
      <point x="492.9176" y="451.049"/>
      <point x="660.4786" y="286.9468"/>
    </contour>
    <contour>
      <point x="827.5464" y="-17.5756" type="curve" smooth="yes"/>
      <point x="436.6246" y="-17.5756"/>
      <point x="106.5902" y="245.0292"/>
      <point x="106.5902" y="704.7268" type="curve" smooth="yes"/>
      <point x="106.5902" y="1163.439"/>
      <point x="434.3514" y="1420.9072"/>
      <point x="826.8342" y="1420.9072" type="curve" smooth="yes"/>
      <point x="1225.0146" y="1420.9072"/>
      <point x="1542.6538" y="1165.5756"/>
      <point x="1542.6538" y="705.439" type="curve" smooth="yes"/>
      <point x="1542.6538" y="240.756"/>
      <point x="1222.0292" y="-17.5756"/>
    </contour>
  </outline>
</glyph>
<glyph name="rho" format="1">
  <advance width="948.5892"/>
  <unicode hex="03C1"/>
  <outline>
    <contour>
      <point x="133.8634" y="-390.9656" type="line"/>
      <point x="502.708" y="-374.4046" type="line"/>
      <point x="502.708" y="34.5662" type="line" smooth="yes"/>
      <point x="502.708" y="20.122"/>
      <point x="499.9958" y="36.3462"/>
      <point x="497.708" y="56.2826" type="curve"/>
      <point x="567.708" y="9.0584"/>
      <point x="623.2638" y="-14.7268"/>
      <point x="720.049" y="-14.7268" type="curve" smooth="yes"/>
      <point x="989.488" y="-14.7268"/>
      <point x="1119.7268" y="228.683"/>
      <point x="1119.7268" y="556.0928" type="curve" smooth="yes"/>
      <point x="1119.7268" y="843.439"/>
      <point x="986.3806" y="1105.8196"/>
      <point x="771.2492" y="1105.8196" type="curve" smooth="yes"/>
      <point x="651.4932" y="1105.8196"/>
      <point x="539.6006" y="1040.6684"/>
      <point x="473.3274" y="1027.9176" type="curve"/>
      <point x="442.2054" y="1077.9708" type="line"/>
      <point x="133.8634" y="1077.9708" type="line"/>
    </contour>
    <contour>
      <point x="642.6976" y="276.3128" type="curve" smooth="yes"/>
      <point x="589.269" y="276.3128"/>
      <point x="498.5714" y="310.6538"/>
      <point x="498.5714" y="565.9708" type="curve"/>
      <point x="502.708" y="792.7122"/>
      <point x="584.7226" y="816.2044"/>
      <point x="633.0" y="816.2044" type="curve" smooth="yes"/>
      <point x="674.1262" y="816.2044"/>
      <point x="752.5944" y="788.9854"/>
      <point x="752.5944" y="553.1074" type="curve" smooth="yes"/>
      <point x="752.5944" y="340.1856"/>
      <point x="685.6726" y="276.3128"/>
    </contour>
  </outline>
</glyph>
<glyph name="uni040A" format="1">
  <advance width="1972.097"/>
  <unicode hex="040A"/>
  <outline>
    <contour>
      <point x="1007.2388" y="0.0" type="line"/>
      <point x="1626.4442" y="0.0" type="line" smooth="yes"/>
      <point x="1842.6632" y="0.0"/>
      <point x="2182.781" y="71.4192"/>
      <point x="2182.781" y="422.8342" type="curve" smooth="yes"/>
      <point x="2182.781" y="789.9322"/>
      <point x="1898.7268" y="855.6392"/>
      <point x="1643.415" y="855.6392" type="curve" smooth="yes"/>
      <point x="1312.537" y="855.6392" type="line"/>
      <point x="1438.8592" y="713.634" type="line"/>
      <point x="1437.4348" y="1370.2388" type="line"/>
      <point x="1007.2388" y="1370.2388" type="line"/>
      <point x="1007.2388" y="745.3024" type="line"/>
      <point x="1097.7706" y="855.6392" type="line"/>
      <point x="446.098" y="855.6392" type="line"/>
      <point x="550.7518" y="745.3024" type="line"/>
      <point x="550.7518" y="1370.2388" type="line"/>
      <point x="120.5558" y="1370.2388" type="line"/>
      <point x="120.5558" y="0.0" type="line"/>
      <point x="550.7518" y="0.0" type="line"/>
      <point x="550.7518" y="650.5412" type="line"/>
      <point x="446.098" y="535.78" type="line"/>
      <point x="1108.3316" y="535.78" type="line"/>
      <point x="1007.2388" y="650.5412" type="line"/>
    </contour>
    <contour>
      <point x="1440.5714" y="162.8394" type="line"/>
      <point x="1440.5714" y="660.6778" type="line"/>
      <point x="1316.6736" y="535.78" type="line"/>
      <point x="1613.3076" y="535.78" type="line" smooth="yes"/>
      <point x="1684.4192" y="535.78"/>
      <point x="1746.8874" y="510.8582"/>
      <point x="1746.8874" y="429.3952" type="curve" smooth="yes"/>
      <point x="1746.8874" y="338.2346"/>
      <point x="1641.7508" y="327.4202"/>
      <point x="1557.1074" y="327.4202" type="curve" smooth="yes"/>
      <point x="1310.098" y="327.4202" type="line"/>
    </contour>
  </outline>
</glyph>
<glyph name="uni0411" format="1">
  <advance width="1193.6778"/>
  <unicode hex="0411"/>
  <outline>
    <contour>
      <point x="129.8144" y="0.0" type="line"/>
      <point x="761.3368" y="0.0" type="line" smooth="yes"/>
      <point x="977.5558" y="0.0"/>
      <point x="1324.7956" y="62.8728"/>
      <point x="1324.7956" y="414.2878" type="curve" smooth="yes"/>
      <point x="1324.7956" y="781.3858"/>
      <point x="1031.9072" y="838.8342"/>
      <point x="776.5954" y="838.8342" type="curve" smooth="yes"/>
      <point x="412.2784" y="838.8342" type="line"/>
      <point x="560.0104" y="723.9218" type="line"/>
      <point x="560.0104" y="1198.1116" type="line"/>
      <point x="449.7956" y="1085.1846" type="line"/>
      <point x="1160.1126" y="1085.1846" type="line"/>
      <point x="1160.1126" y="1400.0584" type="line"/>
      <point x="129.8144" y="1400.0584" type="line"/>
    </contour>
    <contour>
      <point x="560.0104" y="155.7174" type="line"/>
      <point x="560.0104" y="658.6924" type="line"/>
      <point x="413.7028" y="517.8238" type="line"/>
      <point x="746.488" y="517.8238" type="line" smooth="yes"/>
      <point x="823.2972" y="517.8238"/>
      <point x="892.8874" y="498.5996"/>
      <point x="892.8874" y="417.1366" type="curve" smooth="yes"/>
      <point x="892.8874" y="325.976"/>
      <point x="782.7654" y="321.7226"/>
      <point x="690.2878" y="321.7226" type="curve" smooth="yes"/>
      <point x="429.1126" y="321.7226" type="line"/>
    </contour>
  </outline>
</glyph>
<glyph name="uni041B" format="1">
  <advance width="1353.1554"/>
  <unicode hex="041B"/>
  <outline>
    <contour>
      <point x="-237.8008" y="-27.1366" type="line"/>
      <point x="-82.6298" y="-27.1366" type="line" smooth="yes"/>
      <point x="180.3066" y="-27.1366"/>
      <point x="456.0292" y="170.0782"/>
      <point x="456.0292" y="532.415" type="curve" smooth="yes"/>
      <point x="456.0292" y="1160.7164" type="line"/>
      <point x="352.3754" y="1045.243" type="line"/>
      <point x="1029.487" y="1045.9552" type="line"/>
      <point x="926.682" y="1161.4286" type="line"/>
      <point x="926.682" y="0.7122" type="line"/>
      <point x="1358.3024" y="1.4244" type="line"/>
      <point x="1356.878" y="1370.951" type="line"/>
      <point x="25.8332" y="1370.2388" type="line"/>
      <point x="25.8332" y="539.7956" type="line" smooth="yes"/>
      <point x="25.8332" y="517.9718"/>
      <point x="-12.1668" y="312.5714"/>
      <point x="-152.83" y="312.5714" type="curve" smooth="yes"/>
      <point x="-237.8008" y="312.5714" type="line"/>
    </contour>
  </outline>
</glyph>
<glyph name="uni041F" format="1">
  <advance width="1406.5704"/>
  <unicode hex="041F"/>
  <outline>
    <contour>
      <point x="120.5558" y="0.0" type="line"/>
      <point x="550.7518" y="0.0" type="line"/>
      <point x="550.7518" y="1160.7164" type="line"/>
      <point x="447.8102" y="1045.243" type="line"/>
      <point x="1082.902" y="1045.243" type="line"/>
      <point x="980.097" y="1160.7164" type="line"/>
      <point x="980.097" y="0.0" type="line"/>
      <point x="1410.293" y="0.0" type="line"/>
      <point x="1410.293" y="1370.2388" type="line"/>
      <point x="120.5558" y="1370.2388" type="line"/>
    </contour>
  </outline>
</glyph>
<glyph name="uni0424" format="1">
  <advance width="1558.5412"/>
  <unicode hex="0424"/>
  <outline>
    <contour>
      <point x="686.2388" y="0.0" type="line"/>
      <point x="1073.4348" y="0.0" type="line"/>
      <point x="1073.4348" y="187.61" type="line"/>
      <point x="1403.854" y="180.3806"/>
      <point x="1706.6298" y="432.5954"/>
      <point x="1706.6298" y="728.9854" type="curve" smooth="yes"/>
      <point x="1706.6298" y="1011.5412"/>
      <point x="1394.8686" y="1245.7852"/>
      <point x="1073.4348" y="1235.1314" type="curve"/>
      <point x="1073.4348" y="1350.7216" type="line"/>
      <point x="686.2388" y="1350.7216" type="line"/>
      <point x="682.1022" y="1237.268" type="line"/>
      <point x="353.244" y="1251.3316"/>
      <point x="35.2388" y="1020.9218"/>
      <point x="35.2388" y="728.9854" type="curve" smooth="yes"/>
      <point x="35.2388" y="415.6538"/>
      <point x="362.2294" y="172.122"/>
      <point x="682.1022" y="186.1856" type="curve"/>
    </contour>
    <contour>
      <point x="682.1022" y="495.6496" type="line"/>
      <point x="505.8686" y="483.7226"/>
      <point x="408.3566" y="626.3274"/>
      <point x="408.3566" y="722.4244" type="curve" smooth="yes"/>
      <point x="408.3566" y="806.1116"/>
      <point x="512.4296" y="938.3066"/>
      <point x="682.1022" y="926.3796" type="curve"/>
    </contour>
    <contour>
      <point x="1073.4348" y="497.7862" type="curve"/>
      <point x="1073.4348" y="924.9552" type="line"/>
      <point x="1240.1366" y="935.7456"/>
      <point x="1335.2242" y="802.2628"/>
      <point x="1335.2242" y="722.4244" type="curve" smooth="yes"/>
      <point x="1335.2242" y="622.903"/>
      <point x="1231.1512" y="486.9958"/>
    </contour>
  </outline>
</glyph>
<glyph name="uni0427" format="1">
  <advance width="2132.15"/>
  <unicode hex="0427"/>
  <outline>
    <contour>
      <point x="1109.6496" y="37.6538" type="line"/>
      <point x="1434.9916" y="37.6538" type="line"/>
      <point x="1434.9916" y="1347.8436" type="line"/>
      <point x="1109.6496" y="1347.8436" type="line"/>
      <point x="1109.6496" y="943.5328" type="line"/>
      <point x="1026.3566" y="912.44"/>
      <point x="947.9478" y="860.6642"/>
      <point x="886.7622" y="860.6642" type="curve" smooth="yes"/>
      <point x="614.7716" y="860.6642"/>
      <point x="504.952" y="892.391"/>
      <point x="504.952" y="1019.1272" type="curve" smooth="yes"/>
      <point x="504.952" y="1347.8436" type="line"/>
      <point x="215.5516" y="1347.8436" type="line"/>
      <point x="215.5516" y="1013.7956" type="line" smooth="yes"/>
      <point x="215.5516" y="551.5558"/>
      <point x="590.0354" y="582.5662"/>
      <point x="994.5286" y="582.5662" type="curve" smooth="yes"/>
      <point x="1059.8508" y="582.5662"/>
      <point x="985.5662" y="606.3858"/>
      <point x="1107.9374" y="652.3128" type="curve"/>
    </contour>
  </outline>
</glyph>
<glyph name="uni0428" format="1">
  <advance width="1856.635"/>
  <unicode hex="0428"/>
  <outline>
    <contour>
      <point x="161.8634" y="0.0" type="line"/>
      <point x="1854.416" y="0.0" type="line"/>
      <point x="1854.416" y="1400.0584" type="line"/>
      <point x="1437.5224" y="1400.0584" type="line"/>
      <point x="1437.5224" y="268.8102" type="line"/>
      <point x="1251.8842" y="268.8102" type="line"/>
      <point x="1251.8842" y="1400.0584" type="line"/>
      <point x="839.1272" y="1400.0584" type="line"/>
      <point x="839.1272" y="268.8102" type="line"/>
      <point x="575.3326" y="268.8102" type="line"/>
      <point x="575.3326" y="1400.0584" type="line"/>
      <point x="161.8634" y="1400.0584" type="line"/>
    </contour>
  </outline>
</glyph>
<glyph name="uni0429" format="1">
  <advance width="1859.8738"/>
  <unicode hex="0429"/>
  <outline>
    <contour>
      <point x="1660.8154" y="-348.6246" type="line"/>
      <point x="1991.2648" y="-348.6246" type="line"/>
      <point x="1991.2648" y="80.2534" type="line"/>
      <point x="1822.367" y="80.2534" type="line"/>
      <point x="1822.367" y="1400.0584" type="line"/>
      <point x="1407.8978" y="1400.0584" type="line"/>
      <point x="1407.8978" y="268.8102" type="line"/>
      <point x="1219.8352" y="268.8102" type="line"/>
      <point x="1219.8352" y="1400.0584" type="line"/>
      <point x="807.0782" y="1400.0584" type="line"/>
      <point x="807.0782" y="268.8102" type="line"/>
      <point x="543.2836" y="268.8102" type="line"/>
      <point x="543.2836" y="1400.0584" type="line"/>
      <point x="129.8144" y="1400.0584" type="line"/>
      <point x="129.8144" y="0.0" type="line"/>
      <point x="1658.391" y="0.0" type="line"/>
    </contour>
  </outline>
</glyph>
<glyph name="uni042A" format="1">
  <advance width="1419.6882"/>
  <unicode hex="042A"/>
  <outline>
    <contour>
      <point x="160.829" y="0.0" type="line"/>
      <point x="749.2294" y="0.0" type="line" smooth="yes"/>
      <point x="965.4484" y="0.0"/>
      <point x="1312.6882" y="62.8728"/>
      <point x="1312.6882" y="414.2878" type="curve" smooth="yes"/>
      <point x="1312.6882" y="781.3858"/>
      <point x="1019.0876" y="838.8342"/>
      <point x="763.7758" y="838.8342" type="curve" smooth="yes"/>
      <point x="443.293" y="838.8342" type="line"/>
      <point x="591.025" y="723.9218" type="line"/>
      <point x="592.7372" y="1368.5266" type="line"/>
      <point x="-78.7612" y="1368.5266" type="line"/>
      <point x="-80.4734" y="1056.0772" type="line"/>
      <point x="291.878" y="1054.6528" type="line"/>
      <point x="160.829" y="1175.853" type="line"/>
    </contour>
    <contour>
      <point x="591.025" y="155.7174" type="line"/>
      <point x="591.025" y="665.5412" type="line"/>
      <point x="444.7174" y="522.9604" type="line"/>
      <point x="733.6684" y="522.9604" type="line" smooth="yes"/>
      <point x="810.4776" y="522.9604"/>
      <point x="880.78" y="503.7362"/>
      <point x="880.78" y="422.2732" type="curve" smooth="yes"/>
      <point x="880.78" y="331.1126"/>
      <point x="770.658" y="321.7226"/>
      <point x="678.1804" y="321.7226" type="curve" smooth="yes"/>
      <point x="458.415" y="321.7226" type="line"/>
    </contour>
  </outline>
</glyph>
<glyph name="uni042C" format="1">
  <advance width="1258.7414"/>
  <unicode hex="042C"/>
  <outline>
    <contour>
      <point x="129.8144" y="0.0" type="line"/>
      <point x="728.805" y="0.0" type="line" smooth="yes"/>
      <point x="945.024" y="0.0"/>
      <point x="1292.2638" y="62.8728"/>
      <point x="1292.2638" y="414.2878" type="curve" smooth="yes"/>
      <point x="1292.2638" y="781.3858"/>
      <point x="999.3754" y="838.8342"/>
      <point x="744.0636" y="838.8342" type="curve" smooth="yes"/>
      <point x="412.2784" y="838.8342" type="line"/>
      <point x="560.0104" y="723.9218" type="line"/>
      <point x="561.7226" y="1369.2388" type="line"/>
      <point x="129.8144" y="1367.5266" type="line"/>
    </contour>
    <contour>
      <point x="560.0104" y="155.7174" type="line"/>
      <point x="560.0104" y="665.5412" type="line"/>
      <point x="413.7028" y="522.9604" type="line"/>
      <point x="713.9562" y="522.9604" type="line" smooth="yes"/>
      <point x="790.7654" y="522.9604"/>
      <point x="860.3556" y="503.7362"/>
      <point x="860.3556" y="422.2732" type="curve" smooth="yes"/>
      <point x="860.3556" y="331.1126"/>
      <point x="750.2336" y="321.7226"/>
      <point x="657.756" y="321.7226" type="curve" smooth="yes"/>
      <point x="429.1126" y="321.7226" type="line"/>
    </contour>
  </outline>
</glyph>
<glyph name="uni0447" format="1">
  <advance width="996.6632"/>
  <unicode hex="0447"/>
  <outline>
    <contour>
      <point x="768.6538" y="0.0" type="line"/>
      <point x="1120.952" y="0.0" type="line"/>
      <point x="1120.952" y="1075.5464" type="line"/>
      <point x="768.6538" y="1075.5464" type="line"/>
      <point x="768.6538" y="871.5328" type="line"/>
      <point x="758.3806" y="777.3618"/>
      <point x="766.4348" y="624.976"/>
      <point x="504.4682" y="624.976" type="curve" smooth="yes"/>
      <point x="292.9802" y="624.976"/>
      <point x="322.2586" y="838.5912"/>
      <point x="322.2586" y="876.1856" type="curve" smooth="yes"/>
      <point x="322.2586" y="1075.5464" type="line"/>
      <point x="-26.903" y="1075.5464" type="line"/>
      <point x="-26.903" y="795.2878" type="line" smooth="yes"/>
      <point x="-26.903" y="615.1908"/>
      <point x="78.0188" y="337.7852"/>
      <point x="427.707" y="332.6486" type="curve"/>
      <point x="650.293" y="332.6486"/>
      <point x="674.4828" y="396.0"/>
      <point x="768.6538" y="488.4588" type="curve"/>
    </contour>
  </outline>
</glyph>
<glyph name="uni045A" format="1">
  <advance width="1392.7018"/>
  <unicode hex="045A"/>
  <outline>
    <contour>
      <point x="21.78" y="0.0" type="line"/>
      <point x="380.0636" y="0.0" type="line"/>
      <point x="380.0636" y="418.4046" type="line"/>
      <point x="646.9604" y="418.4046" type="line"/>
      <point x="646.9604" y="0.0" type="line"/>
      <point x="1121.8436" y="0.0" type="line" smooth="yes"/>
      <point x="1322.5996" y="0.0"/>
      <point x="1516.4682" y="140.439"/>
      <point x="1516.4682" y="376.049" type="curve" smooth="yes"/>
      <point x="1516.4682" y="657.1762"/>
      <point x="1321.3264" y="727.7028"/>
      <point x="1123.5558" y="727.7028" type="curve" smooth="yes"/>
      <point x="999.1074" y="727.7028" type="line"/>
      <point x="999.1074" y="1074.122" type="line"/>
      <point x="646.9604" y="1074.122" type="line"/>
      <point x="646.9604" y="725.9906" type="line"/>
      <point x="380.0636" y="725.9906" type="line"/>
      <point x="380.0636" y="1074.122" type="line"/>
      <point x="21.78" y="1074.122" type="line"/>
    </contour>
    <contour>
      <point x="999.1074" y="282.903" type="line"/>
      <point x="999.1074" y="464.634" type="line"/>
      <point x="1102.0094" y="464.634" type="line" smooth="yes"/>
      <point x="1149.0188" y="464.634"/>
      <point x="1209.0042" y="436.9708"/>
      <point x="1209.0042" y="385.61" type="curve" smooth="yes"/>
      <point x="1209.0042" y="324.2638"/>
      <point x="1154.5798" y="282.903"/>
      <point x="1103.7216" y="282.903" type="curve" smooth="yes"/>
    </contour>
  </outline>
</glyph>
<glyph name="uni045F" format="1">
  <advance width="955.7508"/>
  <unicode hex="045F"/>
  <outline>
    <contour>
      <point x="370.9312" y="-379.537" type="line"/>
      <point x="695.4734" y="-379.537" type="line"/>
      <point x="716.0198" y="0.0" type="line"/>
      <point x="1039.1418" y="0.0" type="line"/>
      <point x="1039.1418" y="1075.5464" type="line"/>
      <point x="659.0678" y="1075.5464" type="line"/>
      <point x="659.0678" y="292.7372" type="line"/>
      <point x="419.2346" y="292.7372" type="line"/>
      <point x="419.2346" y="1075.5464" type="line"/>
      <point x="36.7362" y="1075.5464" type="line"/>
      <point x="36.7362" y="0.0" type="line"/>
      <point x="356.9458" y="0.0" type="line"/>
    </contour>
  </outline>
</glyph>
<glyph name="endash" format="1">
  <advance width="986.9406"/>
  <unicode hex="2013"/>
  <outline>
    <contour>
      <point x="32.5558" y="357.3848" type="line"/>
      <point x="1108.878" y="357.3848" type="line"/>
      <point x="1108.878" y="610.9218" type="line"/>
      <point x="32.5558" y="610.9218" type="line"/>
    </contour>
  </outline>
</glyph>
<glyph name="emdash" format="1">
  <advance width="1423.2358"/>
  <unicode hex="2014"/>
  <outline>
    <contour>
      <point x="-93.952" y="357.3848" type="line"/>
      <point x="1711.5006" y="357.3848" type="line"/>
      <point x="1711.5006" y="610.9218" type="line"/>
      <point x="-93.952" y="610.9218" type="line"/>
    </contour>
  </outline>
</glyph>
<glyph name="quoteleft" format="1">
  <advance width="302.8092"/>
  <unicode hex="2018"/>
  <outline>
    <contour>
      <point x="215.4098" y="1040.8196" type="line"/>
      <point x="425.4296" y="1040.8196" type="line"/>
      <point x="212.7216" y="1399.3462" type="line"/>
      <point x="-112.8206" y="1399.3462" type="line"/>
    </contour>
  </outline>
</glyph>
<glyph name="quoteright" format="1">
  <advance width="308.219"/>
  <unicode hex="2019"/>
  <outline>
    <contour>
      <point x="-34.6152" y="1040.8196" type="line"/>
      <point x="223.5756" y="1040.8196" type="line"/>
      <point x="410.6246" y="1399.3462" type="line"/>
      <point x="87.1898" y="1399.3462" type="line"/>
    </contour>
  </outline>
</glyph>
<glyph name="quotesinglbase" format="1">
  <advance width="539.9906"/>
  <unicode hex="201A"/>
  <outline>
    <contour>
      <point x="105.2732" y="-235.5902" type="line"/>
      <point x="363.7518" y="-235.5902" type="line"/>
      <point x="551.8008" y="272.8978" type="line"/>
      <point x="230.2148" y="272.8978" type="line"/>
    </contour>
  </outline>
</glyph>
<glyph name="quotedblleft" format="1">
  <advance width="533.6236"/>
  <unicode hex="201C"/>
  <outline>
    <contour>
      <point x="138.4922" y="795.2868" type="line"/>
      <point x="388.805" y="509.1816" type="line"/>
      <point x="294.9124" y="1363.536" type="line"/>
      <point x="-36.6152" y="1656.2022" type="line"/>
    </contour>
    <contour>
      <point x="385.5798" y="795.2868" type="line"/>
      <point x="655.4244" y="509.1816" type="line"/>
      <point x="546.561" y="1365.2482" type="line"/>
      <point x="236.1408" y="1656.2022" type="line"/>
    </contour>
  </outline>
</glyph>
<glyph name="quotedblright" format="1">
  <advance width="1001.9572"/>
  <unicode hex="201D"/>
  <outline>
    <contour>
      <point x="103.9708" y="947.5214" type="line"/>
      <point x="365.586" y="947.5214" type="line"/>
      <point x="528.391" y="1312.4578" type="line"/>
      <point x="231.6246" y="1312.4578" type="line"/>
    </contour>
    <contour>
      <point x="479.9906" y="943.9604" type="line"/>
      <point x="717.7862" y="943.9604" type="line"/>
      <point x="902.9864" y="1312.4578" type="line"/>
      <point x="589.098" y="1312.4578" type="line"/>
    </contour>
  </outline>
</glyph>
<glyph name="quotedblbase" format="1">
  <advance width="1054.489"/>
  <unicode hex="201E"/>
  <outline>
    <contour>
      <point x="159.0928" y="-235.5902" type="line"/>
      <point x="423.1324" y="-235.5902" type="line"/>
      <point x="627.8644" y="272.8978" type="line"/>
      <point x="291.732" y="272.8978" type="line"/>
    </contour>
    <contour>
      <point x="546.4786" y="-235.5902" type="line"/>
      <point x="823.6402" y="-235.5902" type="line"/>
      <point x="1019.9624" y="272.8978" type="line"/>
      <point x="691.5276" y="272.8978" type="line"/>
    </contour>
  </outline>
</glyph>
<glyph name="dagger" format="1">
  <advance width="799.7362"/>
  <unicode hex="2020"/>
  <outline>
    <contour>
      <point x="302.8582" y="95.6048" type="line"/>
      <point x="579.61" y="95.6048" type="line"/>
      <point x="579.61" y="859.7362" type="line"/>
      <point x="927.098" y="859.7362" type="line"/>
      <point x="927.098" y="1140.61" type="line"/>
      <point x="597.5808" y="1140.61" type="line"/>
      <point x="597.5808" y="1413.0438" type="line"/>
      <point x="302.8582" y="1413.0438" type="line"/>
      <point x="302.8582" y="1140.61" type="line"/>
      <point x="0.024" y="1140.61" type="line"/>
      <point x="0.024" y="859.7362" type="line"/>
      <point x="302.8582" y="859.7362" type="line"/>
    </contour>
  </outline>
</glyph>
